<?xml version="1.0" encoding="utf-8"?>
<!-- Generator: Adobe Illustrator 21.0.0, SVG Export Plug-In . SVG Version: 6.00 Build 0)  -->
<!DOCTYPE svg PUBLIC "-//W3C//DTD SVG 1.1//EN" "http://www.w3.org/Graphics/SVG/1.1/DTD/svg11.dtd" [
	<!ENTITY ns_extend "http://ns.adobe.com/Extensibility/1.0/">
	<!ENTITY ns_ai "http://ns.adobe.com/AdobeIllustrator/10.0/">
	<!ENTITY ns_graphs "http://ns.adobe.com/Graphs/1.0/">
	<!ENTITY ns_vars "http://ns.adobe.com/Variables/1.0/">
	<!ENTITY ns_imrep "http://ns.adobe.com/ImageReplacement/1.0/">
	<!ENTITY ns_sfw "http://ns.adobe.com/SaveForWeb/1.0/">
	<!ENTITY ns_custom "http://ns.adobe.com/GenericCustomNamespace/1.0/">
	<!ENTITY ns_adobe_xpath "http://ns.adobe.com/XPath/1.0/">
	<!ENTITY Drop_x0020_Shadow "fill:none;">
	<!ENTITY Outer_x0020_Glow_x0020_5_x0020_pt "fill:none;">
	<!ENTITY Jive_GS "fill:#A6D0E4;">
	<!ENTITY st0 "fill:none;">
	<!ENTITY st1 "fill:#FFFFFF;">
]>
<svg version="1.1" id="Layer_1" xmlns:x="&ns_extend;" xmlns:i="&ns_ai;" xmlns:graph="&ns_graphs;"
	 xmlns="http://www.w3.org/2000/svg" xmlns:xlink="http://www.w3.org/1999/xlink" x="0px" y="0px" viewBox="0 0 23 20"
	 style="enable-background:new 0 0 23 20;" xml:space="preserve">
<metadata>
	<sfw  xmlns="&ns_sfw;">
		<slices></slices>
		<sliceSourceBounds  bottomLeftOrigin="true" height="20" width="23" x="58.5" y="-50"></sliceSourceBounds>
	</sfw>
</metadata>
<g>
	<polygon style="&st0;" points="9.0224609,19.3312378 12.8302002,19.3312378 12.8302002,13.4840088 10.409668,15.9134521 
		9.0224609,14.5681152 	"/>
	<polygon style="&st0;" points="1.9946289,15.574707 1.9946289,19.3312378 7.2839355,19.3312378 7.2839355,12.9110107 
		6.0134888,11.6797485 	"/>
	<polygon style="&st0;" points="18.9011841,7.5513916 14.5759277,11.7432861 14.5759277,19.3312378 18.9011841,19.3312378 	"/>
	<polygon style="&st0;" points="17.3934937,2.2962646 18.4752808,3.343811 10.6585693,10.7993774 6.3818359,6.65448 
		0.975708,11.8939209 1.9335327,12.8212891 6,8.880188 10.3656616,13.1112671 19.7160645,4.1622925 20.9155273,5.3248291 
		22.0386353,0.9718018 	"/>
	<path style="&st1;" d="M16.0835571,1.97229l1.4124146,1.368042l-6.8338013,6.5168457L6.3818359,5.7088013L0,11.8939209
		l1.9335327,1.8730469L6,9.8258667l4.3620605,4.2276001l9.3504028-8.9489746l1.5768433,1.5281982L23,0L16.0835571,1.97229z
		 M20.9155273,5.3248291l-1.1994629-1.1625366l-9.3504028,8.9489746L6,8.880188l-4.0664673,3.9411011L0.975708,11.8939209
		L6.3818359,6.65448l4.2767334,4.1448975l7.8167114-7.4555664l-1.0817871-1.0475464l4.6451416-1.3244629L20.9155273,5.3248291z"/>
	<path style="&st1;" d="M1.3045654,15.2977905V20H7.973938v-7.3659058l-1.9604492-1.9000244L1.3045654,15.2977905z
		 M7.2839355,19.3312378H1.9946289V15.574707l4.0188599-3.8949585l1.2704468,1.2312622V19.3312378z"/>
	<path style="&st1;" d="M8.3323975,12.9536743V20h5.1878052v-8.1722412l-3.1195068,3.1313477L8.3323975,12.9536743z
		 M12.8302002,13.4840088v5.847229H9.0224609v-4.7631226l1.387207,1.3453369L12.8302002,13.4840088z"/>
	<path style="&st1;" d="M13.8858643,20h5.7053223V5.9369507l-5.7053223,5.5294189V20z M14.5759277,11.7432861l4.3252563-4.1918945
		v11.7798462h-4.3252563V11.7432861z"/>
</g>
</svg>
