<?xml version="1.0" encoding="utf-8"?>
<!-- Generator: Adobe Illustrator 21.0.0, SVG Export Plug-In . SVG Version: 6.00 Build 0)  -->
<!DOCTYPE svg PUBLIC "-//W3C//DTD SVG 1.1//EN" "http://www.w3.org/Graphics/SVG/1.1/DTD/svg11.dtd" [
	<!ENTITY ns_extend "http://ns.adobe.com/Extensibility/1.0/">
	<!ENTITY ns_ai "http://ns.adobe.com/AdobeIllustrator/10.0/">
	<!ENTITY ns_graphs "http://ns.adobe.com/Graphs/1.0/">
	<!ENTITY ns_vars "http://ns.adobe.com/Variables/1.0/">
	<!ENTITY ns_imrep "http://ns.adobe.com/ImageReplacement/1.0/">
	<!ENTITY ns_sfw "http://ns.adobe.com/SaveForWeb/1.0/">
	<!ENTITY ns_custom "http://ns.adobe.com/GenericCustomNamespace/1.0/">
	<!ENTITY ns_adobe_xpath "http://ns.adobe.com/XPath/1.0/">
	<!ENTITY Drop_x0020_Shadow "fill:none;">
	<!ENTITY Outer_x0020_Glow_x0020_5_x0020_pt "fill:none;">
	<!ENTITY Jive_GS "fill:#A6D0E4;">
	<!ENTITY st0 "fill:none;">
	<!ENTITY st1 "fill:#E4A523;">
	<!ENTITY st2 "fill:#FFFFFF;">
]>
<svg version="1.1" id="Layer_1" xmlns:x="&ns_extend;" xmlns:i="&ns_ai;" xmlns:graph="&ns_graphs;"
	 xmlns="http://www.w3.org/2000/svg" xmlns:xlink="http://www.w3.org/1999/xlink" x="0px" y="0px" viewBox="0 0 140 80"
	 style="enable-background:new 0 0 140 80;" xml:space="preserve">
<metadata>
	<sfw  xmlns="&ns_sfw;">
		<slices></slices>
		<sliceSourceBounds  bottomLeftOrigin="true" height="79.990799" width="140" x="0" y="-79.9953995"></sliceSourceBounds>
	</sfw>
</metadata>
<g>
	<g>
		<path style="&st0;" d="M70.6596146,52.0707512c-0.6763535,0-1.3411331-0.0308647-1.9989319-0.08004v0.0173874
			c0,0.5557022,0.1864166,0.9918022,0.5862961,1.3763962c0.4101257,0.4140358,0.8528976,0.5980453,1.4140167,0.5980453
			c0.5611496,0,1.0048294-0.1840096,1.3944626-0.5796318c0.4181824-0.4017982,0.6043091-0.8367157,0.6054306-1.3900833v-0.0220909
			C72.0024948,52.0398865,71.3370056,52.0707512,70.6596146,52.0707512z"/>
		<path style="&st0;" d="M57.7386856,41.1470833c-3.549366-3.5234184-5.3485985-7.8164902-5.3485985-12.7652168
			c0-4.9544258,1.79636-9.2418003,5.342823-12.7423897c2.4460182-2.4085217,5.2603264-4.0040207,8.4033737-4.7692099V9.7949038
			h0.0025024V6.5674486C61.8349915,7.395051,58.0095711,9.442728,54.723587,12.6862068
			c-3.9609528,3.9019947-6.1451073,8.6122322-6.5201263,14.0069351c0.212204,0.0962467,0.4101982,0.2274036,0.5919876,0.4056072
			c0.3987122,0.3962269,0.5926361,0.8588352,0.5926361,1.4143009s-0.1937675,1.0164165-0.5923119,1.4096241
			c-0.1768684,0.1746559-0.3693848,0.3030014-0.5745659,0.3995361c0.42556,5.2865582,2.6065216,9.918623,6.5081825,13.7952442
			c3.2833481,3.2217255,7.1076508,5.2542992,11.4093971,6.0759392V45.891571
			C62.995182,45.1311111,60.1813545,43.5444412,57.7386856,41.1470833z"/>
		<path style="&st0;" d="M86.1244888,28.5130501c0-0.5551262,0.1952896-1.0177326,0.5968857-1.4139595
			c0.1982422-0.1957512,0.4136124-0.3410397,0.6490555-0.437994c-0.3708954-3.82658-1.9980011-7.1761818-4.8526535-9.984005
			c-2.1402969-2.1256924-4.5973053-3.5563049-7.3345718-4.2917328v2.7355595h0.0006332v1.0337009
			c1.7565536,0.630434,3.3518829,1.6508713,4.7693863,3.0595512c2.5645523,2.5142765,3.8641357,5.5986767,3.8641357,9.1619949
			s-1.2995834,6.6591206-3.8670349,9.1904964c-1.4158325,1.3991165-3.0103607,2.4135666-4.7664871,3.0405579v0.740551h-0.0006332
			v3.0275269c2.7377396-0.7322998,5.1939545-2.1567688,7.3345718-4.2715569
			c2.7932053-2.7570724,4.4076157-6.0301056,4.8234863-9.7555504c-0.2236176-0.0976372-0.4302673-0.2370167-0.6203842-0.4258575
			C86.3196106,29.5291252,86.1244888,29.0681973,86.1244888,28.5130501z"/>
		<path style="&st0;" d="M53.8687477,28.3818665c0,4.549633,1.6519318,8.4949455,4.9153786,11.7332764
			c2.1491318,2.108223,4.6128502,3.5304565,7.35466,4.2615738v-3.7693901
			c-1.7569199-0.6263885-3.356266-1.6392899-4.7814331-3.0349617c-1.8462601-1.8305969-3.0301895-3.9534798-3.5484886-6.331583
			c-0.5534058-0.0959053-1.0349541-0.3501301-1.4606209-0.7729912c-0.556572-0.5454311-0.8272171-1.1847725-0.8272171-1.9547939
			s0.2708855-1.4117012,0.8279381-1.9613075c0.4088974-0.4037914,0.8703003-0.6529713,1.3983154-0.7558117
			c0.4838409-2.4858818,1.6900978-4.6936893,3.6042976-6.5874081c1.4251442-1.4067097,3.0265656-2.4264107,4.7872086-3.0560818
			v-3.5888529h-0.0025024v-0.1775455c-2.741333,0.7364531-5.2056046,2.1685095-7.357933,4.2911024
			C55.5206795,19.8926487,53.8687477,23.8265305,53.8687477,28.3818665z"/>
		<path style="&st0;" d="M72.0740814,3.445538c-0.8165131-0.8280489-2.0254898-0.8096352-2.8084488-0.0183876
			c-0.4185333,0.4029787-0.60495,0.773989-0.60495,1.3278782V4.767611c0.6577759-0.0493312,1.3225479-0.0803275,1.9989319-0.0803275
			c0.6757965,0,1.3398209,0.0309701,1.9968033,0.0802226C72.643959,4.2403579,72.4610519,3.8168638,72.0740814,3.445538z"/>
		<path style="&st0;" d="M68.6606827,11.9141884v3.61835c0.6488647-0.0917797,1.3152542-0.1382227,1.9989319-0.1382227
			c0.6847839,0,1.3519592,0.0465221,2.0012741,0.1385117v-0.4119091h0.0002136v-1.7926931l0.0002136,0.0000267v-1.414011
			c-0.6541061-0.0715017-1.3203201-0.1117449-2.0017014-0.1117449
			C69.9793167,11.802496,69.3140411,11.8427391,68.6606827,11.9141884z"/>
		<path style="&st0;" d="M72.6608887,41.3477707v-0.1219368c-0.6493149,0.0915184-1.3164902,0.1378822-2.0012741,0.1378822
			c-0.6836166,0-1.3500137-0.0464439-1.9989319-0.1380653v2.6104965h0.0078201v1.0093498
			c0.6508331,0.0704002,1.3135376,0.1100388,1.9911118,0.1100388c0.681488,0,1.347702-0.0400581,2.0017014-0.1112175v-3.4965477
			H72.6608887z"/>
		<path style="&st0;" d="M72.6613159,20.2813377v-0.0733414l-0.0002136,0.0000267v-2.3184738h-0.0002136v-0.8753586
			c-0.6472168-0.1046257-1.3136902-0.1603413-2.0012741-0.1603413c-0.6865692,0-1.3522797,0.0555573-1.9989319,0.1598434v3.2680378
			c0.6388855-0.148571,1.3036575-0.2323933,2.0003128-0.2323933C71.3572311,20.0493374,72.0220566,20.133028,72.6613159,20.2813377z
			"/>
		<path style="&st0;" d="M70.6596146,10.3429623c0.6800537,0,1.3466339,0.0357771,2.0017014,0.1013155V7.1748719h-0.0004272
			v-0.943944c-0.6576157-0.0529041-1.3235626-0.0841103-2.0012741-0.0841103c-0.6768036,0-1.34198,0.0311799-1.9989319,0.0838742
			v4.2133226C69.3150253,10.3786345,69.9806824,10.3429623,70.6596146,10.3429623z"/>
		<path style="&st0;" d="M68.6606827,36.4759064v3.2688789c0.6468887,0.1039696,1.3126526,0.1593971,1.9989319,0.1593971
			c0.6877975,0,1.354248-0.0553741,2.0012741-0.159317v-1.1657257h0.0004272v-2.1030769
			c-0.6392288,0.147522-1.3040848,0.230793-2.0003204,0.230793C69.9642868,36.7068558,69.2994843,36.6235619,68.6606827,36.4759064z
			"/>
		<path style="&st0;" d="M61.1386223,28.5129967c0,0.7704678-0.2687302,1.4098358-0.8215446,1.955265
			c-0.3085976,0.3047371-0.6470833,0.5195293-1.0190964,0.653368c0.482296,2.0298939,1.5192184,3.8457241,3.1048355,5.4187908
			c1.1251411,1.1021309,2.3742447,1.9355888,3.7359695,2.4977531v-3.6205063
			c-0.50457-0.3233833-0.9851532-0.701458-1.4353638-1.1458359c-1.646019-1.6251564-2.4803467-3.6078472-2.4803467-5.8932762
			c0-2.2854557,0.8343277-4.2635746,2.4794159-5.8805313c0.4507065-0.4467697,0.9315948-0.8269215,1.4362946-1.1520672v-3.6227646
			c-1.3636398,0.5657635-2.6140709,1.4055538-3.7417412,2.5172195c-1.6455536,1.6284122-2.6991882,3.5199757-3.1538048,5.6439114
			c0.3939972,0.1306553,0.7502556,0.3501263,1.0733528,0.666893C60.8696518,27.1008492,61.1386223,27.742527,61.1386223,28.5129967z
			"/>
		<path style="&st0;" d="M75.1832047,7.1748719v3.6956573c3.1408157,0.7656107,5.9479675,2.3622904,8.3800354,4.7746477
			c3.1356049,3.0824823,4.9102173,6.7756968,5.2898102,10.992671c0.2654877,0.0958786,0.5086212,0.2451077,0.7287292,0.4609013
			c0.3987045,0.3962269,0.5926361,0.8588352,0.5926361,1.4143009s-0.1937485,1.0164165-0.5922852,1.4096241
			c-0.2280655,0.2252216-0.480835,0.3773937-0.7570724,0.4731674c-0.4294739,4.1060429-2.1909103,7.7143345-5.2618179,10.7455425
			c-2.4324188,2.4009285-5.2386398,3.9887047-8.3800354,4.7496643v3.8835526h0.0006332v0.4177437
			c4.3006134-0.8232956,8.1133575-2.8590164,11.3771439-6.0805931c4.3955383-4.3386993,6.6221924-9.6294861,6.6221924-15.7298851
			s-2.2266541-11.3797855-6.6193085-15.6956596c-3.2691345-3.2417717-7.0836487-5.2888441-11.3800278-6.1172872v0.6059523
			H75.1832047z"/>
		<path style="&st0;" d="M68.6685028,46.315567v0.2892113h-0.0078201v3.9231377
			c0.6569748,0.0523529,1.3221512,0.0833015,1.9989319,0.0833015c0.6778183,0,1.3437347-0.0310516,2.0012741-0.0835342V49.774601
			h0.0004272v-3.4601135c-0.6550064,0.0650673-1.3215714,0.1005821-2.0017014,0.1005821
			C69.9833908,46.4150696,69.3203201,46.3800278,68.6685028,46.315567z"/>
		<path style="&st0;" d="M75.1838379,38.5791397v0.4575653c1.3585358-0.5628738,2.6020813-1.3974915,3.7210464-2.5019836
			c2.2786255-2.2463188,3.433815-4.9943256,3.433815-8.158556c0-3.1585293-1.1551895-5.8951378-3.4309387-8.1300545
			c-1.1201935-1.1127415-2.3649597-1.9529266-3.7239227-2.5193729v0.1628113h-0.0006332v3.4519157
			c0.5087204,0.3259068,0.9936752,0.7071114,1.4483261,1.1556396c1.6372147,1.6169567,2.4673843,3.5950756,2.4673843,5.8814507
			c0,2.2863503-0.8306198,4.2690125-2.4683228,5.8941956c-0.4541626,0.4457664-0.9388275,0.8247375-1.4473877,1.1488342v3.1575546
			H75.1838379z"/>
		<path style="&st1;" d="M79.0989151,28.3785553c0-2.286375-0.8301697-4.2644939-2.4673843-5.8814507
			c-0.4546509-0.4485283-0.9396057-0.8297329-1.4483261-1.1556396v14.0801201
			c0.5085602-0.3240967,0.9932251-0.7030678,1.4473877-1.1488342
			C78.2682953,32.6475677,79.0989151,30.6649055,79.0989151,28.3785553z"/>
		<path style="&st2;" d="M68.6606827,4.7550287c0-0.5538893,0.1864166-0.9248996,0.60495-1.3278782
			c0.782959-0.7912476,1.9919357-0.8096614,2.8084488,0.0183876c0.3869705,0.3713257,0.5698776,0.7948198,0.5823364,1.3219681
			c0.0014877,0.0001049,0.0029831,0.0001841,0.0044708,0.0003152v1.4631066v0.943944h0.0004272v3.2694058
			c0.8625031,0.0862904,1.7039795,0.2268772,2.5218887,0.4262514V7.1748719h0.0006332V6.5689197V5.0847459V4.4062409h-0.0035324
			c-0.0152206-1.2077279-0.4659348-2.2489691-1.323349-3.0712392c-0.8701477-0.8833697-1.9451828-1.3304001-3.195961-1.3304001
			c-1.2496872,0-2.3247223,0.4470305-3.1754608,1.3090967c-0.8938828,0.8599648-1.3467484,1.9221416-1.3467484,3.1546144v0.6154876
			c0.8242722-0.1476007,1.6654053-0.2519374,2.5218964-0.3161893V4.7550287z"/>
		<path style="&st1;" d="M88.825058,30.3958416c-0.2101517,0.0728664-0.432579,0.1161575-0.6756058,0.1161575
			c-0.2946243,0-0.5618362-0.0562401-0.8081894-0.1638088c-0.4158707,3.7254448-2.0302811,6.9984779-4.8234863,9.7555504
			c-2.1406174,2.1147881-4.5968323,3.539257-7.3345718,4.2715569c-0.815773,0.2182121-1.6565399,0.3748512-2.5218887,0.4690208
			c-0.6539993,0.0711594-1.3202133,0.1112175-2.0017014,0.1112175c-0.6775742,0-1.3402786-0.0396385-1.9911118-0.1100388v1.4700699
			c0.6518173,0.0644608,1.314888,0.0995026,1.9911118,0.0995026c0.68013,0,1.3466949-0.0355148,2.0017014-0.1005821
			c0.8625793-0.0857086,1.7040634-0.2253532,2.5218887-0.423439c3.1413956-0.7609596,5.9476166-2.3487358,8.3800354-4.7496643
			C86.6341476,38.1101761,88.3955841,34.5018845,88.825058,30.3958416z"/>
		<path style="&st1;" d="M68.6606827,10.4440145c-0.0004578,0.0000525-0.0009308,0.0001049-0.0014114,0.0001574v1.4701738
			c0.0004807-0.0000525,0.0009537-0.0001049,0.0014114-0.0001574c0.6533585-0.0714493,1.318634-0.1116924,1.9989319-0.1116924
			c0.6813812,0,1.3475952,0.0402431,2.0017014,0.1117449c0.8651657,0.0945644,1.705986,0.2519112,2.5218887,0.471118
			c2.7372665,0.7354279,5.1942749,2.1660404,7.3345718,4.2917328c2.8546524,2.8078232,4.4817581,6.1574249,4.8526535,9.984005
			c0.237915-0.0979805,0.4963455-0.1466312,0.7790222-0.1466312c0.2536469,0,0.4857559,0.0446835,0.703598,0.1233826
			c-0.3795929-4.2169743-2.1542053-7.9101887-5.2898102-10.992671c-2.4320679-2.4123573-5.2392197-4.009037-8.3800354-4.7746477
			c-0.8179092-0.1993742-1.6593857-0.3399611-2.5218887-0.4262514c-0.6550674-0.0655384-1.3216476-0.1013155-2.0017014-0.1013155
			C69.9806824,10.3429623,69.3150253,10.3786345,68.6606827,10.4440145z"/>
		<path style="&st1;" d="M52.3900871,28.3818665c0,4.9487267,1.7992325,9.2417984,5.3485985,12.7652168
			c2.4426689,2.3973579,5.2564964,3.9840279,8.4001007,4.7444878c0.0022964,0.0005569,0.0044708,0.0012627,0.0067596,0.0018158
			v-1.5148544c-0.0022583-0.0006027-0.0045166-0.0012093-0.0067596-0.0018158
			c-2.7418098-0.7311172-5.2055283-2.1533508-7.35466-4.2615738c-3.2634468-3.2383308-4.9153786-7.1836433-4.9153786-11.7332764
			c0-4.555336,1.6519318-8.4892178,4.9096031-11.7047749c2.1523285-2.1225929,4.6166-3.5546494,7.357933-4.2911024v-1.5157223
			c-3.1430473,0.7651892-5.9573555,2.3606882-8.4033737,4.7692099
			C54.1864471,19.1400661,52.3900871,23.4274406,52.3900871,28.3818665z"/>
		<path style="&st1;" d="M94.6618347,28.3818665c0-6.5051899-2.3739243-12.1323662-7.0525055-16.7276001
			C84.051239,8.1247787,79.885498,5.9286871,75.1838379,5.0847459v1.4841738
			c4.2963791,0.8284431,8.1108932,2.8755155,11.3800278,6.1172872c4.3926544,4.3158741,6.6193085,9.5952625,6.6193085,15.6956596
			s-2.2266541,11.3911858-6.6221924,15.7298851c-3.2637863,3.2215767-7.0765305,5.2572975-11.3771439,6.0805931v1.4834671
			c4.7050934-0.8391914,8.8703537-3.0236435,12.4225922-6.5321198
			C92.2879105,40.5199318,94.6618347,34.8813553,94.6618347,28.3818665z"/>
		<path style="&st1;" d="M48.2034607,26.6931419c0.3750191-5.3947029,2.5591736-10.1049404,6.5201263-14.0069351
			c3.285984-3.2434788,7.1114044-5.2911558,11.4151993-6.1187582c0.8227768-0.1582389,1.6645279-0.267961,2.5218964-0.3367567
			c0.6569519-0.0526943,1.3221283-0.0838742,1.9989319-0.0838742c0.6777115,0,1.3436584,0.0312061,2.0012741,0.0841103V4.7678213
			c-0.0014877-0.0001311-0.0029831-0.0002103-0.0044708-0.0003152c-0.6569824-0.0492525-1.3210068-0.0802226-1.9968033-0.0802226
			c-0.676384,0-1.341156,0.0309963-1.9989319,0.0803275c-0.8564911,0.0642519-1.6976242,0.1685886-2.5218964,0.3161893
			c-4.7078514,0.8429956-8.885746,3.0382986-12.4606361,6.564764c-4.2292595,4.1745262-6.5591698,9.2032881-6.951622,14.9699507
			c0.1989021-0.0639114,0.4079933-0.1040497,0.6365929-0.1040497
			C47.6706009,26.5144653,47.9478493,26.5772209,48.2034607,26.6931419z"/>
		<path style="&st1;" d="M68.6606827,51.9907112c0.6577988,0.0491753,1.3225784,0.08004,1.9989319,0.08004
			c0.6773911,0,1.3428802-0.0308647,2.0012741-0.0800171v-1.4630508c-0.6575394,0.0524826-1.3234558,0.0835342-2.0012741,0.0835342
			c-0.6767807,0-1.3419571-0.0309486-1.9989319-0.0833015c-0.8573456-0.0682983-1.6990967-0.1773872-2.5218964-0.3345222
			c-4.3017464-0.82164-8.126049-2.8542137-11.4093971-6.0759392c-3.9016609-3.8766212-6.0826225-8.5086861-6.5081825-13.7952442
			c-0.2606621,0.1226463-0.543396,0.1897888-0.8580856,0.1897888c-0.2214165,0-0.424202-0.038929-0.6177788-0.0994511
			c0.4461555,5.6479034,2.770237,10.5969429,6.9385834,14.7368469c3.5740585,3.5038986,7.7508926,5.6872787,12.4548607,6.5263329
			C66.9631042,51.8227768,67.8042679,51.9266968,68.6606827,51.9907112z"/>
		<path style="&st1;" d="M62.2230759,28.3785553c0,2.285429,0.8343277,4.2681198,2.4803467,5.8932762
			c0.4502106,0.4443779,0.9307938,0.8224525,1.4353638,1.1458359c0.778389,0.4988594,1.6211472,0.8500633,2.5218964,1.058239
			c0.6388016,0.1476555,1.3036041,0.2309494,2.0003128,0.2309494c0.6962357,0,1.3610916-0.083271,2.0003204-0.230793v-16.194725
			c-0.6392593-0.1483097-1.3040848-0.2320004-2.0003204-0.2320004c-0.6966553,0-1.3614273,0.0838223-2.0003128,0.2323933
			c-0.9004593,0.209383-1.743187,0.5625572-2.5218964,1.0642262c-0.5046997,0.3251457-0.9855881,0.7052975-1.4362946,1.1520672
			C63.0574036,24.1149807,62.2230759,26.0930996,62.2230759,28.3785553z"/>
		<path style="&st2;" d="M68.6685028,46.6047783V46.315567v-1.4700699v-1.0093498h-0.0078201v-2.6104965
			c0.6489182,0.0916214,1.3153152,0.1380653,1.9989319,0.1380653c0.6847839,0,1.3519592-0.0463638,2.0012741-0.1378822v0.1219368
			h0.0004272v3.4965477c0.8653488-0.0941696,1.7061157-0.2508087,2.5218887-0.4690208v-3.0275269h0.0006332v-0.740551
			c1.7561264-0.6269913,3.3506546-1.6414413,4.7664871-3.0405579c2.5674515-2.5313759,3.8670349-5.6271763,3.8670349-9.1904964
			s-1.2995834-6.6477184-3.8641357-9.1619949c-1.4175034-1.40868-3.0128326-2.4291172-4.7693863-3.0595512v-1.0337009h-0.0006332
			v-2.7355595c-0.8159027-0.2192068-1.656723-0.3765535-2.5218887-0.471118v1.414011l-0.0002136-0.0000267v1.7926931h-0.0002136
			v0.4119091c-0.6493149-0.0919895-1.3164902-0.1385117-2.0012741-0.1385117c-0.6836777,0-1.3500671,0.046443-1.9989319,0.1382227
			v-3.61835c-0.0004578,0.0000525-0.0009308,0.0001049-0.0014114,0.0001574v-1.4701738
			c0.0004807-0.0000525,0.0009537-0.0001049,0.0014114-0.0001574V6.2306919
			c-0.8573685,0.0687957-1.6991196,0.1785178-2.5218964,0.3367567v3.2274551h-0.0025024v1.0753632v1.5157223v0.1775455h0.0025024
			v3.5888529c-1.760643,0.6296711-3.3620644,1.6493721-4.7872086,3.0560818
			c-1.9141998,1.8937187-3.1204567,4.1015263-3.6042976,6.5874081c0.1858063-0.0361977,0.3794937-0.055109,0.5825462-0.055109
			c0.3268547,0,0.6296234,0.0494347,0.913414,0.1435547c0.4546165-2.1239357,1.5082512-4.0154991,3.1538048-5.6439114
			c1.1276703-1.1116657,2.3781013-1.9514561,3.7417412-2.5172195v3.6227646
			c0.7787094-0.5016689,1.6214371-0.8548431,2.5218964-1.0642262v-3.2680378
			c0.6466522-0.1042862,1.3123627-0.1598434,1.9989319-0.1598434c0.6875839,0,1.3540573,0.0557156,2.0012741,0.1603413v0.8753586
			h0.0002136v2.3184738l0.0002136-0.0000267v0.0733414v16.194725v2.1030769h-0.0004272v1.1657257
			c-0.6470261,0.1039429-1.3134766,0.159317-2.0012741,0.159317c-0.6862793,0-1.3520432-0.0554276-1.9989319-0.1593971v-3.2688789
			c-0.9007492-0.2081757-1.7435074-0.5593796-2.5218964-1.058239v3.6205063
			c-1.3617249-0.5621643-2.6108284-1.3956223-3.7359695-2.4977531c-1.5856171-1.5730667-2.6225395-3.3888969-3.1048355-5.4187908
			c-0.2994652,0.1077251-0.6202278,0.1640682-0.9681549,0.1640682c-0.1808319,0-0.3538399-0.0159454-0.5209618-0.0449162
			c0.5182991,2.3781033,1.7022285,4.5009861,3.5484886,6.331583c1.4251671,1.3956718,3.0245132,2.4085732,4.7814331,3.0349617
			v3.7693901c0.002243,0.0006065,0.0045013,0.0012131,0.0067596,0.0018158v1.5148544
			c-0.0022888-0.0005531-0.0044632-0.0012589-0.0067596-0.0018158v4.3018227
			c0.8227997,0.157135,1.6645508,0.2662239,2.5218964,0.3345222v-3.9231377H68.6685028z M75.1832047,21.341465v-3.4519157h0.0006332
			V17.726738c1.358963,0.5664463,2.6037292,1.4066315,3.7239227,2.5193729
			c2.2757492,2.2349167,3.4309387,4.9715252,3.4309387,8.1300545c0,3.1642303-1.1551895,5.9122372-3.433815,8.158556
			c-1.1189651,1.1044922-2.3625107,1.9391098-3.7210464,2.5019836v-0.4575653h-0.0006332v-3.1575546V21.341465z"/>
		<path style="&st2;" d="M75.1838379,49.774601h-0.0006332v-3.8835526c-0.8178253,0.1980858-1.6593094,0.3377304-2.5218887,0.423439
			v3.4601135h-0.0004272v0.7530823v1.4630508v0.0220909c-0.0011215,0.5533676-0.1872482,0.9882851-0.6054306,1.3900833
			c-0.3896332,0.3956223-0.833313,0.5796318-1.3944626,0.5796318c-0.5611191,0-1.003891-0.1840096-1.4140167-0.5980453
			c-0.3998795-0.384594-0.5862961-0.820694-0.5862961-1.3763962v-0.0173874
			c-0.8564148-0.0640144-1.6975784-0.1679344-2.5218964-0.3149834v0.6233139c0,1.2367325,0.4539566,2.2967796,1.3273468,3.133316
			c1.7413788,1.7667618,4.6742401,1.7433357,6.3681717,0.0234032c0.8349609-0.8003387,1.2807999-1.7805824,1.3375092-2.9125023
			h0.0120239v-0.8674469v-1.4834671V49.774601z"/>
		<path style="&st1;" d="M55.5210266,28.5129967c0,0.7700214,0.2706451,1.4093628,0.8272171,1.9547939
			c0.4256668,0.4228611,0.9072151,0.6770859,1.4606209,0.7729912c0.1671219,0.0289707,0.3401299,0.0449162,0.5209618,0.0449162
			c0.3479271,0,0.6686897-0.0563431,0.9681549-0.1640682c0.3720131-0.1338387,0.7104988-0.3486309,1.0190964-0.653368
			c0.5528145-0.5454292,0.8215446-1.1847973,0.8215446-1.955265c0-0.7704697-0.2689705-1.4121475-0.8220291-1.9617805
			c-0.3230972-0.3167667-0.6793556-0.5362377-1.0733528-0.666893c-0.2837906-0.09412-0.5865593-0.1435547-0.913414-0.1435547
			c-0.2030525,0-0.39674,0.0189114-0.5825462,0.055109c-0.5280151,0.1028404-0.989418,0.3520203-1.3983154,0.7558117
			C55.7919121,27.1012955,55.5210266,27.7429752,55.5210266,28.5129967z"/>
		<path style="&st2;" d="M48.2212067,30.3222103c0.2051811-0.0965347,0.3976974-0.2248802,0.5745659-0.3995361
			c0.3985443-0.3932076,0.5923119-0.8541584,0.5923119-1.4096241s-0.193924-1.018074-0.5926361-1.4143009
			c-0.1817894-0.1782036-0.3797836-0.3093605-0.5919876-0.4056072c-0.2556114-0.115921-0.5328598-0.1786766-0.8403397-0.1786766
			c-0.2285995,0-0.4376907,0.0401382-0.6365929,0.1040497c-0.2904701,0.0933056-0.5549469,0.246973-0.7915039,0.4805756
			c-0.4015808,0.3962269-0.5968628,0.8588333-0.5968628,1.4139595c0,0.5551472,0.1950989,1.0160751,0.5963593,1.4092827
			c0.2421684,0.2405624,0.5129471,0.3971214,0.8108215,0.4902153c0.1935768,0.0605221,0.3963623,0.0994511,0.6177788,0.0994511
			C47.6778107,30.5119991,47.9605446,30.4448566,48.2212067,30.3222103z"/>
		<path style="&st2;" d="M87.37043,26.6610966c-0.2354431,0.0969543-0.4508133,0.2422428-0.6490555,0.437994
			c-0.4015961,0.3962269-0.5968857,0.8588333-0.5968857,1.4139595c0,0.5551472,0.1951218,1.0160751,0.5963898,1.4092827
			c0.1901169,0.1888409,0.3967667,0.3282204,0.6203842,0.4258575c0.2463531,0.1075687,0.5135651,0.1638088,0.8081894,0.1638088
			c0.2430267,0,0.4654541-0.0432911,0.6756058-0.1161575c0.2762375-0.0957737,0.529007-0.2479458,0.7570724-0.4731674
			c0.3985367-0.3932076,0.5922852-0.8541584,0.5922852-1.4096241s-0.1939316-1.018074-0.5926361-1.4143009
			c-0.220108-0.2157936-0.4632416-0.3650227-0.7287292-0.4609013c-0.2178421-0.0786991-0.4499512-0.1233826-0.703598-0.1233826
			C87.8667755,26.5144653,87.608345,26.5631161,87.37043,26.6610966z"/>
	</g>
	<g>
		<g>
			<path style="&st1;" d="M11.4837084,74.9536057c-0.06392,1.4090576-0.6337976,2.6016922-1.7104445,3.5776215
				c-1.0847368,0.9762039-2.376605,1.4641724-3.8758721,1.4641724c-1.2999587,0-2.4642582-0.2755356-3.4928977-0.8265915
				c-1.2363092-0.6612701-2.0216784-1.6214981-2.356647-2.8809433c-0.0957438-0.3700409-0.0477371-0.7203751,0.1434809-1.0510101
				c0.199309-0.3306351,0.4865405-0.5430756,0.8614249-0.6375809c0.3746147-0.0944977,0.7295412-0.0471191,1.0645099,0.1416245
				c0.3349686,0.1969986,0.55019,0.4802475,0.6459339,0.8502808c0.1437504,0.5273666,0.5342777,0.9407959,1.17239,1.2397537
				c0.5741935,0.2598267,1.2279482,0.3897324,1.9618053,0.3897324c0.7494984,0,1.3916569-0.232132,1.9259343-0.6966782
				c0.542099-0.4565506,0.8293304-1.0233154,0.8611555-1.7002945c0.0159121-0.4091644-0.1313448-0.7752075-0.4425793-1.0981293
				c-0.4943619-0.5196457-1.3236923-0.7871857-2.4879918-0.8028946H5.7417741c-0.0318246,0-0.039916,0-0.0237336,0
				c-0.008091,0-0.0161824,0-0.0240035,0c-1.9539835-0.0314102-3.4492056-0.5864639-4.4859362-1.6648941
				c-0.853334-0.8973923-1.2519521-1.9404221-1.1961238-3.1290588c0.0636494-1.4170456,0.6340669-2.6134033,1.7107133-3.5895996
				c1.0763768-0.9759369,2.3685141-1.4641724,3.8756032-1.4641724c1.2996888,0,2.4642572,0.2757988,3.492897,0.8265915
				c1.23631,0.6612701,2.021678,1.6217651,2.3566465,2.8812103c0.0957441,0.3700409,0.0436916,0.720108-0.1553469,1.0507431
				c-0.1914883,0.3306351-0.4746742,0.5430756-0.8495579,0.6375809c-0.3748846,0.0945053-0.7295418,0.0473862-1.0645103-0.1416245
				c-0.3349676-0.1967316-0.55019-0.4799805-0.6459332-0.8502808c-0.1434813-0.5270996-0.5383234-0.9405289-1.184257-1.2397537
				c-0.5663724-0.259819-1.216352-0.3894653-1.9499383-0.3894653c-0.7497687,0-1.3957028,0.232132-1.9378016,0.6964035
				c-0.5345476,0.4648132-0.8174636,1.0315781-0.8492887,1.7003021c-0.0161819,0.4094391,0.1316142,0.7794724,0.4425795,1.1101074
				c0.4943619,0.5116577,1.3236926,0.7754745,2.4879916,0.7911835h0.0598736
				c1.9537139,0.0314102,3.4492059,0.5901871,4.4859357,1.6766052
				C11.1409178,72.7142258,11.5395355,73.7569809,11.4837084,74.9536057z"/>
			<path style="&st1;" d="M26.5678139,67.6692352c0.2206154,0.0630951,0.4005051,0.1860809,0.5399418,0.3694992
				c0.1394348,0.1778336,0.2090187,0.381218,0.2090187,0.6104279v10.3319626c0,0.2808533-0.098711,0.5185852-0.2961311,0.7134552
				c-0.2033577,0.2007217-0.4471645,0.3008194-0.7314301,0.3008194c-0.2845364,0-0.5283432-0.1000977-0.7314301-0.3008194
				c-0.1974201-0.19487-0.2961311-0.4326019-0.2961311-0.7134552v-6.6875153l-3.2482777,5.29496v0.008522l-0.0086327,0.0087891
				l-0.0086308,0.0085144l-0.0088978,0.0085144c-0.0172615,0.0287552-0.029129,0.0487213-0.0347919,0.060173L21.92626,77.7174225
				c-0.0231934,0.0231552-0.0377579,0.037529-0.0434227,0.0431213c-0.0059319,0.0058594-0.0175304,0.0170364-0.0347919,0.0343475
				c-0.0175285,0.0172958-0.0291271,0.0287476-0.0347919,0.0343399c-0.0118656,0.0117111-0.0291252,0.0258255-0.0523205,0.0431213
				l-0.0261612,0.0258255c-0.0175304,0.0114441-0.037756,0.0228958-0.0609531,0.0343399
				c0,0.0055923-0.0029659,0.008522-0.0086308,0.008522l-0.0088978,0.0085144h-0.0086308
				c-0.0115986,0.0117188-0.031826,0.0231628-0.0609531,0.0343475c-0.0231934,0.0117111-0.0318241,0.0172958-0.0261612,0.0172958
				c-0.0056629,0-0.0231934,0.0058594-0.0520515,0.0173111c-0.1337719,0.0572357-0.2729378,0.0830536-0.4180355,0.0772018
				h-0.0175323c0.0115986,0,0-0.0026627-0.0347919-0.008522c-0.0755157-0.0055923-0.1510296-0.0199661-0.2265472-0.0431213
				c-0.029129-0.0055923-0.0404568-0.008522-0.0347919-0.008522c0.0115986,0.0058517,0,0.0029297-0.0347919-0.008522
				c-0.0291271-0.0114441-0.0493546-0.0199661-0.0609531-0.0258255c0.0056648,0,0-0.0055847-0.0172596-0.0172958
				c-0.0291271-0.0111847-0.0523205-0.0226288-0.0698528-0.0343475h-0.0086308L20.5766773,77.94104l-0.0089016-0.008522
				c-0.0231934-0.0114441-0.0434227-0.0258179-0.0609512-0.043129c0,0.0058594-0.0086327,0-0.0261612-0.0170364
				c-0.0231934-0.0172958-0.0404549-0.0314102-0.0520515-0.0431213c-0.0059357-0.0055923-0.0175323-0.0170441-0.0347919-0.0343399
				c-0.0175323-0.0173111-0.029129-0.0284882-0.0350609-0.0343475c-0.0056648-0.0114441-0.0202274-0.0258179-0.0434227-0.0431213
				c-0.0115967-0.0170441-0.0175304-0.0284882-0.0175304-0.0343399c-0.0115986-0.0114517-0.0258923-0.0314178-0.0434227-0.060173
				l-0.0086288-0.0085144c0-0.0055847-0.0029678-0.0085144-0.0089016-0.0085144v-0.0087891
				c0-0.0055923-0.0029659-0.008522-0.0086308-0.008522l-3.239378-5.29496v6.6875153
				c0,0.2808533-0.1016769,0.5185852-0.3047619,0.7134552c-0.2033539,0.2007217-0.4471645,0.3008194-0.731698,0.3008194
				c-0.2842646,0-0.5253782-0.1000977-0.7227993-0.3008194c-0.2030849-0.19487-0.3047619-0.4326019-0.3047619-0.7134552V68.6491623
				c0-0.2292099,0.0698519-0.4325943,0.2090178-0.6104279c0.1394358-0.1834183,0.3222933-0.3064041,0.5485725-0.3694992
				c0.2206144-0.0572357,0.4385338-0.045784,0.6532154,0.0343475c0.2146816,0.0859833,0.3832455,0.2262802,0.5051498,0.4211426
				l4.2844715,6.9883423l4.2844677-6.9883423c0.1159706-0.1948624,0.2815685-0.3351593,0.4962502-0.4211426
				c0.2146835-0.0801315,0.3222923-0.1203308,0.3222923-0.1203308S26.3415337,67.6119995,26.5678139,67.6692352z"/>
			<path style="&st1;" d="M30.8870754,79.9179306c-0.2610703-0.1086121-0.4468956-0.2920303-0.5572014-0.5499954
				c-0.1043758-0.2579575-0.1043758-0.5156555,0-0.773613l1.1060429-2.6216583v-0.0085144l3.2043152-7.63311
				c0.0118713-0.0284882,0.026432-0.0572357,0.0436935-0.0859833l0.0172615-0.0428619
				c0.0172615-0.0228958,0.0291252-0.0372696,0.0350609-0.0431213c0-0.0055923,0.0086327-0.0199738,0.0258904-0.0428619
				c0.0172615-0.0173111,0.029129-0.0287552,0.0350609-0.0343399c0-0.0058594,0.0086288-0.0173111,0.0258904-0.0346146
				c0.0231972-0.0226212,0.0350647-0.0370026,0.0350647-0.0428543c0.005394-0.0055923,0.0172577-0.0141144,0.0345192-0.0258255
				c0.0231934-0.0228958,0.0377579-0.0343399,0.0436935-0.0343399c-0.0059357,0,0.0059319-0.008522,0.0350609-0.0258255
				c0.0231934-0.0170364,0.0377541-0.0284882,0.0431519-0.0343399l0.0350609-0.0258255
				c0.0291252-0.0173035,0.0463867-0.0258179,0.0523186-0.0258179c0.0113297-0.0055923,0.0318298-0.0141144,0.060955-0.0258255
				c0.0291252-0.0170364,0.0377579-0.0226288,0.0258904-0.0170364c-0.0113258,0.0055923,0,0,0.0350647-0.0173035
				c0.0291252-0.0055923,0.0490837-0.0114441,0.0609474-0.0170364c0.0053978,0,0.0258942-0.0058594,0.060955-0.0173111
				l0.034523-0.0085144c0.0118637,0,0.0318222-0.0029297,0.0609512-0.0087814l0.0436897-0.008522
				c0.0059357,0,0.0231972,0,0.0523224,0c0.0231934,0,0.0377579,0,0.0436935,0c0.0113258,0,0.0285873,0,0.0523224,0h0.0517807
				l0.0523224,0.008522l0.0436935,0.0087814c0.0118675,0,0.0318222,0.0055923,0.0609512,0.0170364
				c0.0350609,0.0058594,0.0463905,0.0087891,0.0350609,0.0087891c0.0695801,0.0170364,0.1332321,0.0428543,0.1914902,0.0772018
				c-0.0059357-0.0055923,0.005394,0,0.0345192,0.0172958c0.0291252,0.0170441,0.0463867,0.0287552,0.0523224,0.0343475
				l0.0350609,0.0258179c0.0231934,0.0170364,0.0377579,0.0287552,0.0436897,0.0343475
				c0.005394,0,0.0172653,0.0085144,0.034523,0.0258179c0.0172615,0.0170364,0.031826,0.0287552,0.0436897,0.0343475
				c0,0.0058517,0.0086327,0.0172958,0.0258942,0.0343323c0.0231934,0.0229034,0.0350609,0.0372772,0.0350609,0.0431366
				l0.0258904,0.0343399c0.0231934,0.0228882,0.0350609,0.0372696,0.0350609,0.0428619
				c0,0.0058517,0.0086327,0.0202255,0.0258942,0.0431213c0.0177994,0.0228958,0.0264282,0.0372696,0.0264282,0.0428619
				c0.0172615,0.0287476,0.0318222,0.0574951,0.0431519,0.0859833l3.2051277,7.63311v0.0085144l1.1057739,2.6216583
				c0.1046448,0.2579575,0.1046448,0.5156555,0,0.773613c-0.1105766,0.2579651-0.2961311,0.4413834-0.5572052,0.5499954
				c-0.1278343,0.0516434-0.2583694,0.0774689-0.3921432,0.0774689c-0.4584923,0-0.7751198-0.2092438-0.9493484-0.6274643
				l-0.8355331-1.994194h-5.0420609l-0.836071,1.994194c-0.1742249,0.4182205-0.4905853,0.6274643-0.9493484,0.6274643
				c-0.133503,0-0.2001171,0-0.2001171,0S31.0149136,79.969574,30.8870754,79.9179306z M37.2617264,75.3537216l-1.6807747-3.9883881
				l-1.6721458,3.9883881H37.2617264z"/>
			<path style="&st1;" d="M51.8390656,71.2364807c0,0.7563095-0.2378769,1.4412766-0.7141685,2.0543594
				c-0.4584885,0.6074982-1.0620842,1.0400925-1.8113136,1.2977905l1.9769096,3.9540482
				c0.1219063,0.2465134,0.1364708,0.5015488,0.0436897,0.7650909c-0.0873795,0.2635574-0.2583694,0.4584198-0.5140495,0.5846024
				c-0.1450996,0.0686798-0.2961311,0.1030273-0.4525528,0.1030273c-0.4239769,0-0.7287331-0.1890106-0.9148293-0.5672989
				l-2.3075638-4.6158524h-1.7676201v4.1001968c0,0.2750015-0.101944,0.5127258-0.3047562,0.7134552
				c-0.1974258,0.1948624-0.4385376,0.2920303-0.722805,0.2920303c-0.2788696,0-0.5194435-0.097168-0.7227936-0.2920303
				c-0.197422-0.2007294-0.2961349-0.4384537-0.2961349-0.7134552V68.6661987c0-0.2805862,0.0987129-0.5185776,0.2961349-0.7134476
				c0.2033501-0.2004547,0.443924-0.3008194,0.7227936-0.3008194h3.6053619c1.0739555,0,1.9882355,0.3495407,2.7428627,1.0486145
				C51.458786,69.3998871,51.8390656,70.2451096,51.8390656,71.2364807z M48.0249519,72.7922211
				c0.4876213-0.0172958,0.9056549-0.1746292,1.2541084-0.4727859c0.3419838-0.3037491,0.5135155-0.6647339,0.5135155-1.0829544
				c0-0.435524-0.1801605-0.8050232-0.5399437-1.1090393c-0.3597794-0.3034821-0.7923813-0.4554901-1.2972641-0.4554901h-2.5778008
				v3.1202698H48.0249519z"/>
			<path style="&st1;" d="M57.2293053,69.6804733h-2.5864258c-0.2842674,0-0.52808-0.1000977-0.7314301-0.3008194
				c-0.197422-0.194603-0.2961311-0.4326019-0.2961311-0.7134552c0-0.2805862,0.0987091-0.5185776,0.2961311-0.7134476
				c0.2033501-0.2004547,0.4471626-0.3008194,0.7314301-0.3008194h7.2366142c0.2788734,0,0.5194435,0.1003647,0.7227974,0.3008194
				c0.197422,0.19487,0.2961311,0.4328613,0.2961311,0.7134476c0,0.2808533-0.0987091,0.5188522-0.2961311,0.7134552
				c-0.2033539,0.2007217-0.443924,0.3008194-0.7227974,0.3008194h-2.5950661v9.3006516
				c0,0.2808533-0.1014061,0.5215149-0.3047562,0.7219772c-0.197422,0.1948624-0.4379959,0.2922974-0.722805,0.2922974
				c-0.2842636,0-0.5253754-0.097435-0.7227936-0.2922974c-0.2033577-0.2004623-0.3047676-0.441124-0.3047676-0.7219772V69.6804733z
				"/>
			<path style="&st2;" d="M88.7662811,63.1457596c0.3667908,0.1341667,0.6343384,0.3740273,0.8015518,0.7203674
				c0.1677551,0.346611,0.1871643,0.7006683,0.0598755,1.0627213l-5.0363922,14.1337433v0.0117111
				c-0.0156479,0.0553741-0.039917,0.1142044-0.0717468,0.1772995c-0.0156479,0.0157089-0.023735,0.0276871-0.023735,0.035408
				c-0.0318298,0.0551071-0.0679703,0.1062164-0.1078796,0.1533356c0.0161819-0.0234222,0.0080948-0.0117111-0.023735,0.035408
				c-0.0318222,0.0396652-0.0679626,0.0787964-0.107338,0.1181946c-0.0242767,0.0236893-0.0323639,0.0314178-0.0242767,0.0236893
				c-0.0480042,0.0394058-0.0954742,0.078804-0.143486,0.1179352c0.0081024-0.0077209-0.0043106,0-0.0355911,0.0236969
				c-0.0480118,0.0314102-0.0960159,0.0590973-0.1440277,0.0825272c-0.0237274,0.007988-0.0318222,0.0119781-0.0237274,0.0119781
				c-0.0560989,0.0234222-0.1078873,0.043396-0.1553497,0.0590973c-0.0323639,0.0157089-0.0361404,0.0196991-0.0118637,0.0117111
				c-0.0480118,0.0157089-0.1041107,0.0276871-0.1677551,0.035408c-0.063652,0.015976-0.0836105,0.0196991-0.0598755,0.0117111
				c-0.0798264,0.015976-0.1553497,0.0236969-0.2270966,0.0236969c-0.0717316,0-0.147789-0.0077209-0.2276154-0.0236969
				c0.0242691,0.007988,0.0043106,0.0042648-0.0593414-0.0117111c-0.0641785-0.0077209-0.1159668-0.0196991-0.1558838-0.035408
				c0.0161819,0.007988,0.0080872,0.0039978-0.023735-0.0117111c-0.0480118-0.0157013-0.0954742-0.035675-0.1434784-0.0590973
				l-0.0361404-0.0119781c-0.0474701-0.0234299-0.0954742-0.0511169-0.143486-0.0825272
				c0-0.0077209-0.0037766-0.0117111-0.0118637-0.0117111l-0.0118713-0.0119858
				c-0.0560989-0.0391312-0.1035614-0.0785294-0.1434784-0.1179352c0,0.0077286-0.0118713,0-0.0361404-0.0236893
				c-0.0399094-0.0393982-0.0760498-0.0827866-0.107338-0.1299133l-0.0242767-0.0236893
				c-0.0318222-0.0471191-0.0636444-0.0982285-0.0954666-0.1533356c-0.0080948-0.0157089-0.0161819-0.0276871-0.0242767-0.035408
				c-0.0318222-0.0630951-0.0593414-0.1219254-0.0836105-0.1772995v-0.0117111l-3.6959763-10.3908005l-3.6965256,10.3908005
				v0.0117111c-0.023735,0.0553741-0.0517807,0.1142044-0.0836029,0.1772995
				c-0.0080948,0.0157089-0.0161819,0.0276871-0.0242767,0.035408c-0.0318222,0.0551071-0.0636444,0.1062164-0.0954742,0.1533356
				c0.0156479-0.0234222,0.0075531-0.0117111-0.023735,0.035408c-0.040451,0.0396652-0.0798264,0.0787964-0.1197433,0.1181946
				c-0.0242767,0.0236893-0.0323639,0.0314178-0.0242767,0.0236893c-0.039917,0.0394058-0.0873795,0.078804-0.1434784,0.1179352
				c0.0161819-0.0077209,0.0043182,0-0.0356064,0.0236969c-0.0480042,0.0314102-0.0960083,0.0590973-0.1434784,0.0825272
				c-0.0242691,0.007988-0.0323639,0.0119781-0.0242691,0.0119781c-0.0555573,0.0234222-0.103569,0.043396-0.1434784,0.0590973
				c-0.039917,0.0157089-0.0480118,0.0196991-0.0237427,0.0117111c-0.0480042,0.0157089-0.1041031,0.0276871-0.1677475,0.035408
				c-0.0555573,0.015976-0.0755157,0.0196991-0.0598755,0.0117111c-0.0717392,0.015976-0.1434784,0.0236969-0.2152252,0.0236969
				c-0.0798264,0-0.1553421-0.0077209-0.2270889-0.0236969c0.0237427,0.007988,0.0037842,0.0042648-0.0598679-0.0117111
				c-0.0641937-0.0077209-0.119751-0.0196991-0.1672134-0.035408c0.023735,0.007988,0.0194168,0.0039978-0.0124054-0.0117111
				c-0.0474701-0.0157013-0.0997925-0.035675-0.1553497-0.0590973c0.0080872,0,0-0.0039902-0.023735-0.0119781
				c-0.0480042-0.0234299-0.0960159-0.0511169-0.1434784-0.0825272c-0.0080948-0.0077209-0.0161819-0.0117111-0.0242767-0.0117111
				c0-0.007988-0.0037766-0.0119858-0.0118637-0.0119858c-0.0480042-0.0391312-0.0954742-0.0785294-0.143486-0.1179352
				c0.0075607,0.0077286,0,0-0.0237274-0.0236893c-0.0404587-0.0393982-0.079834-0.0827866-0.119751-0.1299133l-0.0118637-0.0236893
				c-0.0404587-0.0471191-0.0760574-0.0982285-0.1078796-0.1533356c-0.0080948-0.0157089-0.0161819-0.0276871-0.023735-0.035408
				c-0.0323639-0.0630951-0.0560989-0.1219254-0.0717392-0.1772995l-0.012413-0.0117111l-5.0239868-14.1337433
				c-0.1278381-0.3620529-0.107338-0.7161102,0.0598755-1.0627213c0.1672134-0.3463402,0.434761-0.5862007,0.8015518-0.7203674
				c0.3667908-0.1256523,0.7254944-0.1062202,1.0766449,0.0590973c0.3506088,0.1733055,0.5938797,0.4411125,0.7298126,0.8028946
				l3.6959763,10.3908005l3.6965256-10.3908005v-0.0117111c0.0075531-0.0157089,0.0156403-0.039402,0.023735-0.0708122
				c0.0242691-0.0473862,0.0318298-0.0668182,0.0242691-0.0591011c0.0075607,0,0.0194244-0.0157051,0.0355988-0.0471191
				c0.063652-0.1259155,0.143486-0.2361298,0.239502-0.3306351c0.1035614-0.1022263,0.2227707-0.1890106,0.358696-0.2598228
				c0.0318298-0.0157051,0.0436935-0.0236931,0.0361404-0.0236931l0.0593414-0.0234261
				c0.0399094-0.0157089,0.0641861-0.0236931,0.0717392-0.0236931c-0.0075531,0-0.0037766-0.003994,0.0124054-0.0119781
				c-0.0080948,0.0079842,0.0075531,0.0042572,0.0474625-0.0117149c0.0318298-0.0077209,0.0560989-0.0157051,0.0717392-0.0236931
				c0.0161819,0,0.039917-0.003727,0.0717392-0.0117149c0.0242767-0.0077171,0.0442352-0.0117111,0.0598831-0.0117111
				c0.0161743,0,0.0436859-0.003994,0.0841446-0.011982c0.023735,0,0.0436935,0,0.0593338,0h0.1316071
				c0.0242767,0,0.0517883,0.004261,0.0841522,0.011982h0.0598755c0.0156403,0,0.0436935,0.003994,0.0836029,0.0117111
				l0.0474701,0.0117149c0.0242691,0.007988,0.0560989,0.0159721,0.0960083,0.0236931
				c0,0.007988,0.0037842,0.0117149,0.0118713,0.0117149s0.0161819,0,0.023735,0v0.0119781h0.0124054
				c0.0156479,0.0079842,0.0393753,0.0196991,0.0717392,0.035408l0.0598755,0.0117111l0.0474625,0.0354042
				c0.1278381,0.0630951,0.2432785,0.1458855,0.3468399,0.2481117c0.0960083,0.0945053,0.1753082,0.2007217,0.2394943,0.3186569
				l0.023735,0.0590973l0.0242691,0.0471191c0.0156479,0.0396652,0.0275116,0.0670853,0.0355988,0.0827942v0.0117111
				l3.6965179,10.3908005l3.6965332-10.3908005c0.1272964-0.3617821,0.3662491-0.6295891,0.7173996-0.8028946
				c0.3511505-0.1653175,0.5264587-0.2478447,0.5264587-0.2478447S88.3913956,63.0201073,88.7662811,63.1457596z"/>
			<path style="&st2;" d="M88.4299316,79.9179306c-0.2610703-0.1086121-0.4471664-0.2920303-0.5571899-0.5499954
				c-0.1046524-0.2579575-0.1046524-0.5156555,0-0.773613l1.1057663-2.6216583v-0.0085144l3.2045898-7.63311
				c0.0118713-0.0284882,0.0264282-0.0572357,0.0436859-0.0859833l0.017807-0.0428619
				c0.0172653-0.0228958,0.0285873-0.0372696,0.0345154-0.0431213c0-0.0055923,0.0086365-0.0199738,0.0258942-0.0428619
				c0.0172653-0.0173111,0.0291214-0.0287552,0.0350647-0.0343399c0-0.0058594,0.0086212-0.0173111,0.0264206-0.0346146
				c0.0226669-0.0226212,0.034523-0.0370026,0.034523-0.0428543c0.005394-0.0055923,0.0172653-0.0141144,0.034523-0.0258255
				c0.0237427-0.0228958,0.0377579-0.0343399,0.0442352-0.0343399c-0.0064774,0,0.005394-0.008522,0.034523-0.0258255
				c0.0231934-0.0170364,0.0377579-0.0284882,0.0436859-0.0343399l0.034523-0.0258255
				c0.029129-0.0173035,0.0463943-0.0258179,0.0523224-0.0258179c0.0118713-0.0055923,0.0318298-0.0141144,0.0609589-0.0258255
				c0.029129-0.0170364,0.0377579-0.0226288,0.0264206-0.0170364c-0.0118561,0.0055923,0,0,0.034523-0.0173035
				c0.029129-0.0055923,0.0490875-0.0114441,0.0609589-0.0170364c0.005928,0,0.0264359-0.0058594,0.0609512-0.0173111
				l0.0350571-0.0085144c0.0113297,0,0.0318298-0.0029297,0.0609589-0.0087814l0.0431519-0.008522
				c0.0059357,0,0.0231857,0,0.0523148,0c0.0231934,0,0.0377579,0,0.0437012,0c0.011322,0,0.029129,0,0.0523148,0h0.0523224
				l0.0523224,0.008522l0.0431519,0.0087814c0.0118713,0,0.0318298,0.0055923,0.0609589,0.0170364
				c0.0350571,0.0058594,0.0463791,0.0087891,0.0350571,0.0087891c0.0695801,0.0170364,0.1332321,0.0428543,0.1914902,0.0772018
				c-0.0059357-0.0055923,0.005928,0,0.0350571,0.0172958c0.0285873,0.0170441,0.0463943,0.0287552,0.0523224,0.0343475
				l0.034523,0.0258179c0.0231934,0.0170364,0.0377579,0.0287552,0.0436859,0.0343475
				c0.005394,0,0.0172653,0.0085144,0.034523,0.0258179c0.0177994,0.0170364,0.0318298,0.0287552,0.0436935,0.0343475
				c0,0.0058517,0.0086288,0.0172958,0.0264282,0.0343323c0.0226593,0.0229034,0.034523,0.0372772,0.034523,0.0431366
				l0.0264359,0.0343399c0.0226517,0.0228882,0.034523,0.0372696,0.034523,0.0428619
				c0,0.0058517,0.0086288,0.0202255,0.0264206,0.0431213c0.0172653,0.0228958,0.0259018,0.0372696,0.0259018,0.0428619
				c0.0172577,0.0287476,0.0318146,0.0574951,0.0436859,0.0859833l3.2045898,7.63311v0.0085144l1.1057739,2.6216583
				c0.1046448,0.2579575,0.1046448,0.5156555,0,0.773613c-0.1100464,0.2579651-0.2961273,0.4413834-0.5572052,0.5499954
				c-0.1278381,0.0516434-0.2583694,0.0774689-0.3921432,0.0774689c-0.4584885,0-0.7745819-0.2092438-0.9488068-0.6274643
				l-0.8360748-1.994194h-5.0423279l-0.8360748,1.994194c-0.1742249,0.4182205-0.4903183,0.6274643-0.9493408,0.6274643
				c-0.1332397,0-0.2001266,0-0.2001266,0S88.5577774,79.969574,88.4299316,79.9179306z M94.8045883,75.3537216
				l-1.6807709-3.9883881l-1.6721497,3.9883881H94.8045883z"/>
			<path style="&st2;" d="M101.9451904,67.6692352c0.2842636,0,0.5253754,0.1003647,0.7227936,0.3008194
				c0.2033615,0.19487,0.3047714,0.4325943,0.3047714,0.7134552v9.2833557h4.6064911
				c0.2848053,0,0.5286102,0.1003571,0.7314301,0.3008118c0.1974258,0.19487,0.2961273,0.4325943,0.2961273,0.7134476
				s-0.0987015,0.5185852-0.2961273,0.7134552c-0.2028198,0.2007217-0.4466248,0.3008194-0.7314301,0.3008194h-5.6340561
				c-0.2842636,0-0.5253754-0.1000977-0.7227936-0.3008194c-0.2033539-0.19487-0.3047638-0.4326019-0.3047638-0.7134552V68.6835098
				c0-0.2808609,0.1014099-0.5185852,0.3047638-0.7134552C101.4198151,67.7695999,101.6609268,67.6692352,101.9451904,67.6692352z"
				/>
			<path style="&st2;" d="M111.925209,67.6692352c0.2842636,0,0.5253754,0.1003647,0.7228012,0.3008194
				c0.2033463,0.19487,0.3047562,0.4325943,0.3047562,0.7134552v9.2833557h4.6064911
				c0.2848053,0,0.5286179,0.1003571,0.7314301,0.3008118c0.1974258,0.19487,0.2961349,0.4325943,0.2961349,0.7134476
				s-0.0987091,0.5185852-0.2961349,0.7134552c-0.2028122,0.2007217-0.4466248,0.3008194-0.7314301,0.3008194h-5.6340485
				c-0.2842636,0-0.525383-0.1000977-0.7228088-0.3008194c-0.2033463-0.19487-0.3047562-0.4326019-0.3047562-0.7134552V68.6835098
				c0-0.2808609,0.1014099-0.5185852,0.3047562-0.7134552C111.399826,67.7695999,111.6409454,67.6692352,111.925209,67.6692352z"/>
			<path style="&st2;" d="M128.1833191,77.9583435c0.2842712,0,0.5253754,0.1000977,0.7227936,0.3008194
				c0.2033691,0.2004547,0.3047791,0.4411087,0.3047791,0.721962s-0.1014099,0.5185852-0.3047791,0.7134552
				c-0.1974182,0.2007217-0.4385223,0.3008194-0.7227936,0.3008194h-6.3045197
				c-0.2848129,0-0.5259247-0.1000977-0.7228088-0.3008194c-0.2033539-0.19487-0.3047638-0.4326019-0.3047638-0.7134552V68.6749878
				c0-0.2867126,0.1014099-0.5273666,0.3047638-0.7222366c0.1968842-0.2004547,0.4379959-0.3008194,0.7228088-0.3008194h0.0086212
				l6.2958984,0.0173035c0.2842712,0,0.5280762,0.1003647,0.7314301,0.3008194
				c0.1974182,0.2007217,0.2961426,0.4413834,0.2961426,0.7219696c0,0.2808533-0.1014099,0.5188446-0.3047791,0.7134476
				c-0.1974182,0.2007217-0.4385223,0.3008194-0.7227936,0.3008194h-0.0086365l-5.259697-0.0170364v3.1200104h3.7968521
				c0.2842636,0,0.5280685,0.097702,0.7314301,0.292305c0.2028122,0.2007141,0.3047562,0.4413757,0.3047562,0.722229
				s-0.101944,0.5215073-0.3047562,0.7219696c-0.2033615,0.19487-0.4471664,0.2922974-0.7314301,0.2922974h-3.7968521v3.1202774
				H128.1833191z"/>
			<path style="&st2;" d="M134.3314362,69.6804733h-2.586441c-0.2848053,0-0.5286255-0.1000977-0.7314301-0.3008194
				c-0.1974182-0.194603-0.2961273-0.4326019-0.2961273-0.7134552c0-0.2805862,0.0987091-0.5185776,0.2961273-0.7134476
				c0.2028046-0.2004547,0.4466248-0.3008194,0.7314301-0.3008194h7.236618c0.2783203,0,0.5194397,0.1003647,0.7227936,0.3008194
				C139.9012909,68.1476212,140,68.3856125,140,68.6661987c0,0.2808533-0.0987091,0.5188522-0.2955933,0.7134552
				c-0.2033539,0.2007217-0.4444733,0.3008194-0.7227936,0.3008194h-2.5950775v9.3006516
				c0,0.2808533-0.101944,0.5215149-0.3047485,0.7219772c-0.1979675,0.1948624-0.4385376,0.2922974-0.7228088,0.2922974
				c-0.28479,0-0.5259094-0.097435-0.7227936-0.2922974c-0.2033539-0.2004623-0.3047485-0.441124-0.3047485-0.7219772V69.6804733z"
				/>
		</g>
	</g>
</g>
</svg>
