<?xml version="1.0" encoding="utf-8"?>
<!-- Generator: Adobe Illustrator 21.0.0, SVG Export Plug-In . SVG Version: 6.00 Build 0)  -->
<!DOCTYPE svg PUBLIC "-//W3C//DTD SVG 1.1//EN" "http://www.w3.org/Graphics/SVG/1.1/DTD/svg11.dtd" [
	<!ENTITY ns_extend "http://ns.adobe.com/Extensibility/1.0/">
	<!ENTITY ns_ai "http://ns.adobe.com/AdobeIllustrator/10.0/">
	<!ENTITY ns_graphs "http://ns.adobe.com/Graphs/1.0/">
	<!ENTITY ns_vars "http://ns.adobe.com/Variables/1.0/">
	<!ENTITY ns_imrep "http://ns.adobe.com/ImageReplacement/1.0/">
	<!ENTITY ns_sfw "http://ns.adobe.com/SaveForWeb/1.0/">
	<!ENTITY ns_custom "http://ns.adobe.com/GenericCustomNamespace/1.0/">
	<!ENTITY ns_adobe_xpath "http://ns.adobe.com/XPath/1.0/">
	<!ENTITY Drop_x0020_Shadow "fill:none;">
	<!ENTITY Outer_x0020_Glow_x0020_5_x0020_pt "fill:none;">
	<!ENTITY Jive_GS "fill:#A6D0E4;">
	<!ENTITY st0 "fill:#D08A29;">
]>
<svg version="1.1" id="Layer_1" xmlns:x="&ns_extend;" xmlns:i="&ns_ai;" xmlns:graph="&ns_graphs;"
	 xmlns="http://www.w3.org/2000/svg" xmlns:xlink="http://www.w3.org/1999/xlink" x="0px" y="0px" width="30.75px" height="30.75px"
	 viewBox="0 0 30.75 30.75" style="enable-background:new 0 0 30.75 30.75;" xml:space="preserve">
<metadata>
	<sfw  xmlns="&ns_sfw;">
		<slices></slices>
		<sliceSourceBounds  bottomLeftOrigin="true" height="30" width="30" x="135" y="-140"></sliceSourceBounds>
	</sfw>
</metadata>
<g>
	<g>
		<circle style="&st0;" cx="15.375" cy="15.375" r="15"/>
	</g>
	<g>
		<g>
			<g>
				<path d="M12.4371758,17.462307l-0.0049706,0.7655487H8.158721V11.294836h4.2734842v0.7622347H9.098258v2.3032742h2.6993036
					v0.7357216H9.098258v2.3662405H12.4371758z"/>
				<path d="M17.5706596,18.2278557h-0.8268585c-0.0712528,0-0.1259346-0.0198841-0.1673603-0.0563393
					c-0.0397701-0.0364552-0.0729103-0.0762234-0.0994225-0.1226196l-1.232831-1.9221573
					c-0.0132561,0.0463982-0.0265131,0.0894794-0.0414257,0.1325626c-0.0149136,0.0463963-0.0347977,0.0861664-0.0613108,0.1193066
					l-1.1416941,1.6702881c-0.0314837,0.0463963-0.0662813,0.0861645-0.104393,0.1226196
					c-0.0364552,0.0364552-0.0878229,0.0563393-0.1524467,0.0563393h-0.7688627l1.7183418-2.5153732l-1.650404-2.3861256h0.8268585
					c0.0712528,0,0.1226206,0.0099421,0.1557617,0.0331411c0.0314837,0.0231981,0.0613098,0.0563383,0.0861654,0.0961075
					l1.2046614,1.8393049c0.0265131-0.0927944,0.0662813-0.1822739,0.1209631-0.2717533l1.0555296-1.5476675
					c0.0298271-0.0430822,0.0613098-0.0795374,0.09445-0.1093636c0.0331421-0.0265131,0.0745678-0.0397692,0.1226215-0.0397692
					h0.7937183l-1.6487474,2.3430424L17.5706596,18.2278557z"/>
				<path d="M19.4580173,11.7886314c0,0.0828524-0.0182266,0.1623898-0.0513668,0.2319851
					c-0.0331421,0.0729094-0.0795383,0.1391907-0.1358776,0.195529c-0.0563393,0.0563393-0.1226196,0.0994225-0.1971855,0.1325626
					c-0.0762234,0.0331411-0.1557617,0.0497112-0.2402706,0.0497112s-0.1623898-0.0165701-0.2352982-0.0497112
					c-0.0712528-0.0331402-0.1358776-0.0762234-0.1905594-0.1325626c-0.0546818-0.0563383-0.097765-0.1226196-0.1309052-0.195529
					c-0.0314827-0.0695953-0.0480537-0.1491327-0.0480537-0.2319851c0-0.0861654,0.016571-0.1657028,0.0480537-0.2419262
					c0.0331402-0.0729094,0.0762234-0.1391907,0.1309052-0.1955299s0.1193066-0.1027355,0.1905594-0.1358767
					c0.0729084-0.0298262,0.1507893-0.0463963,0.2352982-0.0463963s0.1640472,0.0165701,0.2402706,0.0463963
					c0.0745659,0.0331411,0.1408463,0.0795374,0.1971855,0.1358767s0.1027355,0.1226206,0.1358776,0.1955299
					C19.4397907,11.6229286,19.4580173,11.702466,19.4580173,11.7886314z M19.2740879,13.3263569v4.9014988h-0.8616562v-4.9014988
					H19.2740879z"/>
				<path d="M22.1921196,18.3040791c-0.3877449,0-0.6843548-0.1060505-0.8931408-0.3214645
					c-0.2071285-0.2187271-0.3115215-0.5302486-0.3115215-0.9345646v-2.9992275h-0.5899029
					c-0.0530243,0-0.0961075-0.0165701-0.1309052-0.0463963c-0.0364552-0.0331411-0.0530243-0.0795383-0.0530243-0.1425047
					v-0.3446627l0.802002-0.1027365l0.1988449-1.5145264c0.0099411-0.0463972,0.0314827-0.0861654,0.0646229-0.1193066
					c0.0347977-0.0298262,0.0795383-0.0430822,0.1342201-0.0430822h0.4357986v1.6868572h1.4167633v0.626358h-1.4167633v2.9395733
					c0,0.208786,0.0497112,0.3612328,0.1491337,0.4606552s0.2286701,0.1491337,0.3877449,0.1491337
					c0.0894794,0,0.1673603-0.009943,0.2336407-0.0364552c0.0662823-0.0231991,0.124279-0.0497112,0.1723328-0.0795383
					c0.0480537-0.0298252,0.0894794-0.0563393,0.1226196-0.0795364c0.0347977-0.0231991,0.0646248-0.0364552,0.0894794-0.0364552
					c0.0463963,0,0.0861664,0.0265121,0.1209641,0.0828514l0.2518692,0.410944
					c-0.1474762,0.1391907-0.326437,0.2485542-0.5368786,0.3280926
					C22.6312332,18.2643108,22.4141617,18.3040791,22.1921196,18.3040791z"/>
			</g>
		</g>
	</g>
</g>
</svg>
