<?xml version="1.0" encoding="utf-8"?>
<!-- Generator: Adobe Illustrator 21.0.0, SVG Export Plug-In . SVG Version: 6.00 Build 0)  -->
<!DOCTYPE svg PUBLIC "-//W3C//DTD SVG 1.1//EN" "http://www.w3.org/Graphics/SVG/1.1/DTD/svg11.dtd" [
	<!ENTITY ns_extend "http://ns.adobe.com/Extensibility/1.0/">
	<!ENTITY ns_ai "http://ns.adobe.com/AdobeIllustrator/10.0/">
	<!ENTITY ns_graphs "http://ns.adobe.com/Graphs/1.0/">
	<!ENTITY ns_vars "http://ns.adobe.com/Variables/1.0/">
	<!ENTITY ns_imrep "http://ns.adobe.com/ImageReplacement/1.0/">
	<!ENTITY ns_sfw "http://ns.adobe.com/SaveForWeb/1.0/">
	<!ENTITY ns_custom "http://ns.adobe.com/GenericCustomNamespace/1.0/">
	<!ENTITY ns_adobe_xpath "http://ns.adobe.com/XPath/1.0/">
	<!ENTITY Drop_x0020_Shadow "fill:none;">
	<!ENTITY Outer_x0020_Glow_x0020_5_x0020_pt "fill:none;">
	<!ENTITY Jive_GS "fill:#A6D0E4;">
	<!ENTITY st0 "fill:none;">
	<!ENTITY st1 "fill:#FFFFFF;">
]>
<svg version="1.1" id="Layer_1" xmlns:x="&ns_extend;" xmlns:i="&ns_ai;" xmlns:graph="&ns_graphs;"
	 xmlns="http://www.w3.org/2000/svg" xmlns:xlink="http://www.w3.org/1999/xlink" x="0px" y="0px" viewBox="0 0 23 20"
	 style="enable-background:new 0 0 23 20;" xml:space="preserve">
<metadata>
	<sfw  xmlns="&ns_sfw;">
		<slices></slices>
		<sliceSourceBounds  bottomLeftOrigin="true" height="20" width="23" x="58.5" y="-50"></sliceSourceBounds>
	</sfw>
</metadata>
<g>
	<path style="&st0;" d="M19.6044655,7.7260923V5.5355515c0-0.7783942-0.6440754-1.4113741-1.4350376-1.4113741H2.5231557
		c-0.7909623,0-1.4350387,0.6329799-1.4350387,1.4113741v2.1905408H19.6044655z"/>
	<path style="&st0;" d="M1.088117,15.1867142v2.3317375c0,0.7783947,0.6440763,1.411375,1.4350387,1.411375h15.6462727
		c0.7909622,0,1.4350376-0.6329803,1.4350376-1.411375v-2.3317375H1.088117z"/>
	<path style="&st0;" d="M19.6044655,8.9368095H1.088117v5.0391884h18.5163479V8.9368095z M17.4918919,12.0617323h-4.1722431
		c-0.2726336,0-0.4934454-0.270751-0.4934454-0.605299c0-0.3346071,0.2208118-0.6053581,0.4934454-0.6053581h4.1722431
		c0.2726326,0,0.4933243,0.270751,0.4933243,0.6053581C17.9852161,11.7909813,17.7645245,12.0617323,17.4918919,12.0617323z"/>
	<path style="&st0;" d="M20.5824184,1.227296L6.4232483,3.054004h11.7461796c1.391552,0,2.5231552,1.1129425,2.5231552,2.4815476
		v10.4058571c0.2287846-0.0628471,0.473032-0.1033583,0.6522903-0.2516832
		c0.4056282-0.3357954,0.6644917-0.9642611,0.6644917-1.5594025c0-0.005703,0-11.3432083,0-11.3432083
		C22.0093651,1.825942,21.3690319,1.1258385,20.5824184,1.227296z"/>
	<path style="&st1;" d="M20.5824184,0.0165791L4.6505885,2.0719821c-0.5317373,0.0687273-1.1248384,0.4008992-1.5384388,0.809283
		C3.0693886,2.92344,3.0172052,2.9855144,2.9645391,3.054004H2.5231557C1.131603,3.054004,0,4.1669464,0,5.5355515v11.9829006
		C0,18.8870583,1.131603,20,2.5231557,20h15.6462727c1.391552,0,2.5231552-1.1129417,2.5231552-2.4815483v-0.3179741
		c0.4233856-0.0752029,0.9245605-0.3387661,1.096693-0.4821014C22.5134392,16.115097,23,15.0855541,23,14.0025501V2.6593418
		C23,1.0300837,21.9155064-0.1553876,20.5824184,0.0165791z M2.5231557,4.1241775h15.6462727
		c0.7909622,0,1.4350376,0.6329799,1.4350376,1.4113741v2.1905408H1.088117V5.5355515
		C1.088117,4.7571573,1.7321934,4.1241775,2.5231557,4.1241775z M1.088117,8.9368095h18.5163479v5.0391884H1.088117V8.9368095z
		 M18.1694279,18.9298267H2.5231557c-0.7909623,0-1.4350387-0.6329803-1.4350387-1.411375v-2.3317375h18.5163479v2.3317375
		C19.6044655,18.2968464,18.9603901,18.9298267,18.1694279,18.9298267z M22.0093651,14.1303225
		c0,0.5951414-0.2588634,1.2236071-0.6644917,1.5594025c-0.1792583,0.148325-0.4235058,0.1888361-0.6522903,0.2516832V5.5355515
		c0-1.3686051-1.1316032-2.4815476-2.5231552-2.4815476H6.4232483l14.1591702-1.826708
		c0.7866135-0.1014575,1.4269466,0.598646,1.4269466,1.5598181C22.0093651,2.7871141,22.0093651,14.1246195,22.0093651,14.1303225z"
		/>
	<path style="&st1;" d="M17.4918919,10.8510752h-4.1722431c-0.2726336,0-0.4934454,0.270751-0.4934454,0.6053581
		c0,0.334548,0.2208118,0.605299,0.4934454,0.605299h4.1722431c0.2726326,0,0.4933243-0.270751,0.4933243-0.605299
		C17.9852161,11.1218262,17.7645245,10.8510752,17.4918919,10.8510752z"/>
</g>
</svg>
