<?xml version="1.0" encoding="utf-8"?>
<!-- Generator: Adobe Illustrator 21.0.0, SVG Export Plug-In . SVG Version: 6.00 Build 0)  -->
<!DOCTYPE svg PUBLIC "-//W3C//DTD SVG 1.1//EN" "http://www.w3.org/Graphics/SVG/1.1/DTD/svg11.dtd" [
	<!ENTITY ns_extend "http://ns.adobe.com/Extensibility/1.0/">
	<!ENTITY ns_ai "http://ns.adobe.com/AdobeIllustrator/10.0/">
	<!ENTITY ns_graphs "http://ns.adobe.com/Graphs/1.0/">
	<!ENTITY ns_vars "http://ns.adobe.com/Variables/1.0/">
	<!ENTITY ns_imrep "http://ns.adobe.com/ImageReplacement/1.0/">
	<!ENTITY ns_sfw "http://ns.adobe.com/SaveForWeb/1.0/">
	<!ENTITY ns_custom "http://ns.adobe.com/GenericCustomNamespace/1.0/">
	<!ENTITY ns_adobe_xpath "http://ns.adobe.com/XPath/1.0/">
	<!ENTITY Drop_x0020_Shadow "fill:none;">
	<!ENTITY Outer_x0020_Glow_x0020_5_x0020_pt "fill:none;">
	<!ENTITY Jive_GS "fill:#A6D0E4;">
	<!ENTITY st0 "fill:#D08A29;">
]>
<svg version="1.1" id="Layer_1" xmlns:x="&ns_extend;" xmlns:i="&ns_ai;" xmlns:graph="&ns_graphs;"
	 xmlns="http://www.w3.org/2000/svg" xmlns:xlink="http://www.w3.org/1999/xlink" x="0px" y="0px" viewBox="0 0 30 30"
	 style="enable-background:new 0 0 30 30;" xml:space="preserve">
<metadata>
	<sfw  xmlns="&ns_sfw;">
		<slices></slices>
		<sliceSourceBounds  bottomLeftOrigin="true" height="30" width="30" x="55" y="-55"></sliceSourceBounds>
	</sfw>
</metadata>
<g>
	<path style="&st0;" d="M15,0C6.7157593,0,0,6.7156982,0,15c0,8.2842407,6.7157593,15,15,15c8.2843018,0,15-6.7157593,15-15
		C30,6.7156982,23.2843018,0,15,0z M12.0571899,17.8528442H7.7837524v-6.9330444h4.2734375v0.7622681H8.7232666v2.3032837h2.6992798
		v0.7357178H8.7232666v2.3662109h3.3389282L12.0571899,17.8528442z M16.3688354,17.8528442
		c-0.0712891,0-0.1259766-0.0198975-0.1673584-0.0563354c-0.0397949-0.036438-0.072937-0.0762329-0.0994263-0.1226196
		l-1.2328491-1.9221802c-0.0132446,0.0463867-0.0264893,0.0894775-0.0414429,0.1325684
		c-0.0148926,0.0463867-0.03479,0.0861816-0.0612793,0.1193237l-1.1417236,1.6702881
		c-0.0314941,0.0463867-0.0662842,0.0861816-0.1043701,0.1226196c-0.036499,0.036438-0.0878296,0.0563354-0.1524658,0.0563354
		h-0.7688599l1.7183228-2.5153809l-1.6503906-2.3861084h0.8268433c0.0712891,0,0.1226196,0.0099487,0.1557617,0.0331421
		c0.0314941,0.0231934,0.0613403,0.0563354,0.0861816,0.0960693l1.2046509,1.8393555
		c0.0265503-0.0928345,0.0662842-0.182312,0.1209717-0.2717896l1.055542-1.5476685
		c0.0298462-0.0430908,0.0612793-0.0795288,0.0944214-0.109375c0.0331421-0.0264893,0.074585-0.0397339,0.1226196-0.0397339
		h0.7937622l-1.6487427,2.3430176l1.7166748,2.5584717H16.3688354z M18.8991089,17.8528442h-0.8616943V12.951355h0.8616943
		V17.8528442z M19.0316772,11.6456299c-0.0331421,0.072876-0.0795288,0.1391602-0.1359253,0.1954956
		c-0.0563354,0.0563354-0.1226196,0.0994263-0.1971436,0.1325684c-0.0762329,0.0331421-0.1557617,0.0497437-0.2402954,0.0497437
		c-0.0844727,0-0.1623535-0.0166016-0.2352905-0.0497437c-0.071228-0.0331421-0.1358643-0.0762329-0.1905518-0.1325684
		s-0.0977783-0.1226196-0.1309204-0.1954956c-0.0314941-0.0696411-0.0480347-0.1491699-0.0480347-0.2319946
		c0-0.0861816,0.0165405-0.1657104,0.0480347-0.2419434c0.0331421-0.072937,0.0762329-0.1391602,0.1309204-0.1955566
		c0.0546875-0.0563354,0.1193237-0.1027222,0.1905518-0.1358643c0.072937-0.0297852,0.1508179-0.0463867,0.2352905-0.0463867
		c0.0845337,0,0.1640625,0.0166016,0.2402954,0.0463867c0.0745239,0.0331421,0.1408081,0.0795288,0.1971436,0.1358643
		c0.0563965,0.0563965,0.1027832,0.1226196,0.1359253,0.1955566c0.0331421,0.0762329,0.0513306,0.1557617,0.0513306,0.2419434
		C19.0830078,11.49646,19.0648193,11.5759888,19.0316772,11.6456299z M22.4650269,17.8130493
		c-0.2088013,0.0762329-0.4258423,0.1160278-0.6478882,0.1160278c-0.3877563,0-0.6843872-0.1060791-0.8931274-0.3214722
		c-0.2071533-0.21875-0.3115234-0.5302734-0.3115234-0.9345703v-2.9992065H20.022583
		c-0.0530396,0-0.0961304-0.0166016-0.1309204-0.0463867c-0.036438-0.0331421-0.0530396-0.0795898-0.0530396-0.1425171v-0.3446655
		l0.802002-0.1027222l0.1988525-1.5145264c0.0099487-0.0464478,0.0314941-0.0861816,0.0646362-0.1193237
		c0.03479-0.0298462,0.0795288-0.0430908,0.1342163-0.0430908h0.435791v1.6868286h1.416748v0.6264038h-1.416748v2.9395752
		c0,0.2087402,0.0496826,0.3612061,0.1491089,0.4606323s0.2286987,0.1491089,0.3877563,0.1491089
		c0.0894775,0,0.1673584-0.0098877,0.2336426-0.036438c0.0662842-0.0231934,0.1242676-0.0496826,0.1723633-0.0795288
		c0.0480347-0.0298462,0.0894775-0.0563354,0.1226196-0.0795288c0.03479-0.0231934,0.0645752-0.036438,0.0894775-0.036438
		c0.0463867,0,0.0861206,0.0264893,0.1209717,0.0828247l0.2518311,0.4109497
		C22.8544312,17.6241455,22.6754761,17.7335205,22.4650269,17.8130493z"/>
</g>
</svg>
