<?xml version="1.0" encoding="utf-8"?>
<!-- Generator: Adobe Illustrator 21.0.0, SVG Export Plug-In . SVG Version: 6.00 Build 0)  -->
<!DOCTYPE svg PUBLIC "-//W3C//DTD SVG 1.1//EN" "http://www.w3.org/Graphics/SVG/1.1/DTD/svg11.dtd" [
	<!ENTITY ns_extend "http://ns.adobe.com/Extensibility/1.0/">
	<!ENTITY ns_ai "http://ns.adobe.com/AdobeIllustrator/10.0/">
	<!ENTITY ns_graphs "http://ns.adobe.com/Graphs/1.0/">
	<!ENTITY ns_vars "http://ns.adobe.com/Variables/1.0/">
	<!ENTITY ns_imrep "http://ns.adobe.com/ImageReplacement/1.0/">
	<!ENTITY ns_sfw "http://ns.adobe.com/SaveForWeb/1.0/">
	<!ENTITY ns_custom "http://ns.adobe.com/GenericCustomNamespace/1.0/">
	<!ENTITY ns_adobe_xpath "http://ns.adobe.com/XPath/1.0/">
	<!ENTITY Drop_x0020_Shadow "fill:none;">
	<!ENTITY Outer_x0020_Glow_x0020_5_x0020_pt "fill:none;">
	<!ENTITY Jive_GS "fill:#A6D0E4;">
	<!ENTITY st0 "fill:#E4A523;">
	<!ENTITY st1 "fill:#D08A29;">
	<!ENTITY st2 "fill:#EDF4F4;">
	<!ENTITY st3 "fill:#FFFFFF;">
	<!ENTITY st4 "fill:#222020;">
	<!ENTITY st5 "fill:none;stroke:#D08A29;stroke-width:0.25;stroke-miterlimit:10;">
]>
<svg version="1.1" id="Layer_1" xmlns:x="&ns_extend;" xmlns:i="&ns_ai;" xmlns:graph="&ns_graphs;"
	 xmlns="http://www.w3.org/2000/svg" xmlns:xlink="http://www.w3.org/1999/xlink" x="0px" y="0px"
	 viewBox="0 0 241.3333282 41.267395" style="enable-background:new 0 0 241.3333282 41.267395;" xml:space="preserve">
<metadata><?xpacket begin="﻿" id="W5M0MpCehiHzreSzNTczkc9d"?>
<x:xmpmeta xmlns:x="adobe:ns:meta/" x:xmptk="Adobe XMP Core 5.6-c137 79.159768, 2016/08/11-13:24:42        ">
   <rdf:RDF xmlns:rdf="http://www.w3.org/1999/02/22-rdf-syntax-ns#">
      <rdf:Description rdf:about=""
            xmlns:dc="http://purl.org/dc/elements/1.1/"
            xmlns:xmp="http://ns.adobe.com/xap/1.0/"
            xmlns:xmpGImg="http://ns.adobe.com/xap/1.0/g/img/"
            xmlns:xmpMM="http://ns.adobe.com/xap/1.0/mm/"
            xmlns:stRef="http://ns.adobe.com/xap/1.0/sType/ResourceRef#"
            xmlns:stEvt="http://ns.adobe.com/xap/1.0/sType/ResourceEvent#"
            xmlns:illustrator="http://ns.adobe.com/illustrator/1.0/"
            xmlns:xmpTPg="http://ns.adobe.com/xap/1.0/t/pg/"
            xmlns:stDim="http://ns.adobe.com/xap/1.0/sType/Dimensions#"
            xmlns:xmpG="http://ns.adobe.com/xap/1.0/g/"
            xmlns:pdf="http://ns.adobe.com/pdf/1.3/">
         <dc:format>image/svg+xml</dc:format>
         <dc:title>
            <rdf:Alt>
               <rdf:li xml:lang="x-default">Basic RGB</rdf:li>
            </rdf:Alt>
         </dc:title>
         <xmp:CreatorTool>Adobe Illustrator CC 2017 (Windows)</xmp:CreatorTool>
         <xmp:CreateDate>2018-01-29T16:53:52-08:00</xmp:CreateDate>
         <xmp:ModifyDate>2018-01-29T16:53:53-08:00</xmp:ModifyDate>
         <xmp:MetadataDate>2018-01-29T16:53:53-08:00</xmp:MetadataDate>
         <xmp:Thumbnails>
            <rdf:Alt>
               <rdf:li rdf:parseType="Resource">
                  <xmpGImg:width>188</xmpGImg:width>
                  <xmpGImg:height>256</xmpGImg:height>
                  <xmpGImg:format>JPEG</xmpGImg:format>
                  <xmpGImg:image>/9j/4AAQSkZJRgABAgEASABIAAD/7QAsUGhvdG9zaG9wIDMuMAA4QklNA+0AAAAAABAASAAAAAEA&#xA;AQBIAAAAAQAB/+4ADkFkb2JlAGTAAAAAAf/bAIQABgQEBAUEBgUFBgkGBQYJCwgGBggLDAoKCwoK&#xA;DBAMDAwMDAwQDA4PEA8ODBMTFBQTExwbGxscHx8fHx8fHx8fHwEHBwcNDA0YEBAYGhURFRofHx8f&#xA;Hx8fHx8fHx8fHx8fHx8fHx8fHx8fHx8fHx8fHx8fHx8fHx8fHx8fHx8fHx8f/8AAEQgBAAC8AwER&#xA;AAIRAQMRAf/EAaIAAAAHAQEBAQEAAAAAAAAAAAQFAwIGAQAHCAkKCwEAAgIDAQEBAQEAAAAAAAAA&#xA;AQACAwQFBgcICQoLEAACAQMDAgQCBgcDBAIGAnMBAgMRBAAFIRIxQVEGE2EicYEUMpGhBxWxQiPB&#xA;UtHhMxZi8CRygvElQzRTkqKyY3PCNUQnk6OzNhdUZHTD0uIIJoMJChgZhJRFRqS0VtNVKBry4/PE&#xA;1OT0ZXWFlaW1xdXl9WZ2hpamtsbW5vY3R1dnd4eXp7fH1+f3OEhYaHiImKi4yNjo+Ck5SVlpeYmZ&#xA;qbnJ2en5KjpKWmp6ipqqusra6voRAAICAQIDBQUEBQYECAMDbQEAAhEDBCESMUEFURNhIgZxgZEy&#xA;obHwFMHR4SNCFVJicvEzJDRDghaSUyWiY7LCB3PSNeJEgxdUkwgJChgZJjZFGidkdFU38qOzwygp&#xA;0+PzhJSktMTU5PRldYWVpbXF1eX1RlZmdoaWprbG1ub2R1dnd4eXp7fH1+f3OEhYaHiImKi4yNjo&#xA;+DlJWWl5iZmpucnZ6fkqOkpaanqKmqq6ytrq+v/aAAwDAQACEQMRAD8A9U4q7FXYq7FXYq7FXYq7&#xA;FXYq7FXYq7FXYq7FXYq85TSvK11+aOq2n1+/bWXsWa6hVSkAjuU4BTMB8TIm6DotR3GKpH5Sj/La&#xA;18gedP0Pf6vqumRmW01j1F4zq8MAhIs4Gjt4A/Gh5LH8bfaLUxVNNb0TyRrnkPycupLqS6ZbzWX6&#xA;NX4EuhIkRRfrYoV2VT6nHev2cVeh22o20+oXlknL6xZ+kZqj4aSqWQhhUV2NVPxDrShUlVF4q7FX&#xA;Yq7FXYq7FXYq7FXYq7FXYq7FXYq7FXYq7FXYq7FXYq7FWOi881Q+d/qtwbI+Wbu3Y2XxcbwXEYQs&#xA;tC45rTmx4oabbjeqqR6APzJm8v8AmWPXtS0q4v0upk02W0AEcMCgExzcuaowX7PNWK1q/IbYqr6x&#xA;P5ws/KOliz1fSNPvnMcVzqF4wWGjMCiwkL6byFKr9lQx+JQo+HFWaxK6xqJCGkoPUYCgLUoTTFV2&#xA;KuxV2KqctxBDT1XCcq0qadOv3ZGUwOaREnkv5Lx5VHGla9qZK0N4q7FXYq7FXYq7FXYq7FXYq7FX&#xA;Yq7FXYq7FXYqxay/LvRbTzpceb1ubyXU7hXQwzTCSBPUCq3pIy8kqqKNmpQDFVK2/LPRoPKmr+XB&#xA;d3ckOtXE93e3skim5aa4YMW5hQDx4KNx0G+KpR5l/I/y3r3k/SPLE97eRW2juzW90GjklZZOQlV/&#xA;VR0NQ54njVfcVBVeg21vHbW0VvFX04UWNORLHigoKk7k7dcVec+fotBn1a6tNQ8l3+umSJZBPbtS&#xA;O4ZlERjjHqp8aR1J5ACgO9aA1S4eIX9TMXR7npWWsHYqgNV0iLURGJHKcKkU7nt3HTKM+nGTm24s&#xA;pgi/QT6t9X34cPT96UplvD6aa+Le1TJIdirsVdirsVdirsVdirsVdirsVdirsVdirsVdirsVdirs&#xA;VQV7pMV3MJjLJDKqGMSQlVehYN9riW7U69zmNl0wnISsg1W34v8AtLbDKYiqtG5ktTsVdirsVdir&#xA;sVdirsVdirsVdirsVdirsVdirsVdirsVdirsVdirsVdirsVdirsVdirsVdirsVdirsVdirsVdirs&#xA;VdirsVdirsVdirsVdirsVdirsVdirsVdirsVdirsVdirsVdirsVdirsVdirsVdirsVdirsVdirsV&#xA;dirsVdirsVdirsVdirsVdirsVdirsVdirsVdirsVdirsVdirsVdirsVdirsVdirsVdirsVdirsVd&#xA;irsVdirsVdirsVdirsVdirsVdirsVdirsVdirsVdirsVdirsVdirsVdirsVdirsVdirsVdirsVdi&#xA;rsVdirsVdirsVdirsVdirsVdirsVdirsVdirsVdirsVdirsVdirsVdirsVdirsVdirsVdirsVdir&#xA;sVdirsVdirsVdirsVdirsVdirsVdirsVdirsVdirsVdirsVdirsVdirsVdirsVdirsVdirsVdirs&#xA;VdirsVdirsVdirsVdirsVdirsVdirsVdirsVdirsVdirsVdirsVdirsVdirsVdirsVdirsVdirsV&#xA;dirsVdirsVdirsVdirsVdirsVdirsVdirsVdirsVdirsVdirsVdirsVdirsVdirsVdirsVdirsVd&#xA;irsVdirsVdirsVdirsVdirsVdirsVdirsVdirsVdirsVdirsVdirsVdirsVdirsVdirsVdirsVdi&#xA;rsVdirsVdirsVdirsVdirsVdirsVdirsVdirsVdirsVdirsVdirsVdirsVdirsVdirsVdirsVdir&#xA;sVdirsVdirsVdirsVdirsVdirsVdirsVdirsVdirsVdirsVdirsVdirsVdirsVdirsVdirsVdirs&#xA;VdirsVdirsVdirsVdirsVdirsVdirsVdirsVdirsVdirsVdirsVdirsVdirsVdirsVdirsVdirsV&#xA;dirsVdirsVdirsVdirsVdirsVdirsVdirsVdirsVdirsVdirsVdirsVdirsVdirsVdirsVdirsVd&#xA;irsVdirsVdirsVdirsVdirsVdirsVdirsVdirsVdirsVdirsVdirsVdirsVdirsVdirsVdirsVdi&#xA;rsVdirsVdirsVdirsVdirsVdirsVdirsVdirsVdirsVdirsVdirsVdirsVdirsVdirsVdirsVdir&#xA;sVdirsVdirsVdirsVdirsVdirsVdirsVdirsVdirsVdirsVdirsVdirsVdirsVdirsVdirsVdirs&#xA;VdirsVdirsVdirsVdirsVdirsVdirsVdirsVdirsVdirsVdirsVdirsVdirsVdirsVdirsVdirsV&#xA;dirsVdirsVdirsVdirsVdirsVdirsVdirsVdirsVdirsVdirsVdirsVdirsVdirsVdirsVdirsVd&#xA;irsVdirsVdirsVdirsVdirsVdirsVdirsVdirsVdirsVdirsVdirsVdirsVdirsVdirsVeJy/wDO&#xA;W/5aJK6LY6vKqkgSJBbhWA7jlcK1D7gYqs/6G6/Lb/q26z/yItf+ynFXf9Ddflt/1bdZ/wCRFr/2&#xA;U4q7/obr8tv+rbrP/Ii1/wCynFXf9Ddflt/1bdZ/5EWv/ZTirv8Aobr8tv8Aq26z/wAiLX/spxV3&#xA;/Q3X5bf9W3Wf+RFr/wBlOKu/6G6/Lb/q26z/AMiLX/spxV3/AEN1+W3/AFbdZ/5EWv8A2U4q7/ob&#xA;r8tv+rbrP/Ii1/7KcVd/0N1+W3/Vt1n/AJEWv/ZTirv+huvy2/6tus/8iLX/ALKcVd/0N1+W3/Vt&#xA;1n/kRa/9lOKu/wChuvy2/wCrbrP/ACItf+ynFXf9Ddflt/1bdZ/5EWv/AGU4q7/obr8tv+rbrP8A&#xA;yItf+ynFXf8AQ3X5bf8AVt1n/kRa/wDZTirv+huvy2/6tus/8iLX/spxV3/Q3X5bf9W3Wf8AkRa/&#xA;9lOKsn/L78+/JXnnXG0XS4L61vhE0yC8iiRXVKcgrRSzbitd6Yq9IxV2KuxV2KvzXxS7FXYq7FXY&#xA;qqWttcXVzFa20bS3E7rFDEoqzO54qoHiScVe0fl9+UHl6+03Un1KCbWbkp6EMttI0MUUzwSy8rVk&#xA;5i4dPTWnMBWDVCsvEtR493wgyrur9JHJn4feaeZ+aPKcujPDLbytdWNyxSN2ThKkqgExSoC6hqMC&#xA;pViGH+UGVZ48sZiwiUCDRSa8sL6ylEV5by20rKHEcyNGxU9DRgDQ448sZi4kEeW6ygY8xShljF2K&#xA;qhtrkKzGJwqIsjHiaBGICsfYlhQ4qtkilicpKjI4oSrAg7io2Ptiq3FXYq7FXYq7FXYq9c/5xb/8&#xA;mxb/APMHc/8AERir7MxQ7FXYq7FX5r4pdirsVdirsVTvyVqFlYeatOur0IbZZeEjyF1SP1FMYmJj&#xA;Kv8AuiwfY9sVfRvkto5tDvLOQJaTWhihuIZeXGL4ru56qHBDLJxFKknoPTKHOb1eklPHwcfCYkfV&#xA;tXPcd983Z4cwjK+Gwe7f8U848+eYNOiTT7lFWFn1OzuYr0BnmuI7D1xNcPEzcaGSfkKU5OXUkspO&#xA;bXwzPHMV9Qruv01flfu5OJxcMo+X2b2kmoeYfJFzPMt7LJewyWhjJhWbik0tyjFrYXJd42VKswJC&#xA;mlB131uLSamIHCBE8XWuQifq4ee+3f1cqebETvvt59/S0Dcal5Cnj1Wi/V21GG3iso0hZltTBaxs&#xA;av8AAfjuPgLKGJ4muzVy6OHVRMOvASTv9VyP3R36cx3UwM8J4ul1W3Kh+tEah5p8sC+WXT0gSIWl&#xA;7E3K1Rj6/BvqpFYlHHlxK1FRuGNMrxaLPw1O74ofxHl/F/F+OjKefHe1cj0+XRlfk38y/wAv18sa&#xA;XpfmWMvdX0baJ5iuBG7NHpVv601rJHxUjl606D4anjF06Zvg65Lo/N/5b6xZarea8SnmHV9T/ScU&#xA;n1UyxW0FrKogsy4NQrweopVEZTVOTDhTCqVyxeRV9bjrumS+nq41JeNrqH72zNf9FTlZr8Qp9lqJ&#xA;v9rrRVMfNnnfy6NT80HR7jT5rC909V0VY7JHKT/X4eScprCzZG+qmY9GABpzZqYq8oxV2KuxV2Kv&#xA;XP8AnFv/AMmxb/8AMHc/8RGKvszFDsVdirsVfmzJHJFI0cilJEJV0YEMrA0IIPQjFK3FXYq7FXYq&#xA;7FWW+WvzR82eX7GextpIbu3liMMK30S3P1ccHQGDn9mizPRd13Pw4qxq/wBQvtQumur6d7m4egaW&#xA;VizUAoBv0AGwHbFUPirsVdirsVdirsVdirsVdirsVdir2D/nFiCaT81I5UjZo4bK4MrgEhQwCjke&#xA;1SaYq+yMUOxV2KuxV//Z</xmpGImg:image>
               </rdf:li>
            </rdf:Alt>
         </xmp:Thumbnails>
         <xmpMM:OriginalDocumentID>uuid:9E3E5C9A8C81DB118734DB58FDDE4BA7</xmpMM:OriginalDocumentID>
         <xmpMM:DocumentID>xmp.did:b41b16e5-2303-034a-a77a-642e5cc67eaf</xmpMM:DocumentID>
         <xmpMM:InstanceID>xmp.iid:b41b16e5-2303-034a-a77a-642e5cc67eaf</xmpMM:InstanceID>
         <xmpMM:RenditionClass>proof:pdf</xmpMM:RenditionClass>
         <xmpMM:DerivedFrom rdf:parseType="Resource">
            <stRef:instanceID>xmp.iid:a4b75419-10dc-9346-9294-81cc460b9ad8</stRef:instanceID>
            <stRef:documentID>xmp.did:a4b75419-10dc-9346-9294-81cc460b9ad8</stRef:documentID>
            <stRef:originalDocumentID>uuid:9E3E5C9A8C81DB118734DB58FDDE4BA7</stRef:originalDocumentID>
            <stRef:renditionClass>proof:pdf</stRef:renditionClass>
         </xmpMM:DerivedFrom>
         <xmpMM:History>
            <rdf:Seq>
               <rdf:li rdf:parseType="Resource">
                  <stEvt:action>saved</stEvt:action>
                  <stEvt:instanceID>xmp.iid:07d39e34-3fa0-1041-9726-4d305b094f04</stEvt:instanceID>
                  <stEvt:when>2018-01-29T12:09:14-08:00</stEvt:when>
                  <stEvt:softwareAgent>Adobe Illustrator CC 2017 (Windows)</stEvt:softwareAgent>
                  <stEvt:changed>/</stEvt:changed>
               </rdf:li>
               <rdf:li rdf:parseType="Resource">
                  <stEvt:action>saved</stEvt:action>
                  <stEvt:instanceID>xmp.iid:b41b16e5-2303-034a-a77a-642e5cc67eaf</stEvt:instanceID>
                  <stEvt:when>2018-01-29T16:53:53-08:00</stEvt:when>
                  <stEvt:softwareAgent>Adobe Illustrator CC 2017 (Windows)</stEvt:softwareAgent>
                  <stEvt:changed>/</stEvt:changed>
               </rdf:li>
            </rdf:Seq>
         </xmpMM:History>
         <illustrator:StartupProfile>Basic RGB</illustrator:StartupProfile>
         <xmpTPg:NPages>1</xmpTPg:NPages>
         <xmpTPg:HasVisibleTransparency>False</xmpTPg:HasVisibleTransparency>
         <xmpTPg:HasVisibleOverprint>False</xmpTPg:HasVisibleOverprint>
         <xmpTPg:MaxPageSize rdf:parseType="Resource">
            <stDim:w>241.333333</stDim:w>
            <stDim:h>41.267395</stDim:h>
            <stDim:unit>Pixels</stDim:unit>
         </xmpTPg:MaxPageSize>
         <xmpTPg:PlateNames>
            <rdf:Seq>
               <rdf:li>Cyan</rdf:li>
               <rdf:li>Magenta</rdf:li>
               <rdf:li>Yellow</rdf:li>
               <rdf:li>Black</rdf:li>
            </rdf:Seq>
         </xmpTPg:PlateNames>
         <xmpTPg:SwatchGroups>
            <rdf:Seq>
               <rdf:li rdf:parseType="Resource">
                  <xmpG:groupName>Default Swatch Group</xmpG:groupName>
                  <xmpG:groupType>0</xmpG:groupType>
                  <xmpG:Colorants>
                     <rdf:Seq>
                        <rdf:li rdf:parseType="Resource">
                           <xmpG:swatchName>White</xmpG:swatchName>
                           <xmpG:mode>RGB</xmpG:mode>
                           <xmpG:type>PROCESS</xmpG:type>
                           <xmpG:red>255</xmpG:red>
                           <xmpG:green>255</xmpG:green>
                           <xmpG:blue>255</xmpG:blue>
                        </rdf:li>
                        <rdf:li rdf:parseType="Resource">
                           <xmpG:swatchName>Black</xmpG:swatchName>
                           <xmpG:mode>RGB</xmpG:mode>
                           <xmpG:type>PROCESS</xmpG:type>
                           <xmpG:red>0</xmpG:red>
                           <xmpG:green>0</xmpG:green>
                           <xmpG:blue>0</xmpG:blue>
                        </rdf:li>
                        <rdf:li rdf:parseType="Resource">
                           <xmpG:swatchName>RGB Red</xmpG:swatchName>
                           <xmpG:mode>RGB</xmpG:mode>
                           <xmpG:type>PROCESS</xmpG:type>
                           <xmpG:red>255</xmpG:red>
                           <xmpG:green>0</xmpG:green>
                           <xmpG:blue>0</xmpG:blue>
                        </rdf:li>
                        <rdf:li rdf:parseType="Resource">
                           <xmpG:swatchName>RGB Yellow</xmpG:swatchName>
                           <xmpG:mode>RGB</xmpG:mode>
                           <xmpG:type>PROCESS</xmpG:type>
                           <xmpG:red>255</xmpG:red>
                           <xmpG:green>255</xmpG:green>
                           <xmpG:blue>0</xmpG:blue>
                        </rdf:li>
                        <rdf:li rdf:parseType="Resource">
                           <xmpG:swatchName>RGB Green</xmpG:swatchName>
                           <xmpG:mode>RGB</xmpG:mode>
                           <xmpG:type>PROCESS</xmpG:type>
                           <xmpG:red>0</xmpG:red>
                           <xmpG:green>255</xmpG:green>
                           <xmpG:blue>0</xmpG:blue>
                        </rdf:li>
                        <rdf:li rdf:parseType="Resource">
                           <xmpG:swatchName>RGB Cyan</xmpG:swatchName>
                           <xmpG:mode>RGB</xmpG:mode>
                           <xmpG:type>PROCESS</xmpG:type>
                           <xmpG:red>0</xmpG:red>
                           <xmpG:green>255</xmpG:green>
                           <xmpG:blue>255</xmpG:blue>
                        </rdf:li>
                        <rdf:li rdf:parseType="Resource">
                           <xmpG:swatchName>RGB Blue</xmpG:swatchName>
                           <xmpG:mode>RGB</xmpG:mode>
                           <xmpG:type>PROCESS</xmpG:type>
                           <xmpG:red>0</xmpG:red>
                           <xmpG:green>0</xmpG:green>
                           <xmpG:blue>255</xmpG:blue>
                        </rdf:li>
                        <rdf:li rdf:parseType="Resource">
                           <xmpG:swatchName>RGB Magenta</xmpG:swatchName>
                           <xmpG:mode>RGB</xmpG:mode>
                           <xmpG:type>PROCESS</xmpG:type>
                           <xmpG:red>255</xmpG:red>
                           <xmpG:green>0</xmpG:green>
                           <xmpG:blue>255</xmpG:blue>
                        </rdf:li>
                        <rdf:li rdf:parseType="Resource">
                           <xmpG:swatchName>R=193 G=39 B=45</xmpG:swatchName>
                           <xmpG:mode>RGB</xmpG:mode>
                           <xmpG:type>PROCESS</xmpG:type>
                           <xmpG:red>193</xmpG:red>
                           <xmpG:green>39</xmpG:green>
                           <xmpG:blue>45</xmpG:blue>
                        </rdf:li>
                        <rdf:li rdf:parseType="Resource">
                           <xmpG:swatchName>R=237 G=28 B=36</xmpG:swatchName>
                           <xmpG:mode>RGB</xmpG:mode>
                           <xmpG:type>PROCESS</xmpG:type>
                           <xmpG:red>237</xmpG:red>
                           <xmpG:green>28</xmpG:green>
                           <xmpG:blue>36</xmpG:blue>
                        </rdf:li>
                        <rdf:li rdf:parseType="Resource">
                           <xmpG:swatchName>R=241 G=90 B=36</xmpG:swatchName>
                           <xmpG:mode>RGB</xmpG:mode>
                           <xmpG:type>PROCESS</xmpG:type>
                           <xmpG:red>241</xmpG:red>
                           <xmpG:green>90</xmpG:green>
                           <xmpG:blue>36</xmpG:blue>
                        </rdf:li>
                        <rdf:li rdf:parseType="Resource">
                           <xmpG:swatchName>R=247 G=147 B=30</xmpG:swatchName>
                           <xmpG:mode>RGB</xmpG:mode>
                           <xmpG:type>PROCESS</xmpG:type>
                           <xmpG:red>247</xmpG:red>
                           <xmpG:green>147</xmpG:green>
                           <xmpG:blue>30</xmpG:blue>
                        </rdf:li>
                        <rdf:li rdf:parseType="Resource">
                           <xmpG:swatchName>R=251 G=176 B=59</xmpG:swatchName>
                           <xmpG:mode>RGB</xmpG:mode>
                           <xmpG:type>PROCESS</xmpG:type>
                           <xmpG:red>251</xmpG:red>
                           <xmpG:green>176</xmpG:green>
                           <xmpG:blue>59</xmpG:blue>
                        </rdf:li>
                        <rdf:li rdf:parseType="Resource">
                           <xmpG:swatchName>R=252 G=238 B=33</xmpG:swatchName>
                           <xmpG:mode>RGB</xmpG:mode>
                           <xmpG:type>PROCESS</xmpG:type>
                           <xmpG:red>252</xmpG:red>
                           <xmpG:green>238</xmpG:green>
                           <xmpG:blue>33</xmpG:blue>
                        </rdf:li>
                        <rdf:li rdf:parseType="Resource">
                           <xmpG:swatchName>R=217 G=224 B=33</xmpG:swatchName>
                           <xmpG:mode>RGB</xmpG:mode>
                           <xmpG:type>PROCESS</xmpG:type>
                           <xmpG:red>217</xmpG:red>
                           <xmpG:green>224</xmpG:green>
                           <xmpG:blue>33</xmpG:blue>
                        </rdf:li>
                        <rdf:li rdf:parseType="Resource">
                           <xmpG:swatchName>R=140 G=198 B=63</xmpG:swatchName>
                           <xmpG:mode>RGB</xmpG:mode>
                           <xmpG:type>PROCESS</xmpG:type>
                           <xmpG:red>140</xmpG:red>
                           <xmpG:green>198</xmpG:green>
                           <xmpG:blue>63</xmpG:blue>
                        </rdf:li>
                        <rdf:li rdf:parseType="Resource">
                           <xmpG:swatchName>R=57 G=181 B=74</xmpG:swatchName>
                           <xmpG:mode>RGB</xmpG:mode>
                           <xmpG:type>PROCESS</xmpG:type>
                           <xmpG:red>57</xmpG:red>
                           <xmpG:green>181</xmpG:green>
                           <xmpG:blue>74</xmpG:blue>
                        </rdf:li>
                        <rdf:li rdf:parseType="Resource">
                           <xmpG:swatchName>R=0 G=146 B=69</xmpG:swatchName>
                           <xmpG:mode>RGB</xmpG:mode>
                           <xmpG:type>PROCESS</xmpG:type>
                           <xmpG:red>0</xmpG:red>
                           <xmpG:green>146</xmpG:green>
                           <xmpG:blue>69</xmpG:blue>
                        </rdf:li>
                        <rdf:li rdf:parseType="Resource">
                           <xmpG:swatchName>R=0 G=104 B=55</xmpG:swatchName>
                           <xmpG:mode>RGB</xmpG:mode>
                           <xmpG:type>PROCESS</xmpG:type>
                           <xmpG:red>0</xmpG:red>
                           <xmpG:green>104</xmpG:green>
                           <xmpG:blue>55</xmpG:blue>
                        </rdf:li>
                        <rdf:li rdf:parseType="Resource">
                           <xmpG:swatchName>R=34 G=181 B=115</xmpG:swatchName>
                           <xmpG:mode>RGB</xmpG:mode>
                           <xmpG:type>PROCESS</xmpG:type>
                           <xmpG:red>34</xmpG:red>
                           <xmpG:green>181</xmpG:green>
                           <xmpG:blue>115</xmpG:blue>
                        </rdf:li>
                        <rdf:li rdf:parseType="Resource">
                           <xmpG:swatchName>R=0 G=169 B=157</xmpG:swatchName>
                           <xmpG:mode>RGB</xmpG:mode>
                           <xmpG:type>PROCESS</xmpG:type>
                           <xmpG:red>0</xmpG:red>
                           <xmpG:green>169</xmpG:green>
                           <xmpG:blue>157</xmpG:blue>
                        </rdf:li>
                        <rdf:li rdf:parseType="Resource">
                           <xmpG:swatchName>R=41 G=171 B=226</xmpG:swatchName>
                           <xmpG:mode>RGB</xmpG:mode>
                           <xmpG:type>PROCESS</xmpG:type>
                           <xmpG:red>41</xmpG:red>
                           <xmpG:green>171</xmpG:green>
                           <xmpG:blue>226</xmpG:blue>
                        </rdf:li>
                        <rdf:li rdf:parseType="Resource">
                           <xmpG:swatchName>R=0 G=113 B=188</xmpG:swatchName>
                           <xmpG:mode>RGB</xmpG:mode>
                           <xmpG:type>PROCESS</xmpG:type>
                           <xmpG:red>0</xmpG:red>
                           <xmpG:green>113</xmpG:green>
                           <xmpG:blue>188</xmpG:blue>
                        </rdf:li>
                        <rdf:li rdf:parseType="Resource">
                           <xmpG:swatchName>R=46 G=49 B=146</xmpG:swatchName>
                           <xmpG:mode>RGB</xmpG:mode>
                           <xmpG:type>PROCESS</xmpG:type>
                           <xmpG:red>46</xmpG:red>
                           <xmpG:green>49</xmpG:green>
                           <xmpG:blue>146</xmpG:blue>
                        </rdf:li>
                        <rdf:li rdf:parseType="Resource">
                           <xmpG:swatchName>R=27 G=20 B=100</xmpG:swatchName>
                           <xmpG:mode>RGB</xmpG:mode>
                           <xmpG:type>PROCESS</xmpG:type>
                           <xmpG:red>27</xmpG:red>
                           <xmpG:green>20</xmpG:green>
                           <xmpG:blue>100</xmpG:blue>
                        </rdf:li>
                        <rdf:li rdf:parseType="Resource">
                           <xmpG:swatchName>R=102 G=45 B=145</xmpG:swatchName>
                           <xmpG:mode>RGB</xmpG:mode>
                           <xmpG:type>PROCESS</xmpG:type>
                           <xmpG:red>102</xmpG:red>
                           <xmpG:green>45</xmpG:green>
                           <xmpG:blue>145</xmpG:blue>
                        </rdf:li>
                        <rdf:li rdf:parseType="Resource">
                           <xmpG:swatchName>R=147 G=39 B=143</xmpG:swatchName>
                           <xmpG:mode>RGB</xmpG:mode>
                           <xmpG:type>PROCESS</xmpG:type>
                           <xmpG:red>147</xmpG:red>
                           <xmpG:green>39</xmpG:green>
                           <xmpG:blue>143</xmpG:blue>
                        </rdf:li>
                        <rdf:li rdf:parseType="Resource">
                           <xmpG:swatchName>R=158 G=0 B=93</xmpG:swatchName>
                           <xmpG:mode>RGB</xmpG:mode>
                           <xmpG:type>PROCESS</xmpG:type>
                           <xmpG:red>158</xmpG:red>
                           <xmpG:green>0</xmpG:green>
                           <xmpG:blue>93</xmpG:blue>
                        </rdf:li>
                        <rdf:li rdf:parseType="Resource">
                           <xmpG:swatchName>R=212 G=20 B=90</xmpG:swatchName>
                           <xmpG:mode>RGB</xmpG:mode>
                           <xmpG:type>PROCESS</xmpG:type>
                           <xmpG:red>212</xmpG:red>
                           <xmpG:green>20</xmpG:green>
                           <xmpG:blue>90</xmpG:blue>
                        </rdf:li>
                        <rdf:li rdf:parseType="Resource">
                           <xmpG:swatchName>R=237 G=30 B=121</xmpG:swatchName>
                           <xmpG:mode>RGB</xmpG:mode>
                           <xmpG:type>PROCESS</xmpG:type>
                           <xmpG:red>237</xmpG:red>
                           <xmpG:green>30</xmpG:green>
                           <xmpG:blue>121</xmpG:blue>
                        </rdf:li>
                        <rdf:li rdf:parseType="Resource">
                           <xmpG:swatchName>R=199 G=178 B=153</xmpG:swatchName>
                           <xmpG:mode>RGB</xmpG:mode>
                           <xmpG:type>PROCESS</xmpG:type>
                           <xmpG:red>199</xmpG:red>
                           <xmpG:green>178</xmpG:green>
                           <xmpG:blue>153</xmpG:blue>
                        </rdf:li>
                        <rdf:li rdf:parseType="Resource">
                           <xmpG:swatchName>R=153 G=134 B=117</xmpG:swatchName>
                           <xmpG:mode>RGB</xmpG:mode>
                           <xmpG:type>PROCESS</xmpG:type>
                           <xmpG:red>153</xmpG:red>
                           <xmpG:green>134</xmpG:green>
                           <xmpG:blue>117</xmpG:blue>
                        </rdf:li>
                        <rdf:li rdf:parseType="Resource">
                           <xmpG:swatchName>R=115 G=99 B=87</xmpG:swatchName>
                           <xmpG:mode>RGB</xmpG:mode>
                           <xmpG:type>PROCESS</xmpG:type>
                           <xmpG:red>115</xmpG:red>
                           <xmpG:green>99</xmpG:green>
                           <xmpG:blue>87</xmpG:blue>
                        </rdf:li>
                        <rdf:li rdf:parseType="Resource">
                           <xmpG:swatchName>R=83 G=71 B=65</xmpG:swatchName>
                           <xmpG:mode>RGB</xmpG:mode>
                           <xmpG:type>PROCESS</xmpG:type>
                           <xmpG:red>83</xmpG:red>
                           <xmpG:green>71</xmpG:green>
                           <xmpG:blue>65</xmpG:blue>
                        </rdf:li>
                        <rdf:li rdf:parseType="Resource">
                           <xmpG:swatchName>R=198 G=156 B=109</xmpG:swatchName>
                           <xmpG:mode>RGB</xmpG:mode>
                           <xmpG:type>PROCESS</xmpG:type>
                           <xmpG:red>198</xmpG:red>
                           <xmpG:green>156</xmpG:green>
                           <xmpG:blue>109</xmpG:blue>
                        </rdf:li>
                        <rdf:li rdf:parseType="Resource">
                           <xmpG:swatchName>R=166 G=124 B=82</xmpG:swatchName>
                           <xmpG:mode>RGB</xmpG:mode>
                           <xmpG:type>PROCESS</xmpG:type>
                           <xmpG:red>166</xmpG:red>
                           <xmpG:green>124</xmpG:green>
                           <xmpG:blue>82</xmpG:blue>
                        </rdf:li>
                        <rdf:li rdf:parseType="Resource">
                           <xmpG:swatchName>R=140 G=98 B=57</xmpG:swatchName>
                           <xmpG:mode>RGB</xmpG:mode>
                           <xmpG:type>PROCESS</xmpG:type>
                           <xmpG:red>140</xmpG:red>
                           <xmpG:green>98</xmpG:green>
                           <xmpG:blue>57</xmpG:blue>
                        </rdf:li>
                        <rdf:li rdf:parseType="Resource">
                           <xmpG:swatchName>R=117 G=76 B=36</xmpG:swatchName>
                           <xmpG:mode>RGB</xmpG:mode>
                           <xmpG:type>PROCESS</xmpG:type>
                           <xmpG:red>117</xmpG:red>
                           <xmpG:green>76</xmpG:green>
                           <xmpG:blue>36</xmpG:blue>
                        </rdf:li>
                        <rdf:li rdf:parseType="Resource">
                           <xmpG:swatchName>R=96 G=56 B=19</xmpG:swatchName>
                           <xmpG:mode>RGB</xmpG:mode>
                           <xmpG:type>PROCESS</xmpG:type>
                           <xmpG:red>96</xmpG:red>
                           <xmpG:green>56</xmpG:green>
                           <xmpG:blue>19</xmpG:blue>
                        </rdf:li>
                        <rdf:li rdf:parseType="Resource">
                           <xmpG:swatchName>R=66 G=33 B=11</xmpG:swatchName>
                           <xmpG:mode>RGB</xmpG:mode>
                           <xmpG:type>PROCESS</xmpG:type>
                           <xmpG:red>66</xmpG:red>
                           <xmpG:green>33</xmpG:green>
                           <xmpG:blue>11</xmpG:blue>
                        </rdf:li>
                     </rdf:Seq>
                  </xmpG:Colorants>
               </rdf:li>
               <rdf:li rdf:parseType="Resource">
                  <xmpG:groupName>Cold</xmpG:groupName>
                  <xmpG:groupType>1</xmpG:groupType>
                  <xmpG:Colorants>
                     <rdf:Seq>
                        <rdf:li rdf:parseType="Resource">
                           <xmpG:swatchName>C=56 M=0 Y=20 K=0</xmpG:swatchName>
                           <xmpG:mode>RGB</xmpG:mode>
                           <xmpG:type>PROCESS</xmpG:type>
                           <xmpG:red>101</xmpG:red>
                           <xmpG:green>200</xmpG:green>
                           <xmpG:blue>208</xmpG:blue>
                        </rdf:li>
                        <rdf:li rdf:parseType="Resource">
                           <xmpG:swatchName>C=51 M=43 Y=0 K=0</xmpG:swatchName>
                           <xmpG:mode>RGB</xmpG:mode>
                           <xmpG:type>PROCESS</xmpG:type>
                           <xmpG:red>131</xmpG:red>
                           <xmpG:green>139</xmpG:green>
                           <xmpG:blue>197</xmpG:blue>
                        </rdf:li>
                        <rdf:li rdf:parseType="Resource">
                           <xmpG:swatchName>C=26 M=41 Y=0 K=0</xmpG:swatchName>
                           <xmpG:mode>RGB</xmpG:mode>
                           <xmpG:type>PROCESS</xmpG:type>
                           <xmpG:red>186</xmpG:red>
                           <xmpG:green>155</xmpG:green>
                           <xmpG:blue>201</xmpG:blue>
                        </rdf:li>
                     </rdf:Seq>
                  </xmpG:Colorants>
               </rdf:li>
               <rdf:li rdf:parseType="Resource">
                  <xmpG:groupName>Grays</xmpG:groupName>
                  <xmpG:groupType>1</xmpG:groupType>
                  <xmpG:Colorants>
                     <rdf:Seq>
                        <rdf:li rdf:parseType="Resource">
                           <xmpG:swatchName>R=0 G=0 B=0</xmpG:swatchName>
                           <xmpG:mode>RGB</xmpG:mode>
                           <xmpG:type>PROCESS</xmpG:type>
                           <xmpG:red>0</xmpG:red>
                           <xmpG:green>0</xmpG:green>
                           <xmpG:blue>0</xmpG:blue>
                        </rdf:li>
                        <rdf:li rdf:parseType="Resource">
                           <xmpG:swatchName>R=26 G=26 B=26</xmpG:swatchName>
                           <xmpG:mode>RGB</xmpG:mode>
                           <xmpG:type>PROCESS</xmpG:type>
                           <xmpG:red>26</xmpG:red>
                           <xmpG:green>26</xmpG:green>
                           <xmpG:blue>26</xmpG:blue>
                        </rdf:li>
                        <rdf:li rdf:parseType="Resource">
                           <xmpG:swatchName>R=51 G=51 B=51</xmpG:swatchName>
                           <xmpG:mode>RGB</xmpG:mode>
                           <xmpG:type>PROCESS</xmpG:type>
                           <xmpG:red>51</xmpG:red>
                           <xmpG:green>51</xmpG:green>
                           <xmpG:blue>51</xmpG:blue>
                        </rdf:li>
                        <rdf:li rdf:parseType="Resource">
                           <xmpG:swatchName>R=77 G=77 B=77</xmpG:swatchName>
                           <xmpG:mode>RGB</xmpG:mode>
                           <xmpG:type>PROCESS</xmpG:type>
                           <xmpG:red>77</xmpG:red>
                           <xmpG:green>77</xmpG:green>
                           <xmpG:blue>77</xmpG:blue>
                        </rdf:li>
                        <rdf:li rdf:parseType="Resource">
                           <xmpG:swatchName>R=102 G=102 B=102</xmpG:swatchName>
                           <xmpG:mode>RGB</xmpG:mode>
                           <xmpG:type>PROCESS</xmpG:type>
                           <xmpG:red>102</xmpG:red>
                           <xmpG:green>102</xmpG:green>
                           <xmpG:blue>102</xmpG:blue>
                        </rdf:li>
                        <rdf:li rdf:parseType="Resource">
                           <xmpG:swatchName>R=128 G=128 B=128</xmpG:swatchName>
                           <xmpG:mode>RGB</xmpG:mode>
                           <xmpG:type>PROCESS</xmpG:type>
                           <xmpG:red>128</xmpG:red>
                           <xmpG:green>128</xmpG:green>
                           <xmpG:blue>128</xmpG:blue>
                        </rdf:li>
                        <rdf:li rdf:parseType="Resource">
                           <xmpG:swatchName>R=153 G=153 B=153</xmpG:swatchName>
                           <xmpG:mode>RGB</xmpG:mode>
                           <xmpG:type>PROCESS</xmpG:type>
                           <xmpG:red>153</xmpG:red>
                           <xmpG:green>153</xmpG:green>
                           <xmpG:blue>153</xmpG:blue>
                        </rdf:li>
                        <rdf:li rdf:parseType="Resource">
                           <xmpG:swatchName>R=179 G=179 B=179</xmpG:swatchName>
                           <xmpG:mode>RGB</xmpG:mode>
                           <xmpG:type>PROCESS</xmpG:type>
                           <xmpG:red>179</xmpG:red>
                           <xmpG:green>179</xmpG:green>
                           <xmpG:blue>179</xmpG:blue>
                        </rdf:li>
                        <rdf:li rdf:parseType="Resource">
                           <xmpG:swatchName>R=204 G=204 B=204</xmpG:swatchName>
                           <xmpG:mode>RGB</xmpG:mode>
                           <xmpG:type>PROCESS</xmpG:type>
                           <xmpG:red>204</xmpG:red>
                           <xmpG:green>204</xmpG:green>
                           <xmpG:blue>204</xmpG:blue>
                        </rdf:li>
                        <rdf:li rdf:parseType="Resource">
                           <xmpG:swatchName>R=230 G=230 B=230</xmpG:swatchName>
                           <xmpG:mode>RGB</xmpG:mode>
                           <xmpG:type>PROCESS</xmpG:type>
                           <xmpG:red>230</xmpG:red>
                           <xmpG:green>230</xmpG:green>
                           <xmpG:blue>230</xmpG:blue>
                        </rdf:li>
                        <rdf:li rdf:parseType="Resource">
                           <xmpG:swatchName>R=242 G=242 B=242</xmpG:swatchName>
                           <xmpG:mode>RGB</xmpG:mode>
                           <xmpG:type>PROCESS</xmpG:type>
                           <xmpG:red>242</xmpG:red>
                           <xmpG:green>242</xmpG:green>
                           <xmpG:blue>242</xmpG:blue>
                        </rdf:li>
                     </rdf:Seq>
                  </xmpG:Colorants>
               </rdf:li>
            </rdf:Seq>
         </xmpTPg:SwatchGroups>
         <pdf:Producer>Adobe PDF library 10.01</pdf:Producer>
      </rdf:Description>
   </rdf:RDF>
</x:xmpmeta>
                                                                                                    
                                                                                                    
                                                                                                    
                                                                                                    
                                                                                                    
                                                                                                    
                                                                                                    
                                                                                                    
                                                                                                    
                                                                                                    
                                                                                                    
                                                                                                    
                                                                                                    
                                                                                                    
                                                                                                    
                                                                                                    
                                                                                                    
                                                                                                    
                                                                                                    
                                                                                                    
                           
<?xpacket end="w"?>
	</metadata>
<g>
	<g>
		<path style="&st4;" d="M237.4593964,41.267395H3.8739369C1.7344207,41.267395,0,40.2101593,0,38.9059906V2.3614063
			C0,1.0572376,1.7344207,0,3.8739369,0h233.5854645c2.1395111,0,3.8739319,1.0572376,3.8739319,2.3614063v36.5445862
			C241.3333282,40.2101593,239.5989075,41.267395,237.4593964,41.267395z"/>
	</g>
	<g>
		<g>
			<g>
				<g>
					<g>
						<g>
							<g>
								<g>
									<g>
										<g>
											<path style="&st0;" d="M82.5429459,24.4603233c1.0502548,0,1.9593048-0.3762722,2.7017899-1.1187611
												c0.7464676-0.7466793,1.1248398-1.6576118,1.1248398-2.707655s-0.3783722-1.9588814-1.1244202-2.7017879
												c-0.7435379-0.7466793-1.6523743-1.1250477-2.7022095-1.1250477c-1.0500412,0-1.9609756,0.3783684-2.7076492,1.1246281
												c-0.7424927,0.7429085-1.1189728,1.6517448-1.1189728,2.7022076s0.3766937,1.9613953,1.1193924,2.7080727
												C80.5815506,24.0836315,81.4926987,24.4603233,82.5429459,24.4603233z"/>
										</g>
									</g>
								</g>
							</g>
						</g>
					</g>
				</g>
			</g>
			<g>
				<g>
					<g>
						<g>
							<g>
								<g>
									<path style="&st3;" d="M82.5429459,7.5975866c0.5672379,0,1.0547638,0.2053771,1.449379,0.6112413
										c0.3955917,0.3843489,0.6014633,0.872364,0.6014633,1.4395962v21.9756813
										c0,0.5682087-0.2058716,1.0562267-0.6117325,1.4503536c-0.7682114,0.7902145-2.0982666,0.800972-2.8879929-0.0107574
										c-0.3960876-0.3843498-0.6019516-0.8713875-0.6019516-1.4395962V9.6484241
										c0-0.5662537,0.2053757-1.0542688,0.6107483-1.4493761C81.488678,7.8029637,81.9762039,7.5975866,82.5429459,7.5975866z
										 M82.5429459,32.397583c0.2544785,0,0.4556885-0.0845413,0.6323853-0.2663116
										c0.1902237-0.1851501,0.2747726-0.385519,0.2747726-0.6408405V9.8108988
										c0-0.2544765-0.084549-0.4556904-0.2663116-0.6323862c-0.3703079-0.3804464-0.9185715-0.3719921-1.2736511-0.0084543
										c-0.1898041,0.1851501-0.2743454,0.3556137-0.2743454,0.6100903v21.7102814
										c0,0.2553215,0.0845413,0.4556904,0.265892,0.6323872C82.0876846,32.3130417,82.288475,32.397583,82.5429459,32.397583z"/>
								</g>
							</g>
						</g>
					</g>
				</g>
			</g>
			<g>
				<g>
					<g>
						<g>
							<g>
								<g>
									<g>
										<g>
											<path style="&st0;" d="M82.5423203,28.9207363c-2.2723694,0-4.2448044-0.8146477-5.8596954-2.4203663
												c-1.6096497-1.6188164-2.4256058-3.591259-2.4256058-5.8649368c0-2.2762966,0.8146515-4.2461185,2.4229889-5.8544569
												c1.6175079-1.6135778,3.5899429-2.4334641,5.8623123-2.4334641c2.2736816,0,4.2434998,0.8198862,5.8518372,2.4360828
												c1.6148911,1.6083384,2.4347763,3.5781603,2.4347763,5.8518381s-0.818573,4.2461205-2.4347763,5.8623161
												C86.78582,28.1060886,84.8173065,28.9207363,82.5423203,28.9207363z M82.5423203,13.0180902
												c-2.0890045,0-3.9016571,0.7543993-5.3881912,2.239625c-1.4773712,1.4773655-2.226532,3.2847824-2.226532,5.377718
												c0,2.0903168,0.7491608,3.9029732,2.2291489,5.3908176c1.4839172,1.4747467,3.2965698,2.2239075,5.3855743,2.2239075
												c2.0903168,0,3.8990479-0.7491608,5.3777237-2.229147c1.4852219-1.4852257,2.2383118-3.2952614,2.2383118-5.3855782
												s-0.7530899-3.8977318-2.2383118-5.377718C86.4413681,13.7698708,84.6313324,13.0180902,82.5423203,13.0180902z"/>
										</g>
									</g>
								</g>
							</g>
						</g>
					</g>
				</g>
			</g>
			<g>
				<g>
					<g>
						<g>
							<g>
								<g>
									<g>
										<g>
											<path style="&st3;" d="M82.5423203,31.5192242c-2.9848557,0-5.5754852-1.071352-7.6985474-3.1800041
												c-2.1138916-2.1269894-3.1852417-4.7176208-3.1852417-7.7037868c0-2.9914055,1.0713501-5.5767965,3.1826248-7.6880684
												c2.1230621-2.1217499,4.7136917-3.1983414,7.7011642-3.1983414c2.9874802,0,5.5728683,1.0765915,7.6867599,3.2009611
												c2.1217499,2.1112719,3.1983414,4.6966639,3.1983414,7.6854486c0,2.986166-1.0765915,5.5767975-3.1996536,7.7011662
												C88.1178055,30.4478722,85.5324173,31.5192242,82.5423203,31.5192242z M82.5423203,10.4196014
												c-2.802803,0-5.2336502,1.0111055-7.2270432,3.0045023c-1.9816132,1.9776802-2.9861679,4.4059057-2.9861679,7.2113295
												c0,2.8028049,1.005867,5.2336502,2.9887848,7.2296658c1.9920883,1.9803009,4.4229355,2.9835472,7.2244263,2.9835472
												c2.8054276,0,5.2310333-1.0058651,7.2113342-2.986166c1.9933929-1.9933968,3.0031891-4.424242,3.0031891-7.227047
												s-1.0097961-5.2284098-3.0018845-7.2113295C87.7707291,11.430707,85.3438187,10.4196014,82.5423203,10.4196014z"/>
										</g>
									</g>
								</g>
							</g>
						</g>
					</g>
				</g>
			</g>
			<g>
				<g>
					<g>
						<g>
							<g>
								<g>
									<g>
										<g>
											<path style="&st3;" d="M82.5423203,26.5999088c-1.6345291,0-3.0542679-0.5867558-4.2186127-1.7419319
												c-1.1604156-1.1656513-1.7471695-2.5880108-1.7471695-4.2251625c0-1.6345329,0.5867538-3.0516529,1.7445526-4.2120667
												c1.1630325-1.1630325,2.5840759-1.752408,4.2212296-1.752408c1.6384659,0,3.0568924,0.5893755,4.2146912,1.7550268
												c1.1630325,1.1551762,1.7524033,2.5722942,1.7524033,4.2094479c0,1.6371517-0.5893707,3.0595112-1.7537155,4.2225437
												C85.5992126,26.0131531,84.1807861,26.5999088,82.5423203,26.5999088z M82.5423203,15.3389177
												c-1.4537888,0-2.7137451,0.5238886-3.7471161,1.5559492c-1.0268173,1.0294418-1.5480881,2.2867756-1.5480881,3.7379475
												c0,1.4537907,0.5212708,2.7163639,1.5507126,3.7510433c1.0320587,1.0242043,2.2933197,1.5454731,3.7444916,1.5454731
												c1.455101,0,2.7124329-0.5212688,3.7392578-1.5480919c1.033371-1.0320606,1.5572586-2.2946339,1.5572586-3.7484245
												c0-1.4511719-0.5238876-2.7085056-1.5559464-3.7353268
												C85.2547531,15.8628063,83.9961166,15.3389177,82.5423203,15.3389177z"/>
										</g>
									</g>
								</g>
							</g>
						</g>
					</g>
				</g>
			</g>
			<g>
				<g>
					<g>
						<g>
							<g>
								<g>
									<g>
										<g>
											<path style="&st0;" d="M82.5429459,24.4603233c1.0502548,0,1.9593048-0.3762722,2.7017899-1.1187611
												c0.7464676-0.7466793,1.1248398-1.6576118,1.1248398-2.707655s-0.3783722-1.9588814-1.1244202-2.7017879
												c-0.7435379-0.7466793-1.6523743-1.1250477-2.7022095-1.1250477"/>
										</g>
									</g>
								</g>
							</g>
						</g>
					</g>
				</g>
			</g>
			<g>
				
					<rect x="80.4951706" y="27.7358532" transform="matrix(-1 -1.224647e-16 1.224647e-16 -1 162.1345062 56.7437477)" style="&st3;" width="1.1441733" height="1.2720432"/>
			</g>
			<g>
				
					<rect x="83.4499054" y="9.6198997" transform="matrix(-1 -1.224647e-16 1.224647e-16 -1 168.0439758 20.5118427)" style="&st3;" width="1.1441733" height="1.2720432"/>
			</g>
			<g>
				
					<rect x="83.4499054" y="14.5427294" transform="matrix(-1 -1.224647e-16 1.224647e-16 -1 168.0439758 30.357502)" style="&st3;" width="1.1441733" height="1.2720432"/>
			</g>
			<g>
				
					<rect x="80.4909744" y="12.3645849" transform="matrix(-1 -1.224647e-16 1.224647e-16 -1 162.1261292 26.0012131)" style="&st3;" width="1.1441733" height="1.2720432"/>
			</g>
			<g>
				
					<rect x="83.4499054" y="30.4642658" transform="matrix(-1 -1.224647e-16 1.224647e-16 -1 168.0439758 62.2005768)" style="&st3;" width="1.1441733" height="1.2720432"/>
			</g>
			<g>
				
					<rect x="83.4499054" y="25.3205414" transform="matrix(-1 -1.224647e-16 1.224647e-16 -1 168.0439758 51.9131241)" style="&st3;" width="1.1441733" height="1.2720432"/>
			</g>
			<g>
				<g>
					<g>
						<g>
							<g>
								<g>
									<g>
										<g>
											<path style="&st0;" d="M76.9507141,19.7774582c-0.2550507,0-0.4669037,0.0877914-0.6476364,0.2686062
												c-0.1821289,0.1820488-0.2706909,0.3945923-0.2706909,0.6496449s0.0884857,0.4668255,0.2704544,0.6474876
												c0.1812057,0.1823559,0.3929749,0.270916,0.6478729,0.270916c0.2550583,0,0.467598-0.0885601,0.6497269-0.2707615
												c0.1807404-0.1806622,0.2686005-0.3924351,0.2686005-0.6476421s-0.087944-0.4677505-0.2687607-0.6497993
												C77.418541,19.8654022,77.205925,19.7774582,76.9507141,19.7774582z"/>
										</g>
									</g>
								</g>
							</g>
						</g>
					</g>
				</g>
			</g>
			<g>
				<g>
					<g>
						<g>
							<g>
								<g>
									<g>
										<g>
											<path style="&st3;" d="M71.9772644,19.7774582c-0.2550507,0-0.4669037,0.0877914-0.647644,0.2686062
												c-0.1821213,0.1820488-0.2706833,0.3945923-0.2706833,0.6496449s0.0884857,0.4668255,0.2704544,0.6474876
												c0.1812057,0.1823559,0.3929749,0.270916,0.6478729,0.270916c0.2550507,0,0.467598-0.0885601,0.6497192-0.2707615
												c0.1807404-0.1806622,0.2686081-0.3924351,0.2686081-0.6476421s-0.087944-0.4677505-0.2687607-0.6497993
												C72.4450912,19.8654022,72.2324753,19.7774582,71.9772644,19.7774582z"/>
										</g>
									</g>
								</g>
							</g>
						</g>
					</g>
				</g>
			</g>
			<g>
				<g>
					<g>
						<g>
							<g>
								<g>
									<g>
										<g>
											<path style="&st3;" d="M90.4740372,19.7774582c-0.2550583,0-0.4669037,0.0877914-0.647644,0.2686062
												c-0.1821289,0.1820488-0.2706833,0.3945923-0.2706833,0.6496449s0.0884781,0.4668255,0.2704544,0.6474876
												c0.1811981,0.1823559,0.3929749,0.270916,0.6478729,0.270916c0.2550507,0,0.4675903-0.0885601,0.6497192-0.2707615
												c0.1807404-0.1806622,0.2686081-0.3924351,0.2686081-0.6476421s-0.087944-0.4677505-0.2687607-0.6497993
												C90.941864,19.8654022,90.7292404,19.7774582,90.4740372,19.7774582z"/>
										</g>
									</g>
								</g>
							</g>
						</g>
					</g>
				</g>
			</g>
		</g>
		<g>
			<g>
				<g>
					<g>
						<g>
							<g>
								<g>
									<path style="&st0;" d="M100.1458588,21.4030914c-1.5072556-0.0237846-2.9967346-0.6917591-3.3176346-2.3040905
										c-0.1148148-0.5768871-0.0586548-1.1781902,0.090744-1.7471008
										c0.0619354-0.2358303,0.140892-0.4700661,0.2708588-0.6763668c0.5673676-0.9005985,1.8739014-1.376318,2.8927612-1.3763132
										c0.795372,0.0000029,1.507515,0.1714373,2.1369324,0.51231c0.7565079,0.4096498,1.2369232,1.0056849,1.4417496,1.7861109
										c0.0587997,0.2292442,0.0269089,0.4465275-0.095192,0.6508541
										c-0.1171112,0.2053223-0.2900391,0.3368893-0.5192871,0.3956947
										c-0.229744,0.0588055-0.4465256,0.028904-0.6513519-0.0877113
										c-0.2053223-0.1225948-0.3368835-0.2980175-0.395195-0.5272617
										c-0.0882111-0.3269215-0.3294144-0.5830765-0.7246094-0.768465
										c-0.3468552-0.1614685-0.7440491-0.2412052-1.1930695-0.2412052c-0.4584885,0-0.8541794,0.143528-1.185585,0.4315777
										c-0.3269272,0.2880497-0.500351,0.6388931-0.5197906,1.0535259
										c-0.009964,0.2541618,0.0807343,0.4834061,0.270607,0.6887283
										c0.3025055,0.3169556,0.8103333,0.4804153,1.5593567,0.4903831
										c1.1950607,0.0189381,2.1100464,0.3657932,2.7444534,1.0385761
										c0.5217819,0.5521793,0.765976,1.1980495,0.7315903,1.9396038
										c-0.0388718,0.8741169-0.3877258,1.6126823-1.0465546,2.2176876
										c-0.6633072,0.6050034-1.4537048,0.9080048-2.3711777,0.9080048c-0.7953796,0-1.5075302-0.1714344-2.1369553-0.51231
										c-0.7565002-0.4096489-1.2369232-1.0056839-1.4417419-1.7861099
										c-0.0588074-0.2292442-0.0294037-0.4465275,0.0877075-0.6518517
										c0.1215973-0.2043266,0.2975235-0.3358917,0.5267639-0.3946972
										c0.2292404-0.0588074,0.4465256-0.0289059,0.6513519,0.0877094
										c0.2048264,0.1215992,0.3368912,0.2980175,0.395195,0.5272617
										c0.0882111,0.3269215,0.3269272,0.5830784,0.7176361,0.7684669
										c0.3508453,0.160471,0.7510223,0.2412033,1.2000427,0.2412033c0.4584885,0,0.8511963-0.1435261,1.1786118-0.4315758
										c0.3314056-0.2830677,0.5073318-0.6339111,0.5267639-1.0545235
										c0.0094681-0.2531643-0.0807343-0.4804153-0.270607-0.6797581
										C101.3972321,21.5785141,100.8899078,21.4130592,100.1458588,21.4030914z"/>
								</g>
							</g>
						</g>
						<g>
							<g>
								<g>
									<path style="&st0;" d="M112.9770508,18.086031c0.1360474,0.0388718,0.2471848,0.1156178,0.3333969,0.2302399
										c0.0857162,0.1116314,0.1285782,0.2382145,0.1285782,0.3817406v6.4557133
										c0,0.1754208-0.0607986,0.3239326-0.1823959,0.4455299c-0.1255875,0.1255875-0.2755966,0.1883793-0.4510193,0.1883793
										c-0.175415,0-0.3259201-0.0627918-0.4515076-0.1883793c-0.1215973-0.1215973-0.1823959-0.2701092-0.1823959-0.4455299
										V20.975502l-2.0033951,3.3080921v0.0049839l-0.0054855,0.0059795l-0.004982,0.0049839l-0.0054855,0.0059795
										c-0.0109634,0.0179405-0.0179367,0.0299015-0.0179367,0.0299015l-0.0199356,0.0289059
										c-0.0139542,0.0139523-0.0229263,0.0229244-0.026413,0.0269108c0,0-0.0109634,0.0109634-0.0219269,0.0209312
										c-0.0104675,0.0109634-0.0179443,0.0179405-0.0179443,0.0179405
										c-0.0104599,0.0109634-0.0214233,0.0199337-0.0353775,0.0308971l-0.016449,0.0159473
										c-0.0104675,0.0069771-0.0234222,0.0139542-0.0373764,0.0219288l-0.0054779,0.0049839l-0.0054855,0.004982h-0.004982
										c0,0-0.0199356,0.0149517-0.0378799,0.0219288c-0.0144501,0.0069771-0.0194321,0.0109634-0.0194321,0.0109634
										s-0.0109634,0.0029907-0.0289078,0.0099678c-0.0822296,0.035881-0.1684418,0.0528259-0.2576447,0.0488377h-0.0109634
										c0.0074692,0,0-0.0019932-0.021431-0.0059795c-0.0463486-0.0029907-0.0931931-0.011961-0.1395416-0.0259151
										c-0.0179443-0.0039864-0.0249176-0.0059795-0.021431-0.0059795c0,0,0,0.0019932-0.021431-0.0049839
										c-0.0179367-0.0069771-0.0303955-0.0129566-0.0303955-0.0129566s-0.0074768-0.0069771-0.0179443-0.0139542
										c-0.0179367-0.0069771-0.0323944-0.0139542-0.0323944-0.0139542l-0.0159454-0.0079746l-0.0054779-0.004982
										l-0.0054855-0.0049839c-0.0144501-0.0079746-0.0269089-0.0169449-0.0373764-0.0269108
										c0,0.0029888-0.0054779,0-0.0164413-0.0109653c-0.0139542-0.0109634-0.0249176-0.0199337-0.0318985-0.0269108
										l-0.021431-0.0219269c-0.0109634-0.0099678-0.0179367-0.0179405-0.021431-0.0209312
										c0,0-0.0129547-0.0159473-0.0269089-0.0269108c-0.0074768-0.0109653-0.0109634-0.0179424-0.0109634-0.0179424
										s-0.0159454-0.0229244-0.0269089-0.0408649l-0.0054855-0.0059795c0-0.0029907-0.0014954-0.0049839-0.0014954-0.0049839
										l-0.0034866-0.0059795c0,0-0.0019913-0.0049839-0.0054779-0.0049839l-1.9979172-3.3080921v4.1782227
										c0,0.1754208-0.0627899,0.3239326-0.1878815,0.4455299c-0.1255798,0.1255875-0.2760849,0.1883793-0.4515076,0.1883793
										s-0.3239365-0.0627918-0.4455338-0.1883793c-0.1255875-0.1215973-0.1878815-0.2701092-0.1878815-0.4455299v-6.4557133
										c0-0.1435261,0.0428619-0.2701092,0.1285782-0.3817406c0.0862198-0.1146221,0.1988449-0.1913681,0.3383865-0.2302399
										c0.1360474-0.0358829,0.270607-0.0289059,0.4031677,0.0209293c0.1320648,0.0538235,0.2362213,0.1415348,0.3114777,0.263134
										l2.6422806,4.3666l2.6422882-4.3666c0.0717621-0.1215992,0.1739273-0.2093105,0.3059921-0.263134
										c0.1325607-0.0498352,0.1988449-0.0747528,0.1988449-0.0747528S112.8375092,18.050148,112.9770508,18.086031z"/>
								</g>
							</g>
						</g>
						<g>
							<g>
								<g>
									<path style="&st0;" d="M115.6412659,25.7387962c-0.1609726-0.0677776-0.2755966-0.1823997-0.3438721-0.3438663
										c-0.0642853-0.160471-0.0642853-0.3219395,0-0.4834061l0.682251-1.6375999V23.26894l1.9764862-4.7692738
										c0.0069733-0.0179405,0.0159454-0.035881,0.0269089-0.0538235l0.0104675-0.0269108
										c0.0109634-0.0149498,0.0179367-0.0239201,0.0179367-0.0239201s0.0089722-0.0159473,0.0199356-0.0299015
										c0.0104675-0.0109634,0.0179443-0.0179405,0.0179443-0.0179405s0.0089722-0.0149517,0.0194321-0.0249195
										c0.0144577-0.0149498,0.021431-0.0239201,0.021431-0.0239201s0.0109634-0.011961,0.021431-0.0189381
										c0.0144501-0.0149498,0.0234222-0.0219269,0.0234222-0.0219269s0.0069733-0.0049839,0.0249176-0.0159473
										c0.0144501-0.0109653,0.0234222-0.0179405,0.0269089-0.0219288l0.021431-0.0159473
										c0.0179443-0.0109634,0.0289078-0.0159473,0.0323944-0.0159473c0,0,0.0199356-0.0089703,0.0378723-0.0159473
										c0.0174484-0.0109634,0.0229263-0.0139542,0.0159531-0.0109634c-0.0074768,0.0039864,0,0,0.0214233-0.0109634
										c0.0179443-0.0029907,0.0304031-0.0069771,0.0373764-0.0109634c0,0,0.016449-0.0029907,0.0378799-0.0099678
										l0.021431-0.0059814c0.0069733,0,0.0194321-0.0009956,0.0373764-0.004982l0.0269089-0.0049839
										c0.0034866,0,0.0144501,0,0.0323944,0c0.0144501,0,0.0234222,0,0.0234222,0c0.0104675,0,0.021431,0,0.035881,0h0.0318909
										l0.0323944,0.0049839l0.0269165,0.004982c0,0,0.0194321,0.0039883,0.0373764,0.0109653
										c0.0214233,0.0039864,0.0289001,0.0049839,0.0289001,0.0049839
										c0.0353851,0.0109634,0.0747528,0.0269108,0.1106339,0.0488377c0,0,0.0034943,0,0.021431,0.0109634
										c0.0179443,0.0109653,0.0289078,0.0179424,0.0289078,0.0179424l0.0249176,0.0189362
										c0.0144501,0.0109653,0.0234222,0.0189381,0.0234222,0.0189381
										c0.0069733,0.0029907,0.0144501,0.0079746,0.0249176,0.0189381l0.0269089,0.0219269l0.0159454,0.0209312
										c0.0144577,0.0149517,0.0219345,0.023922,0.0219345,0.023922l0.0159454,0.0249176
										c0.0144501,0.0139542,0.021431,0.0229244,0.021431,0.0229244s0.0054779,0.0159473,0.0159454,0.0308971
										c0.0109634,0.0139542,0.0164413,0.0229244,0.0164413,0.0269108
										c0.0104675,0.0179424,0.0194397,0.0358829,0.0269165,0.0538235l1.9759827,4.7692738v0.0049839l0.682251,1.6375999
										c0.0642853,0.1614666,0.0642853,0.3229351,0,0.4834061c-0.0677795,0.1614666-0.1823959,0.2760887-0.3438644,0.3438663
										c-0.078743,0.0328903-0.1589813,0.0488377-0.2417068,0.0488377c-0.2825699,0-0.4779205-0.1305695-0.5850677-0.392704
										l-0.5158005-1.2458916h-3.1097488l-0.5152969,1.2458916c-0.1076431,0.2621346-0.3025055,0.392704-0.5855713,0.392704
										c-0.0822296,0-0.1235886,0-0.1235886,0S115.7200012,25.7716866,115.6412659,25.7387962z M119.5727997,22.8871975
										l-1.0365829-2.4917831l-1.0310974,2.4917831H119.5727997z"/>
								</g>
							</g>
						</g>
						<g>
							<g>
								<g>
									<path style="&st0;" d="M128.5631561,20.314682c0,0.4724407-0.1465149,0.900032-0.4400482,1.2837658
										c-0.2830734,0.3797474-0.6553421,0.6498566-1.1173172,0.8103275l1.2194748,2.4708538
										c0.0747528,0.1544895,0.083725,0.3129673,0.026413,0.4784222c-0.0533295,0.1644573-0.1589813,0.2860565-0.316452,0.3647957
										c-0.0897064,0.04286-0.1828995,0.0647869-0.2795792,0.0647869c-0.2611389,0-0.4495163-0.1186085-0.5636444-0.3548298
										l-1.4233017-2.8844891h-1.0904083v2.5625515c0,0.1714344-0.0627899,0.3199444-0.1878815,0.4455299
										c-0.1220932,0.1215992-0.270607,0.1823997-0.4460297,0.1823997c-0.1719284,0-0.3204422-0.0608006-0.4455261-0.1823997
										c-0.1221008-0.1255856-0.1828995-0.2740955-0.1828995-0.4455299v-6.4018898
										c0-0.1754227,0.0607986-0.3239326,0.1828995-0.4465275c0.1250839-0.1245899,0.2735977-0.1873837,0.4455261-0.1873837
										h2.223671c0.6623154,0,1.2264557,0.2182808,1.6919174,0.6548405
										C128.3289185,19.1674633,128.5631561,19.694725,128.5631561,20.314682z M126.210907,21.2864761
										c0.3010101-0.0109634,0.5586624-0.1086407,0.7734528-0.2950268
										c0.2113037-0.1903725,0.3169556-0.4156284,0.3169556-0.6767673c0-0.2721043-0.1111374-0.5033417-0.332901-0.6927166
										c-0.2222672-0.1903725-0.4888916-0.2850609-0.8003616-0.2850609h-1.5897598v1.9495716H126.210907z"/>
								</g>
							</g>
						</g>
						<g>
							<g>
								<g>
									<path style="&st0;" d="M131.8876953,19.342886H130.29245c-0.175415,0-0.3254242-0.0627937-0.4510193-0.1883793
										c-0.1215973-0.1215992-0.1823883-0.2701092-0.1823883-0.4455299c0-0.1754227,0.060791-0.3239326,0.1823883-0.4465275
										c0.1255951-0.1245899,0.2756042-0.1873837,0.4510193-0.1873837h4.4632874
										c0.171936,0,0.3204346,0.0627937,0.4460297,0.1873837c0.1215973,0.1225948,0.1823883,0.2711048,0.1823883,0.4465275
										c0,0.1754208-0.060791,0.3239307-0.1823883,0.4455299c-0.1255951,0.1255856-0.2740936,0.1883793-0.4460297,0.1883793
										h-1.6002197v5.8108387c0,0.1754208-0.0628052,0.3259258-0.188385,0.4515114
										c-0.1215973,0.1215992-0.2701111,0.1823978-0.4455261,0.1823978c-0.1754303,0-0.3239441-0.0607986-0.4460297-0.1823978
										c-0.1250916-0.1255856-0.1878815-0.2760906-0.1878815-0.4515114V19.342886z"/>
								</g>
							</g>
						</g>
					</g>
				</g>
			</g>
			<g>
				<g>
					<g>
						<g>
							<g>
								<path style="&st3;" d="M149.2569885,16.2271595c0.2058105,0.0757504,0.3553162,0.2113037,0.4490204,0.4086533
									c0.093689,0.196352,0.1051483,0.3976879,0.0333862,0.6030102l-2.8202057,8.0185604v0.0069771
									c-0.0089722,0.0308971-0.0224304,0.064785-0.0403595,0.100668
									c-0.0089722,0.0089703-0.0134583,0.0159473-0.0134583,0.0199337
									c-0.0179443,0.030899-0.0378723,0.059803-0.0603027,0.0867138c0.0089722-0.0129566,0.0044861-0.0059795-0.0134583,0.0209312
									c-0.0179443,0.0219269-0.0378723,0.0438557-0.0603027,0.0667801
									c-0.0129547,0.0129566-0.0174408,0.0179405-0.0129547,0.0129566
									c-0.0269165,0.0229244-0.0538177,0.0448532-0.0807343,0.0667801c0.0044861-0.0039864-0.0019989,0-0.019928,0.0139542
									c-0.0269165,0.0179405-0.053833,0.0328922-0.080246,0.0468445c-0.013443,0.0039883-0.0179291,0.0069771-0.0179291,0.0069771
									c-0.0269165,0.0129585-0.0558167,0.023922-0.0827332,0.0328922
									c-0.0179443,0.0089703-0.019928,0.0109634-0.0069733,0.0069771c-0.026413,0.0089703-0.0578156,0.0159473-0.093689,0.0199337
									c-0.0358887,0.0089703-0.0468445,0.0109653-0.0334015,0.0069771
									c-0.0448456,0.0089703-0.087204,0.0129585-0.1270752,0.0129585c-0.0403595,0-0.0827332-0.0039883-0.1275787-0.0129585
									c0.0134583,0.0039883,0.0024872,0.0019932-0.0333862-0.0069771
									c-0.0358887-0.0039864-0.0647888-0.0109634-0.0872192-0.0199337
									c0.0089722,0.0039864,0.0044861,0.0019932-0.0134583-0.0069771
									c-0.026413-0.0089703-0.0533142-0.0199337-0.0802307-0.0328922l-0.019928-0.0069771
									c-0.0269165-0.0139523-0.053833-0.028904-0.0807343-0.0468445l-0.006485-0.0069771l-0.006485-0.0069771
									c-0.0313873-0.0219269-0.0583038-0.0438557-0.080719-0.0667801c0,0.0049839-0.006485,0-0.0199432-0.0129566
									c-0.0224304-0.0229244-0.0423584-0.0468464-0.0603027-0.0737572l-0.0134583-0.0139542
									c-0.0179291-0.0269108-0.0358734-0.0558147-0.0538177-0.0867138
									c-0.0044861-0.0089703-0.0089722-0.0159473-0.0129547-0.0199337
									c-0.0179443-0.0358829-0.0338898-0.0697708-0.047348-0.100668v-0.0069771l-2.0696716-5.8955593l-2.0701752,5.8955593
									v0.0069771c-0.0134583,0.0308971-0.0294037,0.064785-0.0468445,0.100668
									c-0.0044861,0.0089703-0.0089722,0.0159473-0.0134583,0.0199337
									c-0.0179443,0.030899-0.0358734,0.059803-0.0538177,0.0867138c0.0089722-0.0129566,0.0044861-0.0059795-0.0134583,0.0209312
									c-0.0224304,0.0219269-0.0443573,0.0438557-0.0667725,0.0667801
									c-0.0134583,0.0129566-0.0179443,0.0179405-0.0134583,0.0129566
									c-0.0224304,0.0229244-0.0493469,0.0448532-0.080246,0.0667801c0.0089722-0.0039864,0.0019989,0-0.0204315,0.0139542
									c-0.026413,0.0179405-0.0533142,0.0328922-0.0802307,0.0468445
									c-0.0134583,0.0039883-0.0179443,0.0069771-0.0134583,0.0069771
									c-0.0313873,0.0129585-0.0578003,0.023922-0.0802307,0.0328922s-0.0269165,0.0109634-0.0134583,0.0069771
									c-0.0269165,0.0089703-0.0583038,0.0159473-0.093689,0.0199337
									c-0.0314026,0.0089703-0.0423584,0.0109653-0.0333862,0.0069771
									c-0.0403748,0.0089703-0.0807343,0.0129585-0.1206055,0.0129585c-0.0448608,0-0.0872192-0.0039883-0.1275787-0.0129585
									c0.0134583,0.0039883,0.0024872,0.0019932-0.0333862-0.0069771
									c-0.0358887-0.0039864-0.0667877-0.0109634-0.0937042-0.0199337
									c0.0134583,0.0039864,0.0109711,0.0019932-0.0069733-0.0069771
									c-0.026413-0.0089703-0.0558167-0.0199337-0.0867157-0.0328922c0.0039978,0,0-0.0029888-0.0134583-0.0069771
									c-0.0269012-0.0139523-0.0538177-0.028904-0.080719-0.0468445l-0.0134583-0.0069771l-0.006485-0.0069771
									c-0.0269165-0.0219269-0.0538177-0.0438557-0.0802307-0.0667801c0.0044861,0.0049839,0,0-0.0134583-0.0129566
									c-0.0224304-0.0229244-0.0448456-0.0468464-0.067276-0.0737572l-0.006485-0.0139542
									c-0.0224152-0.0269108-0.0423584-0.0558147-0.0603027-0.0867138
									c-0.0044861-0.0089703-0.0089722-0.0159473-0.013443-0.0199337
									c-0.0179443-0.0358829-0.0314026-0.0697708-0.0403748-0.100668l-0.006485-0.0069771l-2.8137207-8.0185604
									c-0.0717621-0.2053223-0.0603027-0.4066582,0.0334015-0.6030102
									c0.093689-0.1973495,0.2436829-0.3329029,0.4490204-0.4086533c0.2053223-0.071764,0.4061584-0.0607986,0.6030121,0.0328922
									c0.1963501,0.0986748,0.3323975,0.2501755,0.4086456,0.4554977l2.0701752,5.8955593l2.0696716-5.8955593v-0.0059795
									c0.0044861-0.0089722,0.0089722-0.0229244,0.0134583-0.0408669
									c0.0134583-0.0269108,0.0179443-0.0378742,0.0179443-0.0378742s0.0064697-0.0039864,0.0159454-0.0219288
									c0.0353851-0.0717621,0.0802307-0.1345558,0.1335602-0.1873817c0.0583038-0.0588055,0.1250916-0.107645,0.2013397-0.1475124
									c0.0174408-0.0089703,0.0244141-0.0139542,0.0244141-0.0139542l0.0289001-0.0129585
									c0.0224304-0.0089703,0.0358887-0.0139523,0.0403748-0.0139523c-0.0044861,0-0.0025024-0.0019951,0.0064697-0.0059814
									c-0.0044861,0.0039864,0.0044861,0.0019932,0.0269165-0.0069771
									c0.0179443-0.0049839,0.0314026-0.0089703,0.0314026-0.0089703
									c0.0179291-0.0049839,0.0313873-0.0069771,0.0488281-0.0109634
									c0.0134583-0.0049839,0.0249176-0.0069771,0.0338898-0.0069771s0.0244141-0.0019932,0.0468445-0.0069771
									c0.0134583,0,0.0244293,0,0.0333862,0h0.073761c0.0134583,0,0.0289001,0.0029907,0.0468445,0.0069771h0.0333862
									c0,0,0.0244293,0.0019932,0.0468597,0.0069771l0.0269012,0.0059795
									c0.0134583,0.0049839,0.0314026,0.0089703,0.053833,0.0139542l0.0064697,0.0069771h0.0134583v0.0059814h0.006485
									c0.0089569,0.004982,0.0224152,0.0119591,0.0403595,0.0199337l0.0333862,0.0069771l0.0269165,0.0199337
									c0.0712585,0.035881,0.1360474,0.0827274,0.1943512,0.1415329c0.0533295,0.0528259,0.098175,0.1136265,0.1340637,0.1804066
									l0.0134583,0.0338879l0.0129547,0.0269108c0.0089722,0.0219269,0.0159454,0.0378742,0.0204315,0.0468464v0.0059795
									l2.0701752,5.8955593l2.0701752-5.8955593c0.0712585-0.2053223,0.2053223-0.356823,0.4016724-0.4554977
									c0.1963501-0.0936909,0.2950287-0.1405373,0.2950287-0.1405373S149.0471802,16.1553955,149.2569885,16.2271595z"/>
							</g>
						</g>
					</g>
					<g>
						<g>
							<g>
								<path style="&st3;" d="M151.3610382,25.7387962c-0.160965-0.0677776-0.275589-0.1823997-0.3438568-0.3438663
									c-0.0642853-0.1614685-0.0642853-0.3219395,0-0.4834061l0.682251-1.6385975v-0.0049839l1.9764862-4.7692738
									c0.0069733-0.0179405,0.0159454-0.035881,0.0269012-0.0538216l0.0104675-0.0269108
									c0.0109711-0.0139542,0.0179443-0.0229244,0.0179443-0.0229244s0.0089722-0.0159473,0.019928-0.030899
									c0.0104675-0.0099659,0.0179443-0.0179405,0.0179443-0.0179405l0.0194397-0.0249176
									c0.0144501-0.0139542,0.0214233-0.0229244,0.0214233-0.0229244s0.0109711-0.0129566,0.0214386-0.0199337
									c0.0144501-0.0139542,0.0234222-0.0209312,0.0269012-0.0209312c-0.003479,0,0.0034943-0.0059814,0.0214386-0.0169449
									c0.0144501-0.0099678,0.0234222-0.0179405,0.0269012-0.0209312l0.0214386-0.0159473
									c0.0179291-0.0109634,0.0289001-0.016943,0.0289001-0.016943c0.0104675-0.0029907,0.0234222-0.0079746,0.0413666-0.0159473
									c0.0174408-0.0099678,0.0229187-0.0139542,0.0159454-0.0099678c0,0,0,0,0.0214233-0.0109634
									c0.0179443-0.0039883,0.0304108-0.0069771,0.037384-0.0109634c0,0,0.016449-0.0039883,0.0378723-0.0109653
									l0.0214233-0.0049839c0,0,0.0194397-0.0019932,0.037384-0.0059795l0.0269165-0.0049839c0,0,0.0144501,0,0.0323792,0
									c0.0144653,0,0.0234375,0,0.0269165,0c0,0,0.0179443,0,0.0323944,0h0.0318909l0.0323944,0.0049839l0.0269165,0.0059795
									c0.0069733,0,0.0194397,0.0029907,0.0373688,0.0109653c0.0214386,0.0029888,0.0289154,0.0049839,0.0214386,0.0049839
									c0.0428619,0.0109634,0.0822296,0.0269108,0.118103,0.047842c0,0,0.0034943,0,0.0214386,0.0109634
									c0.0179291,0.0109634,0.0289001,0.0179405,0.0289001,0.0179405l0.0249176,0.0199337
									c0.0144501,0.0109653,0.0234222,0.0179405,0.0269165,0.0219288c0,0,0.0109558,0.0049839,0.0214233,0.0159473
									c0.0109711,0.0099659,0.019928,0.0179405,0.0269165,0.0209312c0,0,0.0054779,0.0109634,0.0159454,0.0219269
									c0.0144501,0.0139542,0.0219269,0.0229244,0.0219269,0.0229244l0.0159454,0.0249176
									c0.0144501,0.0149517,0.0214233,0.023922,0.0214233,0.023922s0.0054932,0.0159473,0.0159607,0.0299015
									c0.0109558,0.0149498,0.0164337,0.0239201,0.0164337,0.0239201
									c0.0104675,0.0209312,0.0194397,0.0388718,0.0269165,0.0568123l1.9759827,4.7692738v0.0049839l0.682251,1.6385975
									c0.0642853,0.1614666,0.0642853,0.3219376,0,0.4834061c-0.0677795,0.1614666-0.1824036,0.2760887-0.3438721,0.3438663
									c-0.0787354,0.0318947-0.1589661,0.047842-0.2416992,0.047842c-0.2825623,0-0.4779205-0.1305695-0.5850677-0.3917084
									l-0.5157928-1.2458916h-3.1097565l-0.5152893,1.2458916c-0.1076508,0.2611389-0.3025055,0.3917084-0.5855713,0.3917084
									c-0.0822296,0-0.1235962,0-0.1235962,0S151.4397888,25.7706909,151.3610382,25.7387962z M155.2925873,22.8862019
									l-1.0365906-2.4917831l-1.0310974,2.4917831H155.2925873z"/>
							</g>
						</g>
					</g>
					<g>
						<g>
							<g>
								<path style="&st3;" d="M159.6965637,18.0850334c0.175415,0,0.3239288,0.0627937,0.4455261,0.1883793
									c0.1255798,0.1215992,0.188385,0.2701092,0.188385,0.4455299v5.8008728h2.8411255
									c0.175415,0,0.3254242,0.0617962,0.4510193,0.1873817c0.1215973,0.1215992,0.1823883,0.2701092,0.1823883,0.4455299
									c0,0.1754227-0.060791,0.3249302-0.1823883,0.4465275c-0.1255951,0.1245899-0.2756042,0.1873837-0.4510193,0.1873837
									h-3.4750366c-0.1754303,0-0.3239441-0.0627937-0.4460297-0.1873837
									c-0.1250916-0.1215973-0.1878815-0.2711048-0.1878815-0.4465275v-6.4337845
									c0-0.1754208,0.0627899-0.3239307,0.1878815-0.4455299
									C159.3726196,18.1478271,159.5211334,18.0850334,159.6965637,18.0850334z"/>
							</g>
						</g>
					</g>
					<g>
						<g>
							<g>
								<path style="&st3;" d="M165.8517609,18.0850334c0.1754303,0,0.3239288,0.0627937,0.4455261,0.1883793
									c0.1255951,0.1215992,0.188385,0.2701092,0.188385,0.4455299v5.8008728h2.8411255
									c0.1754303,0,0.3254395,0.0617962,0.4510193,0.1873817c0.1215973,0.1215992,0.1824036,0.2701092,0.1824036,0.4455299
									c0,0.1754227-0.0608063,0.3249302-0.1824036,0.4465275c-0.1255798,0.1245899-0.275589,0.1873837-0.4510193,0.1873837
									h-3.4750366c-0.175415,0-0.3239288-0.0627937-0.4460297-0.1873837
									c-0.1250916-0.1215973-0.1878815-0.2711048-0.1878815-0.4465275v-6.4337845
									c0-0.1754208,0.0627899-0.3239307,0.1878815-0.4455299
									C165.527832,18.1478271,165.6763458,18.0850334,165.8517609,18.0850334z"/>
							</g>
						</g>
					</g>
					<g>
						<g>
							<g>
								<path style="&st3;" d="M175.8786926,24.513834c0.1754303,0,0.3239441,0.0627937,0.4460297,0.1883793
									c0.1250916,0.1255856,0.1878815,0.2750931,0.1878815,0.4505138c0,0.1754227-0.0627899,0.3249302-0.1878815,0.4465275
									c-0.1220856,0.1245899-0.2705994,0.1873837-0.4460297,0.1873837h-3.8881683
									c-0.1754303,0-0.3244324-0.0627937-0.4460297-0.1873837c-0.1250916-0.1215973-0.1878815-0.2711048-0.1878815-0.4465275
									v-6.4387684c0-0.1794071,0.0627899-0.3299122,0.1878815-0.4515095
									c0.1215973-0.1255875,0.2705994-0.1883793,0.4460297-0.1883793h0.0049744l3.883194,0.0109634
									c0.1754303,0,0.3259277,0.0627937,0.4510193,0.1883793c0.1221008,0.124588,0.1828918,0.2750931,0.1828918,0.4505138
									c0,0.1754227-0.0627899,0.3249283-0.1878815,0.4465275c-0.1220856,0.1245899-0.2705994,0.1873817-0.4460297,0.1873817
									h-0.0054779l-3.2438049-0.0109634v1.9495716h2.3417816c0.175415,0,0.3259277,0.0617962,0.4510193,0.1833954
									c0.1255798,0.1245899,0.1878662,0.2750931,0.1878662,0.4505138c0,0.1754227-0.0622864,0.3259258-0.1878662,0.4515114
									c-0.1250916,0.1215992-0.2756042,0.1823978-0.4510193,0.1823978h-2.3417816v1.9495716H175.8786926z"/>
							</g>
						</g>
					</g>
					<g>
						<g>
							<g>
								<path style="&st3;" d="M179.6701965,19.3418884h-1.5952454c-0.175415,0-0.3254242-0.0627918-0.451004-0.1883774
									c-0.1215973-0.1215992-0.1824036-0.2701111-0.1824036-0.4455318s0.0608063-0.3239326,0.1824036-0.4455299
									c0.1255798-0.1255875,0.275589-0.1883793,0.451004-0.1883793h4.4632874c0.171936,0,0.3204498,0.0627918,0.4460297,0.1883793
									c0.1215973,0.1215973,0.1824036,0.2701092,0.1824036,0.4455299s-0.0608063,0.3239326-0.1824036,0.4455318
									c-0.1255798,0.1255856-0.2740936,0.1883774-0.4460297,0.1883774h-1.6002197v5.8108387
									c0,0.1754227-0.0627899,0.3259258-0.188385,0.4515114c-0.1215973,0.1215992-0.2701111,0.1823997-0.4455261,0.1823997
									c-0.1754303,0-0.3239288-0.0608006-0.4460297-0.1823997c-0.1250916-0.1255856-0.1878815-0.2760887-0.1878815-0.4515114
									V19.3418884z"/>
							</g>
						</g>
					</g>
				</g>
			</g>
		</g>
	</g>
</g>
</svg>
