<?xml version="1.0" encoding="utf-8"?>
<!-- Generator: Adobe Illustrator 21.0.0, SVG Export Plug-In . SVG Version: 6.00 Build 0)  -->
<!DOCTYPE svg PUBLIC "-//W3C//DTD SVG 1.1//EN" "http://www.w3.org/Graphics/SVG/1.1/DTD/svg11.dtd" [
	<!ENTITY ns_extend "http://ns.adobe.com/Extensibility/1.0/">
	<!ENTITY ns_ai "http://ns.adobe.com/AdobeIllustrator/10.0/">
	<!ENTITY ns_graphs "http://ns.adobe.com/Graphs/1.0/">
	<!ENTITY ns_vars "http://ns.adobe.com/Variables/1.0/">
	<!ENTITY ns_imrep "http://ns.adobe.com/ImageReplacement/1.0/">
	<!ENTITY ns_sfw "http://ns.adobe.com/SaveForWeb/1.0/">
	<!ENTITY ns_custom "http://ns.adobe.com/GenericCustomNamespace/1.0/">
	<!ENTITY ns_adobe_xpath "http://ns.adobe.com/XPath/1.0/">
	<!ENTITY Drop_x0020_Shadow "fill:none;">
	<!ENTITY Outer_x0020_Glow_x0020_5_x0020_pt "fill:none;">
	<!ENTITY Jive_GS "fill:#A6D0E4;">
	<!ENTITY st0 "fill:#EE9918;">
	<!ENTITY st1 "fill:#FFFFFF;">
	<!ENTITY st2 "fill:#D08A29;">
	<!ENTITY st3 "fill:url(#SVGID_1_);">
	<!ENTITY st4 "fill:none;">
	<!ENTITY st5 "fill:none;stroke:#D08A29;stroke-width:0.5;stroke-miterlimit:10;">
	<!ENTITY st6 "fill:none;stroke:#FFFFFF;stroke-miterlimit:10;">
]>
<svg version="1.1" id="Layer_1" xmlns:x="&ns_extend;" xmlns:i="&ns_ai;" xmlns:graph="&ns_graphs;"
	 xmlns="http://www.w3.org/2000/svg" xmlns:xlink="http://www.w3.org/1999/xlink" x="0px" y="0px" viewBox="0 0 40 35"
	 style="enable-background:new 0 0 40 35;" xml:space="preserve">
<metadata><?xpacket begin="﻿" id="W5M0MpCehiHzreSzNTczkc9d"?>
<x:xmpmeta xmlns:x="adobe:ns:meta/" x:xmptk="Adobe XMP Core 5.6-c137 79.159768, 2016/08/11-13:24:42        ">
   <rdf:RDF xmlns:rdf="http://www.w3.org/1999/02/22-rdf-syntax-ns#">
      <rdf:Description rdf:about=""
            xmlns:dc="http://purl.org/dc/elements/1.1/"
            xmlns:xmp="http://ns.adobe.com/xap/1.0/"
            xmlns:xmpGImg="http://ns.adobe.com/xap/1.0/g/img/"
            xmlns:xmpMM="http://ns.adobe.com/xap/1.0/mm/"
            xmlns:stRef="http://ns.adobe.com/xap/1.0/sType/ResourceRef#"
            xmlns:stEvt="http://ns.adobe.com/xap/1.0/sType/ResourceEvent#"
            xmlns:illustrator="http://ns.adobe.com/illustrator/1.0/"
            xmlns:xmpTPg="http://ns.adobe.com/xap/1.0/t/pg/"
            xmlns:stDim="http://ns.adobe.com/xap/1.0/sType/Dimensions#"
            xmlns:stFnt="http://ns.adobe.com/xap/1.0/sType/Font#"
            xmlns:xmpG="http://ns.adobe.com/xap/1.0/g/"
            xmlns:pdf="http://ns.adobe.com/pdf/1.3/">
         <dc:format>image/svg+xml</dc:format>
         <dc:title>
            <rdf:Alt>
               <rdf:li xml:lang="x-default">Basic RGB</rdf:li>
            </rdf:Alt>
         </dc:title>
         <xmp:CreatorTool>Adobe Illustrator CC 2017 (Windows)</xmp:CreatorTool>
         <xmp:CreateDate>2018-02-12T15:55:51-08:00</xmp:CreateDate>
         <xmp:ModifyDate>2018-02-12T15:55:51-08:00</xmp:ModifyDate>
         <xmp:MetadataDate>2018-02-12T15:55:51-08:00</xmp:MetadataDate>
         <xmp:Thumbnails>
            <rdf:Alt>
               <rdf:li rdf:parseType="Resource">
                  <xmpGImg:width>168</xmpGImg:width>
                  <xmpGImg:height>256</xmpGImg:height>
                  <xmpGImg:format>JPEG</xmpGImg:format>
                  <xmpGImg:image>/9j/4AAQSkZJRgABAgEASABIAAD/7QAsUGhvdG9zaG9wIDMuMAA4QklNA+0AAAAAABAASAAAAAEA&#xA;AQBIAAAAAQAB/+4ADkFkb2JlAGTAAAAAAf/bAIQABgQEBAUEBgUFBgkGBQYJCwgGBggLDAoKCwoK&#xA;DBAMDAwMDAwQDA4PEA8ODBMTFBQTExwbGxscHx8fHx8fHx8fHwEHBwcNDA0YEBAYGhURFRofHx8f&#xA;Hx8fHx8fHx8fHx8fHx8fHx8fHx8fHx8fHx8fHx8fHx8fHx8fHx8fHx8fHx8f/8AAEQgBAACoAwER&#xA;AAIRAQMRAf/EAaIAAAAHAQEBAQEAAAAAAAAAAAQFAwIGAQAHCAkKCwEAAgIDAQEBAQEAAAAAAAAA&#xA;AQACAwQFBgcICQoLEAACAQMDAgQCBgcDBAIGAnMBAgMRBAAFIRIxQVEGE2EicYEUMpGhBxWxQiPB&#xA;UtHhMxZi8CRygvElQzRTkqKyY3PCNUQnk6OzNhdUZHTD0uIIJoMJChgZhJRFRqS0VtNVKBry4/PE&#xA;1OT0ZXWFlaW1xdXl9WZ2hpamtsbW5vY3R1dnd4eXp7fH1+f3OEhYaHiImKi4yNjo+Ck5SVlpeYmZ&#xA;qbnJ2en5KjpKWmp6ipqqusra6voRAAICAQIDBQUEBQYECAMDbQEAAhEDBCESMUEFURNhIgZxgZEy&#xA;obHwFMHR4SNCFVJicvEzJDRDghaSUyWiY7LCB3PSNeJEgxdUkwgJChgZJjZFGidkdFU38qOzwygp&#xA;0+PzhJSktMTU5PRldYWVpbXF1eX1RlZmdoaWprbG1ub2R1dnd4eXp7fH1+f3OEhYaHiImKi4yNjo&#xA;+DlJWWl5iZmpucnZ6fkqOkpaanqKmqq6ytrq+v/aAAwDAQACEQMRAD8A9U4q7FXYq7FXYq7FXYq7&#xA;FXYq7FWOS+U53uJJor76vIfX4zwoyTn13D/vXWQc+AHFRTbbwGa6WhJJIlR33HPc9Te9cg5g1Qqi&#xA;L5e7bu2UG8mam9xJM2tS0ldZXhVHWMyK0bK1BLXb0qda0yB7PmST4h338r28/JmNZGq4Pxv5eapc&#xA;eU9UmsrKA63MJrRJAbmj82d+QV/70bqGpvU+BGSnoZyjEeIbje+/z5/jyYx1URIngFHp+AqzeXda&#xA;lmdl1iSJfRSFCPUapCBXkZRIiq1QSKdzUk9MlLSZSfrI2rr3c+aBqIAfT1/HRSj8p6sqUbXrmSTc&#xA;K7GUUB5mvFZVBYcxStRt0p0gNDkA/vJfb5/0vxXJJ1UP5g+z9SrP5Z1OUWg/TVxGkClJ0QyD1ayc&#xA;/tepzFF+AEsWp361nLRzPD+8ltz577++/LvYjUxF+gb/AGfYs1LyrqV6WX9MSxxOiI8XF2VuMRjb&#xA;kDLx+Inkdv64M2inP+M18e6u/wCKceqjH+Efg+5cnlfUfQuop9Ve5S4h9JY5FdkVhIX5UeVydvh+&#xA;WI0U6IM7sV17/eVOpjYIjVH8dFXQPLT6VdSztcCb1I0joE4n4FVdzU9OO3zyel0ZxSJu7DHPqPEA&#xA;FJ7mc4rsVdirsVdirsVdirsVdirsVdirsVdirsVdirsVdirsVdirsVdirsVdirsVdirsVdirsVdi&#xA;rsVdirsVdirsVdirsVdirsVdirsVdirsVdirsVdirsVdirsVdirsVdirsVdirsVdirsVdirsVdir&#xA;sVdirsVdirsVdirsVdirsVdirsVdirsVdirsVY9d6V5m/St3dWV6I4pmj9JJJWZFjWNVZRC0TKrF&#xA;wW5Btxtt1zXzwZvElKMtjXXpXdXf5uXHLi4AJDl5fptDyaX57VSbbU4leRlZxKVkCgR8SFIgXq2/&#xA;QD8crOHVfwzHx36f1WYy4OsT+P8AOXC388m/MS3SLbRSQn1pFjIliFfUHwpy5nbsB4Uw8Oq46vYE&#xA;b7bjr05/JeLBw3W+/fsWQgXRdviULX4aqT+ojtT6a5sPU4ey7jc/78T/AIA/81Yal3/j5rs7jc/7&#xA;8T/gD/zVjUu/8fNdncbn/fif8Af+asal3/j5rs7jc/78T/gD/wA1Y1Lv/HzXZtVnqOTqR3AUg/8A&#xA;EjiLRsvySHYq7FXYq7FXYq7FXYq7FXYq7FXYq7FXYq7FXYq7FXYq7FXYq7FXYq7FXYq7FXYq7FXY&#xA;q7FXYq7FXYq7FXYq7FXYq7FXYq7FXYq7FXYq7FXYq7FXYq7FXYq7FXYq7FXYq7FXYq7FXYq7FXYq&#xA;7FXYq7FXYq7FXYq7FXYq7FXYq7FXYq7FXYq7FXYq7FXYq7FXYq7FXYq7FXYq7FXYq7FXYq7FXYq7&#xA;FXYq7FXYq7FXYq7FXYq7FXYq7FXYq03LieJo1NidxXEqpIt0B8UiV91JP3gr+rIAS72RIXcbn/fi&#xA;f8Af+asNS7/x812dxuf9+J/wB/5qxqXf+PmuzgtxXd0p3+A/81Y0UbKmSQ7FXYq7FXYq7FXYq7FX&#xA;Yq7FXYq7FXYqtMkYcIWAc9FqK/dgsck0uwodirsVdirsVdirsVdirsVdirsVdirsVdirsVdirsVd&#xA;irsVQ2pSyxWUjRNwkNEV9jxLsF5b7fDWuVZpERNM8YBlu87l8xwvfVi06WNbdmiuIJA8qyGvxGUe&#xA;jy9T3Lmmczl1cjO4wPp2IO9+/wBPPzt3MdP6d5c/h8t+XwZ1pV8DbcZS4CNxRpft8SqsA5O9V58D&#xA;XfbfOh0+X0738f0+66dVlhvt+PxzTFJYpK8HV6deJB/VmSJA8mkghdhQ7FXYq7FXYq7FXYq7FXYq&#xA;7FXYq7FXYq7FXYq7FXYqtlijlieKRQ0cgKup6EEUIwSiCKKQaNhJv8NcdTXUI7jjcKhi9YoTIy9A&#xA;XIYI7KNlLIfeuYf5P18YO/Lz++j8Q5H5n08JG34/HNNra2it4VijBotTyY1YsxqzEnqSTU5lQgIi&#xA;g0SkSbXvFG9OaBqdOQB/XkjEHmgEhb9Wh/ZXh7ISn/ESMHAE8Rd6JH2ZHUeFQ34sGOPD5rbuE42E&#xA;gI8WWp/AqPwxo962FrzSR0DmPfozOUr9BB/XgMiOdKACtW7LMFEMhJ/aUDh8wxI2wDJ5FPD5ojLG&#xA;DsVdirsVdirsVdirsVdirsVdirsVUL69gsbOa8uDxhgQySEbmiiu3vkMuQQiZHkGUIGUgBzLzKb8&#xA;2tZ+tlorSBbWvwxOHL8fdww3+jOZl27k4tojhd2OyoVuTb0LRtfstU0uDUIz6aTAhkY/YZTxZSfn&#xA;3zoNPqo5YCY2t1GbBKEjHuR31hD9gM9enFTQ/JjRfxy/jDXwu5zn7MQA/wAtqH/hQ2NnuWg7hOft&#xA;SAD/ACFof+GLfqxo962Hegp+2zOe9WND81FF/DHhXiXJFGleCBa9eIA/VhEQOSCSV2FDsVdirsVd&#xA;irsVdirsVdirsVdirsVdiqC1vTv0lpF3YB+DXEbIrnoGPQn2rlGpw+JjlDvDbhycExLueMz+UfNc&#xA;d01s2nTu5onNE5RkClP3g+D9nxzjpaDOJcPCf0fPk9GNXiIviD1byh5fOkaHb2tyFe6UtLIdiFdz&#xA;Win2oM6rQaXwsQjL6ubodXn8SZI5J7mc4rsVdirsVdirsVdirsVdirsVdirsVdirsVdirsVdirsV&#xA;dirsVdirsVdirsVdirsVdirsVdirsVdirsVdirsVdirTcuJ4kBqfCTuK+/TAVY9Fd350u9mvL+VJ&#xA;bO5lj520cIL0oEjVZEl6s1F7++a+OSfBIykbjI8gPluC5hhHiAEeY63+sL0l1y1vdFhu7tZFnEi3&#xA;i+mgLSLC8hqwAFFIAHED3yQlljLGJS53e3kT+KQRCUZkDly+aXXOs6vDN6K3pma6WBrdolgYP6kw&#xA;V/qjUK8QrUHrnrv0zHnqMgNcV8VVXD1P8P8Ax5ujhgRdcr7+7+L/AI62nmXVFt9yJDYF5tSLGOOY&#xA;xCZ4kjACPGz0T4+NB2U74jWTr+rZlyurIA5Ve29fAoOnjf8AW5d3K/fXd9qZWd1qaa8Ybuf1Le59&#xA;drRIniZFWJgKOvpLICK9fUYV2zJxzmMtSNg3VV07/Tf2lpnGPh2BuKvn+uvsS9dc1y1vbpLhWlaF&#xA;KSI/oi3WWeZY7URvH8YVg1X9Tem+Y41OWMiDvXuqyajRG/vtu8HHKIrr772Hq/ZSZWuoTvo919eu&#xA;XtbmykMVzcw+nJVlCv8Au+UXEhg4UDhXt1zJhlJxniPCYmiRR+W36PtaZYwJjhFiXIfr3/SlGoX/&#xA;AJgsUtPWu7s+vFdXEipHaNJEsfpemJKxhSEDkvxFfDpmJly5ocNyluJHlGxVVe3TrTfjhjldAbED&#xA;+Lz8/krweYdXtrm7S6C3YPowWfor8P1praKThyH7EjSEhj0AOTjqskZSEvVyAr+dwg/I2xlggQK2&#xA;5k+6z91J15duLu40iCW8kEtyTIskgUKCUkZdgOnTMzSTlLGDI2d/vcbURAmQOX7ExzJaXYq7FXYq&#xA;7FXYq7FXYq7FXYq4gEUPTFUJb6PpFtUW9jbw1ZXPpxIlWSpRtgN1rt4ZTDT448oxHwDZLNM8yT8V&#xA;1xpmm3M6XFxaQzTxU9OWSNWdaGo4sQSKHfJTwwkbMQSPJEckgKBICwaNo4SZBY24S4NZ19JKSEGt&#xA;XFPi38cj+Xx7jhjvz2G6fGntudvNv9EaUBABZQUtv95h6Sfu6mvwbfDv4YfAx7ekbctuXuXxZ77n&#xA;fnu4aRpQaVhZQBp6eufSSr0PIc9vi333x8DHv6Rvz25r4s9tzt5qpsrMxyxmCMx3BLTpwXi5YUJc&#xA;U+KvvkvDjRFDfn5seM7G+Sw6XphtBZm0hNmNxbGNPT61+xTj1yPgw4eHhHD3VsnxZXxWb71tvpWl&#xA;Wm9tZwQU5bxxolA1OX2QOvEV+WMMGOP0xA+CZZZy5klUtLayt4yLSGOGNqVWJQgJACioUDoFAyWO&#xA;EYj0gD3MZykTubctjboR6a+morRI/gFSan7NDuTWnSu/XAMYHLZPGV/1ePxf/g3/AK5LgH4KOJwg&#xA;QGtX2/y3/rjwhHEqZJDsVdirsVdirsVdirsVdirsVdirsVdirsVdirsVcQCCCKg7EHFVP6rbf76U&#xA;nuSAT95yPBHuZcRd9Wtv99J/wIx4I9y8R73fVrb/AH0n/AjHgj3LxHvcLe3BqIkBHQ8RjwDuRxFU&#xA;ySHYq7FXYq7FXYq7FXYq7FXYq7FXYq7FXYq7FXYq7FXYq7FXYq7FXYq7FXYq7FXYq7FXYq7FXYq7&#xA;FXYq7FXYq7FXYq7FVsqM6FVbifEf2UOCQsJBWCGQAD13NO9E/wCacHCe/wC5N+TfpSf7+f7k/wCa&#xA;ceE9635O9KT/AH8/3J/zTjwnvW/JwicGvrOfaif8048J70X5KmSQ7FXYq7FXYq7FXYq7FXYq7FXY&#xA;q7FXYq7FXYq7FXYq7FXYq7FXYq7FXYq7FXYq7FXYq7FXYq7FXYq7FXYq7FXYqsliEicSSB12p/Go&#xA;wSjaQaa+rx+L/wDIx/64OAfglPE76vH4v/wb/wBceAfgrxO+rx+L/wDBv/XHgH4K8Tvq8fi//Bv/&#xA;AFx4B+CvE76vH4v/AMG/9ceAfgrxOECA1q+3+W/9ceEI4lTJIdirsVdirsVdirsVdirsVdirsVdi&#xA;rsVdiqyVnVKovI+GCRPRIa5XP++0/wCDP/NOC5d34+Sdncrn/faf8Gf+acbl3fj5Ls7lc/77T/gz&#xA;/wA043Lu/HyXZ3K5/wB9p/wZ/wCacbl3fj5Ls7lc/wC+0/4M/wDNONy7vx8l2cGuK7olO/xn/mnG&#xA;yjZUySHYq7FXYq7FXYq7FXYq7FXYq7FXYq7FXYq7FXYq7FXYq7FXYq7FXYq7FXYq7FXYq7FXYq7F&#xA;XYq7FXYq7FXYq7FVIwyGUuJmVT0UU9vGuQ4TfNle3Jv0pP8Afz/cn/NOHhPet+TvSk/38/3J/wA0&#xA;48J71vyd6Un+/n+5P+aceE9635O9KT/fz/cn/NOPCe9b8nelJ/v5/uT/AJpx4T3rfk4RODX1nPtR&#xA;P+aceE96L8lTJIdirsVdirsVdirsVdirsVdirsVdirsVdirsVUUe8I+KNAf9Yj9QbIAy7mRAXcrn&#xA;/faf8Gf+acNy7vx8l2dyuf8Afaf8Gf8AmnG5d34+S7O5XP8AvtP+DP8AzTjcu78fJdncrn/faf8A&#xA;Bn/mnG5d34+S7ODXFd0Snf4z/wA042UbKmSQ7FXYq7FXYq7FXYq7FXYq7FXYq8+83+ate0/XZrWz&#xA;uvSgRUKp6cbULICd2UnOO7X7V1GHUGEJVEV0Hd5h6Hs/Q4smISkLO/UrZ/M2vx6It4t1c+uwQ82g&#xA;i9Lc0O/pAU8PiwT7T1AwCfFPi2/hjw/7n9KY6LCcvDUa/rG/90k/+OvNX/Ld/wAkof8AmjNb/Lur&#xA;/n/7GP6nL/kzT/zftP60zbzH5tXS/rP1m4a5JqU+qxiNIgCS5f0yG/CmZ57R1gxcXFLi/qCgO++H&#xA;f7HGGk05ycNR4f6xu+6rRfkzzTrV/qzw39z60Cws/AJGvxAqBuqqe+ZHYvamfNm4ckrjwnoPLuDT&#xA;2josWPHcBRvvLOBcxkVAen+o5/UM6rjDo+Et/WI/B/8AgH/ph4x+AvC76xH4P/wD/wBMeMfgLwu+&#xA;sR+D/wDAP/THjH4C8LhOhNKPv/kP/THiCOFUySHYq7FXYq7FXYq7FXYq7FXYq7FUPNp2nzyGSa1h&#xA;lkPV3jViae5GUz0+ORuUYk+4Nkc04igSPipnSdHUFmsrcAbkmJKAfdkPymH+ZH5Bl+YyfzpfMsXm&#xA;85fl9Fd/V/QjdQeJnS3Uxj6aVI+QzWS1miEq4Y+/hFOcNNqSLs/Nktvp+h3ECTwWttJDKoZHWNCG&#xA;U7jtmyhpsEhYjGj5BwpZsoNGUr95REGn2ED84LaKJyKckRVND2qBlkNPjgbjGIPkAwllnIUST8Vf&#xA;Lmt2KuxV2KuxV2KuxV2KuxV2KuxV2KuxV2KuxV2KuxVLPNEF1P5e1CG1BM7wOEVep23UU8RtmNrY&#xA;ylhkI86b9NIDJEnlb5ivT5++sXQs0076sJB9UMpm9QxlSDyoOIZTQ969NuucfD8vQ4uK+vJ6KXjW&#xA;a4afQ35fWt8nlK1WVjEWd5IQeojYnj+PxDxzpeyoSGnF7fq/G7pNfKJzGmTelJ/v5/uT/mnNlwnv&#xA;cO/J3pSf7+f7k/5px4T3rfk70pP9/P8Acn/NOPCe9b8nelJ/v5/uT/mnHhPet+TvSk/38/3J/wA0&#xA;48J71vycInBr6zn2on/NOPCe9F+SpkkOxV2KuxV2KuxV2KuxV2KuxV2KuxVZcTw28Ek87iOGJS8j&#xA;noFUVJyMpCIJPIJjEk0Oby+788eU5NUNx/h6OZedTcsUV23+0Y+BUn5tnM5O0tOZ34QPn+yneQ0W&#xA;URrjryek6ZqNnqVhDe2bc7eZaoaUIpsQR2IIpnR4c0ckBKPIulyYzCRieaKy1g7FXYq7FXYq7FXY&#xA;q7FXYq7FXYq7FXYq7FXYq7FXYq7FUr806XNqvl3UdNgcxzXUDxxup4kMRtQ9vnlGpxmeMxHOm3BM&#xA;RmCeT5iH5bX1rqEUNxrGsNc2wMKQPKFk4kUKVRFY1Kqfem9c5OepkCY+HES93V38cAIEuORHvfQ/&#xA;5eeWrzRvJtjpt9NLJcxjnJJMwMpqKDmRT4qfEfBs6TQ4JRxVIcJJJruvo6bVZQZ7b0KvvZN9Xj8X&#xA;/wCDf+uZvAPwXG4nfV4/F/8Ag3/rjwD8FeJ31ePxf/g3/rjwD8FeJ31ePxf/AIN/648A/BXid9Xj&#xA;8X/4N/648A/BXicIEBrV9v8ALf8ArjwhHEqZJDsVdir/AP/Z</xmpGImg:image>
               </rdf:li>
            </rdf:Alt>
         </xmp:Thumbnails>
         <xmpMM:OriginalDocumentID>uuid:9E3E5C9A8C81DB118734DB58FDDE4BA7</xmpMM:OriginalDocumentID>
         <xmpMM:DocumentID>xmp.did:14f5609e-335c-aa4c-b01a-5daf13fb0ebb</xmpMM:DocumentID>
         <xmpMM:InstanceID>xmp.iid:14f5609e-335c-aa4c-b01a-5daf13fb0ebb</xmpMM:InstanceID>
         <xmpMM:RenditionClass>proof:pdf</xmpMM:RenditionClass>
         <xmpMM:DerivedFrom rdf:parseType="Resource">
            <stRef:instanceID>xmp.iid:247e8f77-4459-b94b-8790-81da3626ba2e</stRef:instanceID>
            <stRef:documentID>xmp.did:247e8f77-4459-b94b-8790-81da3626ba2e</stRef:documentID>
            <stRef:originalDocumentID>uuid:9E3E5C9A8C81DB118734DB58FDDE4BA7</stRef:originalDocumentID>
            <stRef:renditionClass>proof:pdf</stRef:renditionClass>
         </xmpMM:DerivedFrom>
         <xmpMM:History>
            <rdf:Seq>
               <rdf:li rdf:parseType="Resource">
                  <stEvt:action>saved</stEvt:action>
                  <stEvt:instanceID>xmp.iid:29d1a69e-f842-4e46-a0e0-9d6711be85d8</stEvt:instanceID>
                  <stEvt:when>2018-02-12T15:50:59-08:00</stEvt:when>
                  <stEvt:softwareAgent>Adobe Illustrator CC 2017 (Windows)</stEvt:softwareAgent>
                  <stEvt:changed>/</stEvt:changed>
               </rdf:li>
               <rdf:li rdf:parseType="Resource">
                  <stEvt:action>saved</stEvt:action>
                  <stEvt:instanceID>xmp.iid:14f5609e-335c-aa4c-b01a-5daf13fb0ebb</stEvt:instanceID>
                  <stEvt:when>2018-02-12T15:55:51-08:00</stEvt:when>
                  <stEvt:softwareAgent>Adobe Illustrator CC 2017 (Windows)</stEvt:softwareAgent>
                  <stEvt:changed>/</stEvt:changed>
               </rdf:li>
            </rdf:Seq>
         </xmpMM:History>
         <illustrator:StartupProfile>Basic RGB</illustrator:StartupProfile>
         <xmpTPg:NPages>1</xmpTPg:NPages>
         <xmpTPg:HasVisibleTransparency>False</xmpTPg:HasVisibleTransparency>
         <xmpTPg:HasVisibleOverprint>False</xmpTPg:HasVisibleOverprint>
         <xmpTPg:MaxPageSize rdf:parseType="Resource">
            <stDim:w>40.000000</stDim:w>
            <stDim:h>35.000000</stDim:h>
            <stDim:unit>Pixels</stDim:unit>
         </xmpTPg:MaxPageSize>
         <xmpTPg:Fonts>
            <rdf:Bag>
               <rdf:li rdf:parseType="Resource">
                  <stFnt:fontName>Lato-Regular</stFnt:fontName>
                  <stFnt:fontFamily>Lato</stFnt:fontFamily>
                  <stFnt:fontFace>Regular</stFnt:fontFace>
                  <stFnt:fontType>TrueType</stFnt:fontType>
                  <stFnt:versionString>Version 2.015; 2015-08-06; http://www.latofonts.com/</stFnt:versionString>
                  <stFnt:composite>False</stFnt:composite>
                  <stFnt:fontFileName>Lato-Regular_0.ttf</stFnt:fontFileName>
               </rdf:li>
               <rdf:li rdf:parseType="Resource">
                  <stFnt:fontName>Lato-Bold</stFnt:fontName>
                  <stFnt:fontFamily>Lato</stFnt:fontFamily>
                  <stFnt:fontFace>Bold</stFnt:fontFace>
                  <stFnt:fontType>TrueType</stFnt:fontType>
                  <stFnt:versionString>Version 2.015; 2015-08-06; http://www.latofonts.com/</stFnt:versionString>
                  <stFnt:composite>False</stFnt:composite>
                  <stFnt:fontFileName>Lato-Bold_0.ttf</stFnt:fontFileName>
               </rdf:li>
            </rdf:Bag>
         </xmpTPg:Fonts>
         <xmpTPg:SwatchGroups>
            <rdf:Seq>
               <rdf:li rdf:parseType="Resource">
                  <xmpG:groupName>Default Swatch Group</xmpG:groupName>
                  <xmpG:groupType>0</xmpG:groupType>
                  <xmpG:Colorants>
                     <rdf:Seq>
                        <rdf:li rdf:parseType="Resource">
                           <xmpG:swatchName>White</xmpG:swatchName>
                           <xmpG:mode>RGB</xmpG:mode>
                           <xmpG:type>PROCESS</xmpG:type>
                           <xmpG:red>255</xmpG:red>
                           <xmpG:green>255</xmpG:green>
                           <xmpG:blue>255</xmpG:blue>
                        </rdf:li>
                        <rdf:li rdf:parseType="Resource">
                           <xmpG:swatchName>Black</xmpG:swatchName>
                           <xmpG:mode>RGB</xmpG:mode>
                           <xmpG:type>PROCESS</xmpG:type>
                           <xmpG:red>0</xmpG:red>
                           <xmpG:green>0</xmpG:green>
                           <xmpG:blue>0</xmpG:blue>
                        </rdf:li>
                        <rdf:li rdf:parseType="Resource">
                           <xmpG:swatchName>RGB Red</xmpG:swatchName>
                           <xmpG:mode>RGB</xmpG:mode>
                           <xmpG:type>PROCESS</xmpG:type>
                           <xmpG:red>255</xmpG:red>
                           <xmpG:green>0</xmpG:green>
                           <xmpG:blue>0</xmpG:blue>
                        </rdf:li>
                        <rdf:li rdf:parseType="Resource">
                           <xmpG:swatchName>RGB Yellow</xmpG:swatchName>
                           <xmpG:mode>RGB</xmpG:mode>
                           <xmpG:type>PROCESS</xmpG:type>
                           <xmpG:red>255</xmpG:red>
                           <xmpG:green>255</xmpG:green>
                           <xmpG:blue>0</xmpG:blue>
                        </rdf:li>
                        <rdf:li rdf:parseType="Resource">
                           <xmpG:swatchName>RGB Green</xmpG:swatchName>
                           <xmpG:mode>RGB</xmpG:mode>
                           <xmpG:type>PROCESS</xmpG:type>
                           <xmpG:red>0</xmpG:red>
                           <xmpG:green>255</xmpG:green>
                           <xmpG:blue>0</xmpG:blue>
                        </rdf:li>
                        <rdf:li rdf:parseType="Resource">
                           <xmpG:swatchName>RGB Cyan</xmpG:swatchName>
                           <xmpG:mode>RGB</xmpG:mode>
                           <xmpG:type>PROCESS</xmpG:type>
                           <xmpG:red>0</xmpG:red>
                           <xmpG:green>255</xmpG:green>
                           <xmpG:blue>255</xmpG:blue>
                        </rdf:li>
                        <rdf:li rdf:parseType="Resource">
                           <xmpG:swatchName>RGB Blue</xmpG:swatchName>
                           <xmpG:mode>RGB</xmpG:mode>
                           <xmpG:type>PROCESS</xmpG:type>
                           <xmpG:red>0</xmpG:red>
                           <xmpG:green>0</xmpG:green>
                           <xmpG:blue>255</xmpG:blue>
                        </rdf:li>
                        <rdf:li rdf:parseType="Resource">
                           <xmpG:swatchName>RGB Magenta</xmpG:swatchName>
                           <xmpG:mode>RGB</xmpG:mode>
                           <xmpG:type>PROCESS</xmpG:type>
                           <xmpG:red>255</xmpG:red>
                           <xmpG:green>0</xmpG:green>
                           <xmpG:blue>255</xmpG:blue>
                        </rdf:li>
                        <rdf:li rdf:parseType="Resource">
                           <xmpG:swatchName>R=193 G=39 B=45</xmpG:swatchName>
                           <xmpG:mode>RGB</xmpG:mode>
                           <xmpG:type>PROCESS</xmpG:type>
                           <xmpG:red>193</xmpG:red>
                           <xmpG:green>39</xmpG:green>
                           <xmpG:blue>45</xmpG:blue>
                        </rdf:li>
                        <rdf:li rdf:parseType="Resource">
                           <xmpG:swatchName>R=237 G=28 B=36</xmpG:swatchName>
                           <xmpG:mode>RGB</xmpG:mode>
                           <xmpG:type>PROCESS</xmpG:type>
                           <xmpG:red>237</xmpG:red>
                           <xmpG:green>28</xmpG:green>
                           <xmpG:blue>36</xmpG:blue>
                        </rdf:li>
                        <rdf:li rdf:parseType="Resource">
                           <xmpG:swatchName>R=241 G=90 B=36</xmpG:swatchName>
                           <xmpG:mode>RGB</xmpG:mode>
                           <xmpG:type>PROCESS</xmpG:type>
                           <xmpG:red>241</xmpG:red>
                           <xmpG:green>90</xmpG:green>
                           <xmpG:blue>36</xmpG:blue>
                        </rdf:li>
                        <rdf:li rdf:parseType="Resource">
                           <xmpG:swatchName>R=247 G=147 B=30</xmpG:swatchName>
                           <xmpG:mode>RGB</xmpG:mode>
                           <xmpG:type>PROCESS</xmpG:type>
                           <xmpG:red>247</xmpG:red>
                           <xmpG:green>147</xmpG:green>
                           <xmpG:blue>30</xmpG:blue>
                        </rdf:li>
                        <rdf:li rdf:parseType="Resource">
                           <xmpG:swatchName>R=251 G=176 B=59</xmpG:swatchName>
                           <xmpG:mode>RGB</xmpG:mode>
                           <xmpG:type>PROCESS</xmpG:type>
                           <xmpG:red>251</xmpG:red>
                           <xmpG:green>176</xmpG:green>
                           <xmpG:blue>59</xmpG:blue>
                        </rdf:li>
                        <rdf:li rdf:parseType="Resource">
                           <xmpG:swatchName>R=252 G=238 B=33</xmpG:swatchName>
                           <xmpG:mode>RGB</xmpG:mode>
                           <xmpG:type>PROCESS</xmpG:type>
                           <xmpG:red>252</xmpG:red>
                           <xmpG:green>238</xmpG:green>
                           <xmpG:blue>33</xmpG:blue>
                        </rdf:li>
                        <rdf:li rdf:parseType="Resource">
                           <xmpG:swatchName>R=217 G=224 B=33</xmpG:swatchName>
                           <xmpG:mode>RGB</xmpG:mode>
                           <xmpG:type>PROCESS</xmpG:type>
                           <xmpG:red>217</xmpG:red>
                           <xmpG:green>224</xmpG:green>
                           <xmpG:blue>33</xmpG:blue>
                        </rdf:li>
                        <rdf:li rdf:parseType="Resource">
                           <xmpG:swatchName>R=140 G=198 B=63</xmpG:swatchName>
                           <xmpG:mode>RGB</xmpG:mode>
                           <xmpG:type>PROCESS</xmpG:type>
                           <xmpG:red>140</xmpG:red>
                           <xmpG:green>198</xmpG:green>
                           <xmpG:blue>63</xmpG:blue>
                        </rdf:li>
                        <rdf:li rdf:parseType="Resource">
                           <xmpG:swatchName>R=57 G=181 B=74</xmpG:swatchName>
                           <xmpG:mode>RGB</xmpG:mode>
                           <xmpG:type>PROCESS</xmpG:type>
                           <xmpG:red>57</xmpG:red>
                           <xmpG:green>181</xmpG:green>
                           <xmpG:blue>74</xmpG:blue>
                        </rdf:li>
                        <rdf:li rdf:parseType="Resource">
                           <xmpG:swatchName>R=0 G=146 B=69</xmpG:swatchName>
                           <xmpG:mode>RGB</xmpG:mode>
                           <xmpG:type>PROCESS</xmpG:type>
                           <xmpG:red>0</xmpG:red>
                           <xmpG:green>146</xmpG:green>
                           <xmpG:blue>69</xmpG:blue>
                        </rdf:li>
                        <rdf:li rdf:parseType="Resource">
                           <xmpG:swatchName>R=0 G=104 B=55</xmpG:swatchName>
                           <xmpG:mode>RGB</xmpG:mode>
                           <xmpG:type>PROCESS</xmpG:type>
                           <xmpG:red>0</xmpG:red>
                           <xmpG:green>104</xmpG:green>
                           <xmpG:blue>55</xmpG:blue>
                        </rdf:li>
                        <rdf:li rdf:parseType="Resource">
                           <xmpG:swatchName>R=34 G=181 B=115</xmpG:swatchName>
                           <xmpG:mode>RGB</xmpG:mode>
                           <xmpG:type>PROCESS</xmpG:type>
                           <xmpG:red>34</xmpG:red>
                           <xmpG:green>181</xmpG:green>
                           <xmpG:blue>115</xmpG:blue>
                        </rdf:li>
                        <rdf:li rdf:parseType="Resource">
                           <xmpG:swatchName>R=0 G=169 B=157</xmpG:swatchName>
                           <xmpG:mode>RGB</xmpG:mode>
                           <xmpG:type>PROCESS</xmpG:type>
                           <xmpG:red>0</xmpG:red>
                           <xmpG:green>169</xmpG:green>
                           <xmpG:blue>157</xmpG:blue>
                        </rdf:li>
                        <rdf:li rdf:parseType="Resource">
                           <xmpG:swatchName>R=41 G=171 B=226</xmpG:swatchName>
                           <xmpG:mode>RGB</xmpG:mode>
                           <xmpG:type>PROCESS</xmpG:type>
                           <xmpG:red>41</xmpG:red>
                           <xmpG:green>171</xmpG:green>
                           <xmpG:blue>226</xmpG:blue>
                        </rdf:li>
                        <rdf:li rdf:parseType="Resource">
                           <xmpG:swatchName>R=0 G=113 B=188</xmpG:swatchName>
                           <xmpG:mode>RGB</xmpG:mode>
                           <xmpG:type>PROCESS</xmpG:type>
                           <xmpG:red>0</xmpG:red>
                           <xmpG:green>113</xmpG:green>
                           <xmpG:blue>188</xmpG:blue>
                        </rdf:li>
                        <rdf:li rdf:parseType="Resource">
                           <xmpG:swatchName>R=46 G=49 B=146</xmpG:swatchName>
                           <xmpG:mode>RGB</xmpG:mode>
                           <xmpG:type>PROCESS</xmpG:type>
                           <xmpG:red>46</xmpG:red>
                           <xmpG:green>49</xmpG:green>
                           <xmpG:blue>146</xmpG:blue>
                        </rdf:li>
                        <rdf:li rdf:parseType="Resource">
                           <xmpG:swatchName>R=27 G=20 B=100</xmpG:swatchName>
                           <xmpG:mode>RGB</xmpG:mode>
                           <xmpG:type>PROCESS</xmpG:type>
                           <xmpG:red>27</xmpG:red>
                           <xmpG:green>20</xmpG:green>
                           <xmpG:blue>100</xmpG:blue>
                        </rdf:li>
                        <rdf:li rdf:parseType="Resource">
                           <xmpG:swatchName>R=102 G=45 B=145</xmpG:swatchName>
                           <xmpG:mode>RGB</xmpG:mode>
                           <xmpG:type>PROCESS</xmpG:type>
                           <xmpG:red>102</xmpG:red>
                           <xmpG:green>45</xmpG:green>
                           <xmpG:blue>145</xmpG:blue>
                        </rdf:li>
                        <rdf:li rdf:parseType="Resource">
                           <xmpG:swatchName>R=147 G=39 B=143</xmpG:swatchName>
                           <xmpG:mode>RGB</xmpG:mode>
                           <xmpG:type>PROCESS</xmpG:type>
                           <xmpG:red>147</xmpG:red>
                           <xmpG:green>39</xmpG:green>
                           <xmpG:blue>143</xmpG:blue>
                        </rdf:li>
                        <rdf:li rdf:parseType="Resource">
                           <xmpG:swatchName>R=158 G=0 B=93</xmpG:swatchName>
                           <xmpG:mode>RGB</xmpG:mode>
                           <xmpG:type>PROCESS</xmpG:type>
                           <xmpG:red>158</xmpG:red>
                           <xmpG:green>0</xmpG:green>
                           <xmpG:blue>93</xmpG:blue>
                        </rdf:li>
                        <rdf:li rdf:parseType="Resource">
                           <xmpG:swatchName>R=212 G=20 B=90</xmpG:swatchName>
                           <xmpG:mode>RGB</xmpG:mode>
                           <xmpG:type>PROCESS</xmpG:type>
                           <xmpG:red>212</xmpG:red>
                           <xmpG:green>20</xmpG:green>
                           <xmpG:blue>90</xmpG:blue>
                        </rdf:li>
                        <rdf:li rdf:parseType="Resource">
                           <xmpG:swatchName>R=237 G=30 B=121</xmpG:swatchName>
                           <xmpG:mode>RGB</xmpG:mode>
                           <xmpG:type>PROCESS</xmpG:type>
                           <xmpG:red>237</xmpG:red>
                           <xmpG:green>30</xmpG:green>
                           <xmpG:blue>121</xmpG:blue>
                        </rdf:li>
                        <rdf:li rdf:parseType="Resource">
                           <xmpG:swatchName>R=199 G=178 B=153</xmpG:swatchName>
                           <xmpG:mode>RGB</xmpG:mode>
                           <xmpG:type>PROCESS</xmpG:type>
                           <xmpG:red>199</xmpG:red>
                           <xmpG:green>178</xmpG:green>
                           <xmpG:blue>153</xmpG:blue>
                        </rdf:li>
                        <rdf:li rdf:parseType="Resource">
                           <xmpG:swatchName>R=153 G=134 B=117</xmpG:swatchName>
                           <xmpG:mode>RGB</xmpG:mode>
                           <xmpG:type>PROCESS</xmpG:type>
                           <xmpG:red>153</xmpG:red>
                           <xmpG:green>134</xmpG:green>
                           <xmpG:blue>117</xmpG:blue>
                        </rdf:li>
                        <rdf:li rdf:parseType="Resource">
                           <xmpG:swatchName>R=115 G=99 B=87</xmpG:swatchName>
                           <xmpG:mode>RGB</xmpG:mode>
                           <xmpG:type>PROCESS</xmpG:type>
                           <xmpG:red>115</xmpG:red>
                           <xmpG:green>99</xmpG:green>
                           <xmpG:blue>87</xmpG:blue>
                        </rdf:li>
                        <rdf:li rdf:parseType="Resource">
                           <xmpG:swatchName>R=83 G=71 B=65</xmpG:swatchName>
                           <xmpG:mode>RGB</xmpG:mode>
                           <xmpG:type>PROCESS</xmpG:type>
                           <xmpG:red>83</xmpG:red>
                           <xmpG:green>71</xmpG:green>
                           <xmpG:blue>65</xmpG:blue>
                        </rdf:li>
                        <rdf:li rdf:parseType="Resource">
                           <xmpG:swatchName>R=198 G=156 B=109</xmpG:swatchName>
                           <xmpG:mode>RGB</xmpG:mode>
                           <xmpG:type>PROCESS</xmpG:type>
                           <xmpG:red>198</xmpG:red>
                           <xmpG:green>156</xmpG:green>
                           <xmpG:blue>109</xmpG:blue>
                        </rdf:li>
                        <rdf:li rdf:parseType="Resource">
                           <xmpG:swatchName>R=166 G=124 B=82</xmpG:swatchName>
                           <xmpG:mode>RGB</xmpG:mode>
                           <xmpG:type>PROCESS</xmpG:type>
                           <xmpG:red>166</xmpG:red>
                           <xmpG:green>124</xmpG:green>
                           <xmpG:blue>82</xmpG:blue>
                        </rdf:li>
                        <rdf:li rdf:parseType="Resource">
                           <xmpG:swatchName>R=140 G=98 B=57</xmpG:swatchName>
                           <xmpG:mode>RGB</xmpG:mode>
                           <xmpG:type>PROCESS</xmpG:type>
                           <xmpG:red>140</xmpG:red>
                           <xmpG:green>98</xmpG:green>
                           <xmpG:blue>57</xmpG:blue>
                        </rdf:li>
                        <rdf:li rdf:parseType="Resource">
                           <xmpG:swatchName>R=117 G=76 B=36</xmpG:swatchName>
                           <xmpG:mode>RGB</xmpG:mode>
                           <xmpG:type>PROCESS</xmpG:type>
                           <xmpG:red>117</xmpG:red>
                           <xmpG:green>76</xmpG:green>
                           <xmpG:blue>36</xmpG:blue>
                        </rdf:li>
                        <rdf:li rdf:parseType="Resource">
                           <xmpG:swatchName>R=96 G=56 B=19</xmpG:swatchName>
                           <xmpG:mode>RGB</xmpG:mode>
                           <xmpG:type>PROCESS</xmpG:type>
                           <xmpG:red>96</xmpG:red>
                           <xmpG:green>56</xmpG:green>
                           <xmpG:blue>19</xmpG:blue>
                        </rdf:li>
                        <rdf:li rdf:parseType="Resource">
                           <xmpG:swatchName>R=66 G=33 B=11</xmpG:swatchName>
                           <xmpG:mode>RGB</xmpG:mode>
                           <xmpG:type>PROCESS</xmpG:type>
                           <xmpG:red>66</xmpG:red>
                           <xmpG:green>33</xmpG:green>
                           <xmpG:blue>11</xmpG:blue>
                        </rdf:li>
                     </rdf:Seq>
                  </xmpG:Colorants>
               </rdf:li>
               <rdf:li rdf:parseType="Resource">
                  <xmpG:groupName>Cold</xmpG:groupName>
                  <xmpG:groupType>1</xmpG:groupType>
                  <xmpG:Colorants>
                     <rdf:Seq>
                        <rdf:li rdf:parseType="Resource">
                           <xmpG:swatchName>C=56 M=0 Y=20 K=0</xmpG:swatchName>
                           <xmpG:mode>RGB</xmpG:mode>
                           <xmpG:type>PROCESS</xmpG:type>
                           <xmpG:red>101</xmpG:red>
                           <xmpG:green>200</xmpG:green>
                           <xmpG:blue>208</xmpG:blue>
                        </rdf:li>
                        <rdf:li rdf:parseType="Resource">
                           <xmpG:swatchName>C=51 M=43 Y=0 K=0</xmpG:swatchName>
                           <xmpG:mode>RGB</xmpG:mode>
                           <xmpG:type>PROCESS</xmpG:type>
                           <xmpG:red>131</xmpG:red>
                           <xmpG:green>139</xmpG:green>
                           <xmpG:blue>197</xmpG:blue>
                        </rdf:li>
                        <rdf:li rdf:parseType="Resource">
                           <xmpG:swatchName>C=26 M=41 Y=0 K=0</xmpG:swatchName>
                           <xmpG:mode>RGB</xmpG:mode>
                           <xmpG:type>PROCESS</xmpG:type>
                           <xmpG:red>186</xmpG:red>
                           <xmpG:green>155</xmpG:green>
                           <xmpG:blue>201</xmpG:blue>
                        </rdf:li>
                     </rdf:Seq>
                  </xmpG:Colorants>
               </rdf:li>
               <rdf:li rdf:parseType="Resource">
                  <xmpG:groupName>Grays</xmpG:groupName>
                  <xmpG:groupType>1</xmpG:groupType>
                  <xmpG:Colorants>
                     <rdf:Seq>
                        <rdf:li rdf:parseType="Resource">
                           <xmpG:swatchName>R=0 G=0 B=0</xmpG:swatchName>
                           <xmpG:mode>RGB</xmpG:mode>
                           <xmpG:type>PROCESS</xmpG:type>
                           <xmpG:red>0</xmpG:red>
                           <xmpG:green>0</xmpG:green>
                           <xmpG:blue>0</xmpG:blue>
                        </rdf:li>
                        <rdf:li rdf:parseType="Resource">
                           <xmpG:swatchName>R=26 G=26 B=26</xmpG:swatchName>
                           <xmpG:mode>RGB</xmpG:mode>
                           <xmpG:type>PROCESS</xmpG:type>
                           <xmpG:red>26</xmpG:red>
                           <xmpG:green>26</xmpG:green>
                           <xmpG:blue>26</xmpG:blue>
                        </rdf:li>
                        <rdf:li rdf:parseType="Resource">
                           <xmpG:swatchName>R=51 G=51 B=51</xmpG:swatchName>
                           <xmpG:mode>RGB</xmpG:mode>
                           <xmpG:type>PROCESS</xmpG:type>
                           <xmpG:red>51</xmpG:red>
                           <xmpG:green>51</xmpG:green>
                           <xmpG:blue>51</xmpG:blue>
                        </rdf:li>
                        <rdf:li rdf:parseType="Resource">
                           <xmpG:swatchName>R=77 G=77 B=77</xmpG:swatchName>
                           <xmpG:mode>RGB</xmpG:mode>
                           <xmpG:type>PROCESS</xmpG:type>
                           <xmpG:red>77</xmpG:red>
                           <xmpG:green>77</xmpG:green>
                           <xmpG:blue>77</xmpG:blue>
                        </rdf:li>
                        <rdf:li rdf:parseType="Resource">
                           <xmpG:swatchName>R=102 G=102 B=102</xmpG:swatchName>
                           <xmpG:mode>RGB</xmpG:mode>
                           <xmpG:type>PROCESS</xmpG:type>
                           <xmpG:red>102</xmpG:red>
                           <xmpG:green>102</xmpG:green>
                           <xmpG:blue>102</xmpG:blue>
                        </rdf:li>
                        <rdf:li rdf:parseType="Resource">
                           <xmpG:swatchName>R=128 G=128 B=128</xmpG:swatchName>
                           <xmpG:mode>RGB</xmpG:mode>
                           <xmpG:type>PROCESS</xmpG:type>
                           <xmpG:red>128</xmpG:red>
                           <xmpG:green>128</xmpG:green>
                           <xmpG:blue>128</xmpG:blue>
                        </rdf:li>
                        <rdf:li rdf:parseType="Resource">
                           <xmpG:swatchName>R=153 G=153 B=153</xmpG:swatchName>
                           <xmpG:mode>RGB</xmpG:mode>
                           <xmpG:type>PROCESS</xmpG:type>
                           <xmpG:red>153</xmpG:red>
                           <xmpG:green>153</xmpG:green>
                           <xmpG:blue>153</xmpG:blue>
                        </rdf:li>
                        <rdf:li rdf:parseType="Resource">
                           <xmpG:swatchName>R=179 G=179 B=179</xmpG:swatchName>
                           <xmpG:mode>RGB</xmpG:mode>
                           <xmpG:type>PROCESS</xmpG:type>
                           <xmpG:red>179</xmpG:red>
                           <xmpG:green>179</xmpG:green>
                           <xmpG:blue>179</xmpG:blue>
                        </rdf:li>
                        <rdf:li rdf:parseType="Resource">
                           <xmpG:swatchName>R=204 G=204 B=204</xmpG:swatchName>
                           <xmpG:mode>RGB</xmpG:mode>
                           <xmpG:type>PROCESS</xmpG:type>
                           <xmpG:red>204</xmpG:red>
                           <xmpG:green>204</xmpG:green>
                           <xmpG:blue>204</xmpG:blue>
                        </rdf:li>
                        <rdf:li rdf:parseType="Resource">
                           <xmpG:swatchName>R=230 G=230 B=230</xmpG:swatchName>
                           <xmpG:mode>RGB</xmpG:mode>
                           <xmpG:type>PROCESS</xmpG:type>
                           <xmpG:red>230</xmpG:red>
                           <xmpG:green>230</xmpG:green>
                           <xmpG:blue>230</xmpG:blue>
                        </rdf:li>
                        <rdf:li rdf:parseType="Resource">
                           <xmpG:swatchName>R=242 G=242 B=242</xmpG:swatchName>
                           <xmpG:mode>RGB</xmpG:mode>
                           <xmpG:type>PROCESS</xmpG:type>
                           <xmpG:red>242</xmpG:red>
                           <xmpG:green>242</xmpG:green>
                           <xmpG:blue>242</xmpG:blue>
                        </rdf:li>
                     </rdf:Seq>
                  </xmpG:Colorants>
               </rdf:li>
            </rdf:Seq>
         </xmpTPg:SwatchGroups>
         <pdf:Producer>Adobe PDF library 10.01</pdf:Producer>
      </rdf:Description>
   </rdf:RDF>
</x:xmpmeta>
                                                                                                    
                                                                                                    
                                                                                                    
                                                                                                    
                                                                                                    
                                                                                                    
                                                                                                    
                                                                                                    
                                                                                                    
                                                                                                    
                                                                                                    
                                                                                                    
                                                                                                    
                                                                                                    
                                                                                                    
                                                                                                    
                                                                                                    
                                                                                                    
                                                                                                    
                                                                                                    
                           
<?xpacket end="w"?>
	</metadata>
<text transform="matrix(1 0 0 1 195.4035645 257.9915161)" style="&st2; font-family:'Lato-Regular'; font-size:40px;">1713865.96 ZRM</text>
<text transform="matrix(1 0 0 1 245.2251587 294.6582031)" style="&st1; font-family:'Lato-Regular'; font-size:30px;">517129.79 USD</text>
<g>
	<g>
		<g>
			<text transform="matrix(1 0 0 1 307.4267578 -158.092041)" style="&st2; font-family:'Lato-Bold'; font-size:21.2112293px;">Exchange</text>
		</g>
	</g>
</g>
<rect x="276.942688" y="596.5" style="&st0;" width="145.057312" height="26.8204918"/>
<g>
	<g>
		<g>
			<g>
				<g>
					<g>
						<text transform="matrix(1 0 0 1 323.8712158 479.5127563)" style="&st1; font-family:'Lato-Regular'; font-size:20px;">Wallet</text>
					</g>
				</g>
			</g>
		</g>
	</g>
</g>
<g>
	<g>
		<g>
			<g>
				<text transform="matrix(1 0 0 1 310.6412354 579.2614746)" style="&st1; font-family:'Lato-Regular'; font-size:20px;">Exchange</text>
			</g>
		</g>
	</g>
</g>
<g>
	<g>
		<path style="&st1;" d="M350.8016663,539.135498l-7.5862427-7.3983154l-7.0721436,6.8969727l-3.3626404-3.277832
			l11.098877-10.8239746l7.4440308,7.2597046l11.8848572-11.4046021l-2.4563599-2.3939819l12.028595-3.4515381
			l-2.9750977,11.6072388l-2.7423096-2.6743774L350.8016663,539.135498z M343.2154236,530.0822754l7.5924988,7.4044189
			l16.2615662-15.6607056l2.0860291,2.0343628l1.953186-7.6177979l-8.0784302,2.3178101l1.8813171,1.8331909l-13.5942688,13.0473022
			l-7.4378052-7.2536011l-9.4019165,9.1690674l1.6656799,1.6229248L343.2154236,530.0822754z"/>
	</g>
	<g>
		<path style="&st1;" d="M346.6483765,549.5419312h-11.598877v-8.2288208l8.1893616-7.9865723l3.4095154,3.3250732V549.5419312z
			 M336.2495422,548.3716431h9.1987915v-11.2354736l-2.2094727-2.1547241l-6.9893188,6.8162231V548.3716431z"/>
	</g>
	<g>
		<path style="&st1;" d="M356.2940674,549.5419312h-9.0222168v-12.3310547l3.5970154,3.5094604l5.4252014-5.4797974V549.5419312z
			 M348.4718933,548.3716431h6.6221313V538.138916l-4.2095337,4.2515259l-2.4125977-2.3543091V548.3716431z"/>
	</g>
	<g>
		<path style="&st1;" d="M366.8522949,549.5419312h-9.9222717v-14.9338379l9.9222717-9.6764526V549.5419312z
			 M358.1300659,548.3716431h7.5221863v-20.6148071l-7.5221863,7.3358765V548.3716431z"/>
	</g>
</g>
<g>
	<g>
		<g>
			<g>
				<path style="&st1;" d="M373.6047363,619.9498901l-0.0030518,0.4971313h-2.7666626v-4.508667h2.7666626v0.4971313h-2.1589966
					v1.4975586h1.7483826v0.4780884h-1.7483826v1.5387573H373.6047363z"/>
				<path style="&st1;" d="M376.9292297,620.4470215h-0.5360718c-0.0458984,0-0.0820007-0.0119629-0.1080017-0.0362549
					c-0.0260315-0.0239868-0.0474548-0.0507202-0.06427-0.0802002l-0.7989197-1.2490234
					c-0.0082703,0.0292358-0.0171204,0.0581055-0.0266113,0.0863647s-0.0223389,0.0540771-0.0391846,0.0770874l-0.7395325,1.0855713
					c-0.020813,0.02948-0.0431519,0.0562134-0.0673218,0.0802002c-0.0238647,0.024292-0.0569153,0.0362549-0.0985413,0.0362549
					h-0.4981384l1.1122437-1.6361694l-1.0684814-1.5510254h0.5357666c0.0458984,0,0.0792542,0.0073853,0.1003723,0.0218506
					c0.020813,0.0147095,0.0394592,0.0356445,0.0563049,0.0629883l0.7802429,1.1954956
					c0.0165405-0.060791,0.0428467-0.1195068,0.0783386-0.1760254l0.6829529-1.006897
					c0.0186462-0.0291748,0.0391541-0.0528564,0.0611877-0.0706787c0.0217285-0.0178223,0.0483398-0.0267334,0.0798645-0.0267334
					h0.5137329l-1.0684814,1.5227661L376.9292297,620.4470215z"/>
				<path style="&st1;" d="M379.5108032,617.8261108c-0.0168457,0.0230713-0.0333557,0.0408936-0.0502014,0.0534668
					c-0.0168152,0.0125732-0.0397644,0.0187378-0.0688477,0.0187378c-0.031189,0-0.0657654-0.0128784-0.1034241-0.0393066
					c-0.0376282-0.026123-0.084137-0.0549927-0.1395264-0.0863647c-0.0553589-0.0316162-0.123291-0.0602417-0.2034607-0.0866699
					c-0.0804749-0.026062-0.1793213-0.0393066-0.2962036-0.0393066c-0.1566467,0-0.2946472,0.0279541-0.4136658,0.0835571
					c-0.1190491,0.0553589-0.2187805,0.1358032-0.2992554,0.2406006c-0.0801697,0.1047974-0.1407471,0.2316895-0.1814575,0.3806763
					c-0.0409851,0.1490479-0.0611877,0.3155518-0.0611877,0.5002441c0,0.1929321,0.0220337,0.3643799,0.0657959,0.5143433
					c0.0437317,0.1499634,0.1058655,0.2759399,0.1863403,0.3776245s0.1774597,0.1794434,0.2912903,0.2329102
					s0.2420349,0.0802002,0.3840027,0.0802002c0.1358643,0,0.2475281-0.0162964,0.3353577-0.0488892
					c0.0874939-0.0322266,0.1600342-0.0684814,0.2175598-0.1084595c0.0575256-0.039917,0.1055603-0.0758667,0.144104-0.1084595
					c0.0388489-0.0325928,0.0768127-0.0488281,0.1144409-0.0488281c0.0458984,0,0.0813904,0.0178223,0.1064758,0.0534668
					l0.1566772,0.2045898c-0.0688477,0.0860596-0.1471863,0.1594849-0.2350159,0.2200317
					c-0.0877991,0.0611572-0.1820374,0.1118164-0.2836304,0.15271c-0.1012878,0.0408325-0.2071533,0.0709839-0.3179321,0.0897217
					c-0.1107483,0.0187378-0.2233582,0.0282593-0.3384094,0.0282593c-0.1982727,0-0.382782-0.0365601-0.552887-0.1099854
					c-0.1704407-0.0734863-0.3182373-0.1800537-0.4433899-0.3195801c-0.1254272-0.1394653-0.2236633-0.3109131-0.2946472-0.5143433
					s-0.1064758-0.4350586-0.1064758-0.6953125c0-0.2368774,0.0330505-0.4562988,0.0988159-0.6575317
					c0.0657959-0.2012329,0.1618652-0.3748779,0.2882385-0.520813c0.1263733-0.1456299,0.2817993-0.2596436,0.4669189-0.3413696
					c0.1848145-0.0817261,0.3971863-0.1225586,0.6373596-0.1225586c0.2236938,0,0.4204407,0.0362549,0.5908508,0.1084595
					c0.1701355,0.0725098,0.3209839,0.1744995,0.4525452,0.3066406L379.5108032,617.8261108z"/>
				<path style="&st1;" d="M380.85495,617.6844482c0.1355591-0.1447144,0.2861023-0.2599487,0.4510193-0.3459473
					c0.1652527-0.0860596,0.3552551-0.1290283,0.5703735-0.1290283c0.1734924,0,0.3264771,0.0288696,0.4589539,0.0863037
					c0.1328125,0.0578003,0.2432556,0.1395264,0.3323059,0.2454834c0.0887146,0.1060181,0.1560364,0.2335205,0.2019348,0.3822632
					c0.0458984,0.1489868,0.0688477,0.3137207,0.0688477,0.4940796v2.0294189h-0.5608521v-2.0294189
					c0-0.2412109-0.0547791-0.4283447-0.1643066-0.5617065c-0.1098633-0.1329956-0.2763062-0.199707-0.4996643-0.199707
					c-0.1652527,0-0.3191528,0.039978-0.4623413,0.1195068c-0.143219,0.079895-0.2750854,0.1877441-0.3962708,0.3241577v2.347168
					h-0.5608521v-4.6346436h0.5608521V617.6844482z"/>
				<path style="&st1;" d="M383.7094727,617.7096558c0.1753235-0.1699219,0.3644104-0.296814,0.5669556-0.3806763
					c0.2025757-0.0838623,0.4271545-0.1259766,0.6737976-0.1259766c0.1774597,0,0.335022,0.02948,0.4730225,0.0881958
					c0.1376953,0.0586548,0.2536621,0.1403809,0.3479004,0.2454834c0.0939331,0.1047974,0.1649475,0.2316895,0.2129822,0.3806763
					c0.0480347,0.1490479,0.0718994,0.3125,0.0718994,0.4907227v2.0389404h-0.2475281
					c-0.0541687,0-0.0960999-0.0089111-0.1251526-0.0267334c-0.0293884-0.0178223-0.0523376-0.0531616-0.0688477-0.1054077
					l-0.0627441-0.302002c-0.0835266,0.0773926-0.1652222,0.1462402-0.2444763,0.2058716
					c-0.0795593,0.0598755-0.1627808,0.1102905-0.2505798,0.151123c-0.0878296,0.0408936-0.1814575,0.0722046-0.2805786,0.0943604
					c-0.0991516,0.0220947-0.2092896,0.0331421-0.3304749,0.0331421c-0.1233215,0-0.2392883-0.0174561-0.3479004-0.0518799
					c-0.1086121-0.034729-0.2031555-0.0866699-0.2833252-0.1558228c-0.0804749-0.069397-0.1441345-0.1566772-0.1912537-0.2626953
					c-0.0471191-0.105957-0.0703735-0.2313232-0.0703735-0.3760376c0-0.1259766,0.0342712-0.2470703,0.1034241-0.3635254
					c0.0688477-0.1164551,0.180542-0.2196655,0.3350525-0.3096924c0.1545105-0.090332,0.3561707-0.1640625,0.6049194-0.2218628
					c0.2484436-0.0577393,0.5532227-0.0906372,0.9148865-0.0992432v-0.2485352c0-0.2473755-0.0532532-0.4345093-0.1600342-0.5617065
					c-0.1064758-0.1268921-0.2619019-0.1901855-0.4666138-0.1901855c-0.1380005,0-0.2533569,0.0172119-0.3463745,0.0519409
					c-0.0930176,0.0344238-0.1734924,0.0734253-0.2411194,0.1164551c-0.0679321,0.0430298-0.1266785,0.0817261-0.1756287,0.1164551
					c-0.0489502,0.0344238-0.0975952,0.0519409-0.1456299,0.0519409c-0.0376587,0-0.0700684-0.0101929-0.0970154-0.0301514
					c-0.0272217-0.0199585-0.0501709-0.0445557-0.0691528-0.0737305L383.7094727,617.7096558z M385.5110779,619.012146
					c-0.257019,0.008606-0.4757996,0.0288696-0.6566467,0.0614014c-0.1805115,0.0325928-0.3280029,0.0750122-0.4418335,0.1275635
					c-0.1138306,0.0521851-0.1961365,0.1142578-0.2472229,0.1855469c-0.0514221,0.0712891-0.0768127,0.1508789-0.0768127,0.2390747
					c0,0.0838623,0.0134583,0.1563721,0.0407104,0.2172241c0.0269165,0.0608521,0.0642395,0.1105957,0.1110535,0.149292
					c0.0471191,0.0387573,0.1025085,0.0673218,0.1661682,0.085144c0.0636292,0.0178223,0.1321716,0.0267334,0.2052917,0.0267334
					c0.0982361,0,0.1878967-0.0101318,0.2692871-0.0301514c0.0816956-0.0196533,0.1581726-0.0485229,0.2303772-0.0863037
					c0.0722351-0.0377808,0.1410828-0.0829468,0.2068481-0.135498c0.0657959-0.0522461,0.1300659-0.1121826,0.1927795-0.1791382
					V619.012146z"/>
				<path style="&st1;" d="M387.4317017,617.72229c0.0688477-0.0777588,0.1419983-0.1478271,0.2193909-0.2108154
					c0.0771179-0.0629883,0.1591187-0.1170654,0.2460327-0.1622314c0.0865784-0.0448608,0.1783752-0.0795898,0.2756653-0.1035156
					c0.0970154-0.024292,0.2019653-0.0362549,0.3148804-0.0362549c0.1734619,0,0.3264771,0.0288696,0.4589539,0.0863037
					c0.1328125,0.0578003,0.2432556,0.1395264,0.3323059,0.2454834c0.0887146,0.1060181,0.1560364,0.2335205,0.2019348,0.3822632
					c0.0458984,0.1489868,0.0688477,0.3137207,0.0688477,0.4940796v2.0294189h-0.5608521v-2.0294189
					c0-0.2412109-0.0547791-0.4283447-0.1643066-0.5617065c-0.1098633-0.1329956-0.2763062-0.199707-0.4996643-0.199707
					c-0.1652527,0-0.3191528,0.039978-0.4623413,0.1195068c-0.143219,0.079895-0.2750854,0.1877441-0.3962708,0.3241577v2.347168
					h-0.5608521v-3.1871948h0.3353577c0.0792542,0,0.1282043,0.0386963,0.1471863,0.1164551L387.4317017,617.72229z"/>
				<path style="&st1;" d="M393.0807495,617.385498v0.2077026c0,0.0691528-0.0437622,0.1134033-0.1315918,0.1321411
					l-0.3604431,0.0473022c0.0709839,0.1382446,0.106781,0.2915649,0.106781,0.4593506
					c0,0.1551514-0.0299683,0.2962036-0.089325,0.4230957c-0.0596924,0.1268921-0.1416931,0.2353516-0.2460327,0.3256836
					c-0.1046448,0.090332-0.2297668,0.1594849-0.3760376,0.2077026c-0.1462708,0.0482788-0.3050537,0.0722046-0.4761047,0.0722046
					c-0.148407,0-0.2885437-0.0178223-0.420105-0.0534668c-0.0667114,0.0421143-0.1177979,0.0866699-0.1533203,0.133667
					c-0.0357971,0.0473022-0.0532227,0.0949707-0.0532227,0.1431885c0,0.0755615,0.0306091,0.1327515,0.0924072,0.1714478
					c0.0614929,0.0390015,0.1425781,0.0666504,0.2426453,0.0835571c0.1003418,0.0166016,0.2147827,0.0273438,0.3432922,0.0313721
					c0.1282043,0.0042725,0.2597961,0.0110474,0.3947144,0.0205688c0.1346436,0.0092163,0.2662048,0.0255127,0.3947144,0.0485229
					c0.12854,0.0233765,0.2429504,0.0611572,0.3430176,0.1134033c0.1003723,0.0525513,0.1811523,0.1247559,0.2429504,0.2172241
					c0.0614929,0.0921631,0.0924072,0.211731,0.0924072,0.3585815c0,0.1364136-0.0339661,0.2685547-0.1018982,0.3963623
					c-0.0679321,0.1281128-0.1655273,0.2418213-0.2928162,0.3413696c-0.127594,0.0995483-0.2836609,0.1794434-0.4684448,0.2393188
					c-0.1848145,0.0596313-0.3931885,0.0894165-0.6251221,0.0894165s-0.4345093-0.0230103-0.6080017-0.0690918
					c-0.1731873-0.0460815-0.3172913-0.1081543-0.4323425-0.1856079c-0.1147461-0.0777588-0.2010193-0.1674805-0.2585449-0.269165
					c-0.0572205-0.1016846-0.0859985-0.2080078-0.0859985-0.3192139c0-0.1573486,0.0489502-0.2907104,0.1471863-0.3994751
					c0.0982056-0.1090698,0.2328491-0.1962891,0.4042053-0.2611694c-0.0939331-0.0420532-0.1686096-0.0979614-0.223999-0.168335
					c-0.0553589-0.0703735-0.0829163-0.1653442-0.0829163-0.2848511c0-0.0460815,0.0082703-0.093689,0.0250854-0.1431885
					c0.0165405-0.0491333,0.0422363-0.0986328,0.0765076-0.1477661c0.0345764-0.0491943,0.0768127-0.0958862,0.1269836-0.1401367
					c0.0501709-0.0439453,0.1086121-0.0826416,0.1756287-0.1164551c-0.1566467-0.0878296-0.2790527-0.204895-0.3668518-0.3505859
					c-0.0875244-0.1459351-0.1315918-0.3152466-0.1315918-0.5081787c0-0.1551514,0.0299988-0.2962036,0.0893555-0.4230957
					c0.0596619-0.1268921,0.1425781-0.2350464,0.249054-0.3241577c0.1065063-0.0891113,0.2334595-0.1578979,0.3806458-0.2061768
					c0.1474915-0.0482178,0.3087463-0.0722046,0.484375-0.0722046c0.1376953,0,0.2662048,0.0150757,0.3852234,0.0454712
					c0.1190186,0.0304565,0.2276611,0.0750122,0.3258667,0.133667H393.0807495z M392.5137634,620.6199951
					c0-0.0777588-0.0220337-0.1404419-0.0657959-0.1886597c-0.0440674-0.0482178-0.1031189-0.0859985-0.1771545-0.1133423
					c-0.0740662-0.0273438-0.1603394-0.0467529-0.2585754-0.0584106c-0.0982056-0.0113525-0.2019348-0.0202637-0.3117676-0.0267334
					c-0.1095581-0.0061646-0.2209473-0.0125732-0.3335266-0.0187378c-0.112915-0.0061646-0.2215271-0.0169067-0.3258667-0.031311
					c-0.1171875,0.0543823-0.212677,0.1231689-0.2867126,0.2058105c-0.0743408,0.0830078-0.1113892,0.1800537-0.1113892,0.2913208
					c0,0.0712891,0.0183716,0.1376343,0.0550842,0.199707c0.0364075,0.0617676,0.0924072,0.1152344,0.1673889,0.1604004
					c0.0752563,0.045166,0.1697998,0.0808105,0.2836304,0.1069336c0.1138306,0.026062,0.2481384,0.0393066,0.4026794,0.0393066
					c0.150238,0,0.2851563-0.0135498,0.4042053-0.0408936c0.1190186-0.0273438,0.2196655-0.06604,0.3023071-0.1164551
					c0.0826111-0.050354,0.1456299-0.1099854,0.1896973-0.1793823
					C392.4917297,620.7803955,392.5137634,620.7038574,392.5137634,620.6199951z M391.5079956,618.8895264
					c0.1126099,0,0.211731-0.015686,0.2974243-0.0473022c0.0856628-0.0313721,0.1578674-0.0753174,0.2163086-0.1321411
					c0.0584412-0.0565186,0.1022034-0.1241455,0.1315918-0.2027588c0.0293579-0.0786743,0.0437317-0.1653442,0.0437317-0.2596436
					c0-0.1951294-0.0590515-0.3502808-0.1768494-0.4658203c-0.118103-0.1152344-0.2888489-0.1729736-0.512207-0.1729736
					c-0.2258301,0-0.3974609,0.0577393-0.5155945,0.1729736c-0.118103,0.1155396-0.1768494,0.2706909-0.1768494,0.4658203
					c0,0.0942993,0.0150146,0.1809692,0.0452881,0.2596436c0.030304,0.0786133,0.0746765,0.1462402,0.1331177,0.2027588
					c0.0584412,0.0568237,0.1306458,0.100769,0.2163086,0.1321411
					C391.2959595,618.8738403,391.3950806,618.8895264,391.5079956,618.8895264z"/>
				<path style="&st1;" d="M396.1858215,620.0002441c-0.0688477,0.0839233-0.1514587,0.1567383-0.2475281,0.2185059
					c-0.0960693,0.0620117-0.1988831,0.1127319-0.3084412,0.1526489c-0.1098328,0.039978-0.223053,0.0697632-0.3402405,0.0897217
					c-0.1168823,0.0200195-0.2328491,0.0298462-0.3475952,0.0298462c-0.2193909,0-0.4213257-0.0371704-0.6064453-0.1115723
					c-0.1848145-0.074646-0.3445435-0.1837158-0.479187-0.3272095c-0.1349182-0.1437988-0.2398682-0.3214111-0.3148499-0.5333862
					c-0.0752563-0.211731-0.1128845-0.4550781-0.1128845-0.7300415c0-0.222168,0.0339355-0.4298706,0.1018677-0.6228027
					c0.067627-0.1929932,0.1655579-0.3604126,0.2928467-0.5020752c0.1272888-0.1413574,0.28302-0.2525635,0.4669189-0.333374
					s0.3904114-0.1210327,0.6202087-0.1210327c0.1903381,0,0.366272,0.0319214,0.5281372,0.0958252
					s0.3016968,0.1564331,0.4197998,0.2768555c0.118103,0.1207275,0.2105103,0.2697754,0.2772217,0.4467773
					c0.0670166,0.1772461,0.1003723,0.3791504,0.1003723,0.605896c0,0.0878906-0.009491,0.1465454-0.0281677,0.1760254
					c-0.0189819,0.029541-0.0544739,0.0439453-0.1064758,0.0439453h-2.1213684
					c0.0064392,0.2015991,0.0339661,0.376709,0.0832214,0.5253906c0.0489502,0.1490479,0.1174927,0.2734985,0.2050171,0.3730469
					c0.0877991,0.0995483,0.1921387,0.1741943,0.313324,0.2233887c0.1211548,0.0491333,0.257019,0.0740356,0.4072571,0.0740356
					c0.1401367,0,0.2606812-0.0162964,0.361969-0.0488892c0.1012878-0.0325317,0.1884766-0.0675659,0.2616272-0.1053467
					c0.0731201-0.0377808,0.1343079-0.0728149,0.1832886-0.1054077c0.0492554-0.0325928,0.0914612-0.0488281,0.1269836-0.0488281
					c0.0458679,0,0.0813904,0.0178223,0.1064758,0.0534668L396.1858215,620.0002441z M395.7348022,618.5057373
					c0-0.130249-0.0183411-0.2491455-0.0550537-0.3572998c-0.036438-0.1078491-0.0896606-0.2012939-0.159729-0.2799072
					c-0.0700684-0.0786743-0.1551514-0.1395264-0.255188-0.1825562c-0.1003723-0.0429688-0.2142029-0.0645142-0.3417969-0.0645142
					c-0.2674255,0-0.4788513,0.0783691-0.6342773,0.234436c-0.1557617,0.1564331-0.2524414,0.3730469-0.2897644,0.6498413
					H395.7348022z"/>
			</g>
		</g>
	</g>
	<g>
		<g>
			<path style="&st1;" d="M382.7492981,607.8220825l-2.3769531-2.3277588l-2.2158813,2.1699829l-1.0535889-1.031311
				l3.4775391-3.4055176l2.3323975,2.2841187l3.7238159-3.5882568l-0.7696228-0.7532349l3.7688293-1.0859375l-0.9321594,3.6519775
				l-0.8592224-0.8414307L382.7492981,607.8220825z M380.372345,604.9736328l2.3789063,2.3296509l5.0951538-4.9273071
				L388.5,603.0159912l0.6119995-2.3967896l-2.531189,0.729248l0.5894775,0.5767822l-4.2594299,4.1051025l-2.3304443-2.2821655
				l-2.9458618,2.8848267l0.5219116,0.5106201L380.372345,604.9736328z"/>
		</g>
		<g>
			<path style="&st1;" d="M381.4479675,611.0962524h-3.6342163v-2.5890503l2.5659485-2.5128174l1.0682678,1.0461426V611.0962524z
				 M378.1897583,610.7280273h2.8822021v-3.5350342l-0.6922607-0.6779175l-2.1899414,2.1445923V610.7280273z"/>
		</g>
		<g>
			<path style="&st1;" d="M384.4701843,611.0962524h-2.8268738v-3.8797607l1.1270447,1.104187l1.6998291-1.7241211V611.0962524z
				 M382.0193176,610.7280273h2.0748901v-3.2195435l-1.3189697,1.3377075l-0.7559204-0.7407837V610.7280273z"/>
		</g>
		<g>
			<path style="&st1;" d="M387.7783508,611.0962524h-3.1088867v-4.6986694l3.1088867-3.0444946V611.0962524z
				 M385.0454712,610.7280273h2.3568726v-6.4860229l-2.3568726,2.3080444V610.7280273z"/>
		</g>
	</g>
</g>
<g>
	<g>
		<g>
			<g>
				<g>
					<path style="&st2;" d="M333.6196289,77.9051971c12.7946777,0,25.5838623,0,38.4606934,0
						c-0.1626282,0.1798553-0.271637,0.311203-0.3916931,0.4315109c-1.6282959,1.6315994-3.2502441,3.2697144-4.8982239,4.8812408
						c-0.1907349,0.1865311-0.52771,0.3156662-0.7972107,0.316185c-8.6416016,0.016655-17.2832642,0.0141678-25.9249268,0.0145416
						c-0.1535645,0.0000153-0.3071289,0-0.4606934,0c-0.0067749,0.0382843-0.0135803,0.076561-0.0204163,0.1148376
						c6.6446533,2.2518158,13.2892761,4.5036163,19.9302673,6.7541885c-2.260437,2.2585831-4.4911499,4.4875107-6.695282,6.6898575
						C346.4491882,90.734642,340.0495911,84.3351135,333.6196289,77.9051971z"/>
				</g>
				
					<linearGradient id="SVGID_1_" gradientUnits="userSpaceOnUse" x1="333.3904114" y1="-30.5622787" x2="372.0253296" y2="-30.5622787" gradientTransform="matrix(1 0 0 -1 0 36)">
					<stop  offset="0" style="stop-color:#D08A29"/>
					<stop  offset="1" style="stop-color:#EDC246"/>
				</linearGradient>
				<path style="&st3;" d="M366.0397644,70.3989105c-6.6464539-2.2520523-13.2929077-4.5041122-19.95755-6.7623367
					c2.2860718-2.2698746,4.5231628-4.4911041,6.7292786-6.6815834c6.3755493,6.375782,12.7861328,12.7866249,19.2138367,19.2145729
					c-12.8098755,0-25.6282654,0-38.6349182,0c0.749176-0.7223511,1.3898621-1.3270798,2.0159302-1.9466248
					c1.1226196-1.1109848,2.2441101-2.2233734,3.3483276-3.352562c0.2622986-0.2682419,0.5286255-0.3761749,0.9042358-0.3757401
					c8.5694275,0.0099716,17.138855,0.0081558,25.7082825,0.0085373c0.2167664,0.0000076,0.4335632,0,0.6503601,0
					C366.0249329,70.4684219,366.0323486,70.4336624,366.0397644,70.3989105z"/>
			</g>
		</g>
	</g>
	<g>
		<path style="&st2;" d="M352.7791748,102.0024414c-13.7845154,0-24.9985352-11.2169189-24.9985352-24.9985428
			c0-13.7845383,11.2140198-25.0014572,24.9985352-25.0014572c13.7845459,0,25.0014648,11.2169189,25.0014648,25.0014572
			C377.7806396,90.7855225,366.5637207,102.0024414,352.7791748,102.0024414z M352.7791748,53.4980316
			c-12.9607849,0-23.5029297,10.5450668-23.5029297,23.505867c0,12.9578781,10.5421448,23.5029526,23.5029297,23.5029526
			c12.9608154,0,23.5058899-10.5450745,23.5058899-23.5029526
			C376.2850647,64.0430984,365.7399902,53.4980316,352.7791748,53.4980316z"/>
	</g>
</g>
<text transform="matrix(1 0 0 1 252.5665283 368.6238403)" style="&st1; font-family:'Lato-Bold'; font-size:30px;">ZRM Exchange</text>
<g>
	<path style="&st2;" d="M352.7806091,132.0271301c-13.8070984,0-24.9999695,11.1929169-24.9999695,25.0000305
		c0,13.8070984,11.1928711,24.9999695,24.9999695,24.9999695c13.8071899,0,25.0000305-11.1928711,25.0000305-24.9999695
		C377.7806396,143.220047,366.5877991,132.0271301,352.7806091,132.0271301z M347.8759766,161.7819214h-7.122467v-11.5550232
		h7.122467v1.2703552h-5.5566101v3.8387756h4.4988708v1.2262421h-4.4988708v3.9437408h5.5649109L347.8759766,161.7819214z
		 M355.0619507,161.7819214c-0.1187439,0-0.2098389-0.0331726-0.2789001-0.0939026
		c-0.0662842-0.060791-0.121521-0.1270142-0.165741-0.204361l-2.0546875-3.2035828
		c-0.0221252,0.0772858-0.0441589,0.1491394-0.0690308,0.2209167c-0.0248718,0.0773468-0.0580444,0.1435852-0.1022034,0.1988678
		l-1.902832,2.7837982c-0.0524597,0.0773468-0.1104431,0.1435699-0.1739807,0.204361
		c-0.06073,0.06073-0.1463928,0.0939026-0.2540894,0.0939026h-1.2814026l2.8638916-4.192276l-2.7507019-3.9769135h1.3781128
		c0.1187744,0,0.2043762,0.0166016,0.259613,0.0552216c0.0524902,0.038681,0.1021423,0.0939026,0.1436157,0.1601868
		l2.007782,3.065506c0.0441589-0.1546326,0.1104431-0.3037567,0.2015381-0.4528961l1.7592468-2.5794373
		c0.0497131-0.0718384,0.1022034-0.1325684,0.1574402-0.1822968c0.0552368-0.0441742,0.1242676-0.0662842,0.2043457-0.0662842
		h1.3228455l-2.7478638,3.9050598l2.8611145,4.2641296H355.0619507z M359.2791138,161.7819214h-1.4360962v-8.1691895h1.4360962
		V161.7819214z M359.5000916,151.4365234c-0.0552979,0.121521-0.1325989,0.2319794-0.2265015,0.325882
		s-0.2043457,0.1656799-0.3286133,0.2209167c-0.1270752,0.0552216-0.2596436,0.08284-0.4004822,0.08284
		s-0.2706604-0.0276184-0.3921814-0.08284c-0.1187439-0.0552368-0.2264709-0.1270142-0.3175659-0.2209167
		c-0.091156-0.0939026-0.1629333-0.204361-0.2181702-0.325882c-0.0524597-0.1160278-0.0800781-0.2485962-0.0800781-0.386673
		c0-0.1435699,0.0276184-0.2761536,0.0800781-0.4031677c0.0552368-0.121521,0.1270142-0.2320404,0.2181702-0.325943
		c0.091095-0.0938416,0.198822-0.1711884,0.3175659-0.2264099c0.121521-0.0497437,0.2513428-0.0773468,0.3921814-0.0773468
		s0.273407,0.0276031,0.4004822,0.0773468c0.1242676,0.0552216,0.2347107,0.1325684,0.3286133,0.2264099
		c0.0939026,0.0939026,0.1712036,0.204422,0.2265015,0.325943c0.0552063,0.1270142,0.0855713,0.2595978,0.0855713,0.4031677
		C359.5856628,151.1879272,359.5552979,151.3204956,359.5000916,151.4365234z M365.2223511,161.7156372
		c-0.3479919,0.1270142-0.7097778,0.1932983-1.079834,0.1932983c-0.6462708,0-1.1405945-0.1767426-1.4885864-0.5357361
		c-0.3451843-0.364563-0.5191956-0.8837433-0.5191956-1.5576172v-4.9987335h-0.9831848
		c-0.0883484,0-0.1601257-0.0276184-0.2181702-0.0773468c-0.06073-0.0552368-0.0883484-0.1325226-0.0883484-0.2374725v-0.5744171
		l1.3366394-0.1712494l0.3314209-2.5242004c0.016571-0.0773468,0.0524902-0.1436462,0.1077271-0.1988678
		c0.0579834-0.0497284,0.1325684-0.0717926,0.2236633-0.0717926h0.7263489v2.8114166h2.3612671v1.0439301h-2.3612671v4.8992615
		c0,0.3480072,0.0828552,0.6020966,0.2485352,0.7677917c0.1657104,0.1656799,0.381134,0.2485352,0.6462708,0.2485352
		c0.1491394,0,0.2789001-0.016571,0.3894348-0.06073c0.1104431-0.038681,0.2070923-0.0828552,0.2872009-0.1325836
		c0.0800781-0.0496674,0.1491394-0.0939026,0.2043457-0.1325684c0.0579834-0.03862,0.1077271-0.06073,0.1491394-0.06073
		c0.077301,0,0.1435852,0.0441589,0.2016296,0.1380768l0.4197693,0.6849213
		C365.8713074,161.4008026,365.5730591,161.5830536,365.2223511,161.7156372z"/>
</g>
<g>
	<path style="&st4;" d="M356.3268433,668.27948h-1.322876c-0.0800781,0-0.1491089,0.0219727-0.2043457,0.0661621
		c-0.0552368,0.0498047-0.1077271,0.1104736-0.1574097,0.182373l-1.7592773,2.5793457
		c-0.0910645,0.1491699-0.1573486,0.2983398-0.2015381,0.4528809l-2.0077515-3.0654297
		c-0.0415039-0.0662842-0.0911255-0.121582-0.1436157-0.1601563c-0.0552368-0.0385742-0.1408691-0.0551758-0.2596436-0.0551758
		h-1.3781128l2.7507324,3.9768066l-2.8638916,4.1923828h1.2813721c0.1077271,0,0.1933594-0.0332031,0.2540894-0.0939941
		c0.0635376-0.060791,0.121521-0.1269531,0.1740112-0.2043457l1.902832-2.7838135
		c0.0441284-0.0552979,0.0773315-0.12146,0.1021729-0.1988525c0.0249023-0.0717773,0.046936-0.1435547,0.0690308-0.2209473
		l2.0546875,3.2036133c0.0442505,0.0773926,0.0994873,0.1435547,0.1657715,0.2043457
		c0.0690308,0.060791,0.1601563,0.0939941,0.2788696,0.0939941h1.3781128l-2.861084-4.2641602L356.3268433,668.27948z"/>
	<polygon style="&st4;" points="342.319397,671.2289429 346.8182373,671.2289429 346.8182373,670.0026245 342.319397,670.0026245 
		342.319397,666.1640015 347.8759766,666.1640015 347.8759766,664.8934937 340.75354,664.8934937 340.75354,676.4486694 
		347.8759766,676.4486694 347.8842773,675.1726685 342.319397,675.1726685 	"/>
	<rect x="357.8430176" y="668.27948" style="&st4;" width="1.4360962" height="8.1691895"/>
	<path style="&st4;" d="M365.4957886,675.0125122c-0.0414429,0-0.0911865,0.0220947-0.1491699,0.0606689
		c-0.0551758,0.0386963-0.1242676,0.0830078-0.2043457,0.1325684c-0.0800781,0.0498047-0.1767578,0.0939941-0.2871704,0.1325684
		c-0.1105347,0.0441895-0.2402954,0.060791-0.3894653,0.060791c-0.2651367,0-0.4805298-0.0827637-0.6462402-0.2485352
		s-0.2485352-0.4197998-0.2485352-0.7678223v-4.8991699h2.3612671v-1.0439453h-2.3612671v-2.8115234h-0.7263794
		c-0.0910645,0-0.1656494,0.0220947-0.2236328,0.0717773c-0.0552368,0.0552979-0.0911865,0.121582-0.1077271,0.1989746
		l-0.3314209,2.5241699l-1.3366699,0.1712646v0.5743408c0,0.1049805,0.0276489,0.182373,0.0883789,0.2375488
		c0.0580444,0.0496826,0.1298218,0.0773926,0.2181396,0.0773926h0.9832153v4.9986572
		c0,0.6739502,0.1740112,1.1929932,0.519165,1.5576172c0.3480225,0.3590088,0.8423462,0.5357666,1.4885864,0.5357666
		c0.3700562,0,0.7318726-0.0662842,1.079834-0.1933594c0.350708-0.1325684,0.6489868-0.3146973,0.8948364-0.5467529
		l-0.4197998-0.6849365C365.6393433,675.0565796,365.5730591,675.0125122,365.4957886,675.0125122z"/>
	<path style="&st4;" d="M359.2736206,664.9874878c-0.0939331-0.0939941-0.2043457-0.1712646-0.3286133-0.2265625
		c-0.1270752-0.0496826-0.2596436-0.0772705-0.4005127-0.0772705c-0.1408081,0-0.2706299,0.0275879-0.3921509,0.0772705
		c-0.1187744,0.0552979-0.2265015,0.1325684-0.3175659,0.2265625c-0.0911865,0.09375-0.1629639,0.2043457-0.2182007,0.3259277
		c-0.0524292,0.1269531-0.0800781,0.2595215-0.0800781,0.4030762c0,0.1381836,0.0276489,0.270752,0.0800781,0.3867188
		c0.0552368,0.121582,0.1270142,0.2319336,0.2182007,0.3259277c0.0910645,0.09375,0.1987915,0.1656494,0.3175659,0.2208252
		c0.121521,0.0552979,0.2513428,0.0828857,0.3921509,0.0828857c0.1408691,0,0.2734375-0.0275879,0.4005127-0.0828857
		c0.1242676-0.0551758,0.2346802-0.1270752,0.3286133-0.2208252c0.0938721-0.0939941,0.1712036-0.2043457,0.2265015-0.3259277
		c0.0551758-0.1159668,0.0855713-0.2485352,0.0855713-0.3867188c0-0.1435547-0.0303955-0.276123-0.0855713-0.4030762
		C359.4448242,665.1918335,359.3674927,665.0812378,359.2736206,664.9874878z"/>
</g>
<g>
	<path style="&st2;" d="M352.7806396,643.0270996c-13.8071289,0-25,11.1928711-25,25s11.1928711,25,25,25
		c13.8071899,0,25-11.1928711,25-25S366.5878296,643.0270996,352.7806396,643.0270996z"/>
</g>
<g>
	<g>
		<g>
			<g>
				<text transform="matrix(1 0 0 1 608.2240601 -163.4210815)" style="&st1; font-family:'Lato-Bold'; font-size:10px;">Lato Bold 20 pt</text>
			</g>
		</g>
	</g>
	<g>
		<line style="&st5;" x1="594" y1="-164.1666718" x2="416.8333435" y2="-164.1666718"/>
		<circle style="&st5;" cx="411" cy="-164.1666718" r="5.6666665"/>
	</g>
</g>
<g>
	<g>
		<g>
			<g>
				<text transform="matrix(1 0 0 1 608.1439819 1.5789185)" style="&st1; font-family:'Lato-Bold'; font-size:10px;">219 px . 126 px</text>
			</g>
		</g>
	</g>
	<g>
		<line style="&st5;" x1="597.833313" y1="0.8333333" x2="476.8333435" y2="0.8333333"/>
		<circle style="&st5;" cx="471" cy="0.8333333" r="5.6666665"/>
	</g>
</g>
<g>
	<g>
		<g>
			<g>
				<text transform="matrix(1 0 0 1 608.2240601 364.5788574)" style="&st1; font-family:'Lato-Bold'; font-size:10px;">Lato Bold 30 pt</text>
			</g>
		</g>
	</g>
	<g>
		<line style="&st5;" x1="597.833313" y1="363.8333435" x2="469.8333435" y2="363.8333435"/>
		<circle style="&st5;" cx="464" cy="363.8333435" r="5.6666665"/>
	</g>
</g>
<g>
	<g>
		<g>
			<g>
				<text transform="matrix(1 0 0 1 607.3988647 616.5788574)" style="&st1; font-family:'Lato-Bold'; font-size:10px;">82 px Altura</text>
			</g>
		</g>
	</g>
	<g>
		<line style="&st5;" x1="597.833313" y1="615.833313" x2="439.8333435" y2="615.833313"/>
		<circle style="&st5;" cx="434" cy="615.833313" r="5.6666665"/>
	</g>
</g>
<g>
	<g>
		<g>
			<g>
				<text transform="matrix(1 0 0 1 608.2240601 287.5788574)" style="&st1; font-family:'Lato-Bold'; font-size:10px;">Lato Bold 30 pt</text>
			</g>
		</g>
	</g>
	<g>
		<line style="&st5;" x1="597.833313" y1="286.8333435" x2="476.8333435" y2="286.8333435"/>
		<circle style="&st5;" cx="471" cy="286.8333435" r="5.6666665"/>
	</g>
</g>
<g>
	<g>
		<g>
			<g>
				<text transform="matrix(1 0 0 1 608.0873413 260.5788574)" style="&st1; font-family:'Lato-Bold'; font-size:10px;">Lato Bold 40 pt</text>
			</g>
		</g>
	</g>
	<g>
		<line style="&st5;" x1="597.833313" y1="259.8333435" x2="523.833313" y2="259.8333435"/>
		<circle style="&st5;" cx="518" cy="259.8333435" r="5.6666665"/>
	</g>
</g>
<g>
	<g>
		<g>
			<g>
				<text transform="matrix(1 0 0 1 608.1439819 427.5788574)" style="&st1; font-family:'Lato-Bold'; font-size:10px;">50 px . 35 px</text>
			</g>
		</g>
	</g>
	<g>
		<line style="&st5;" x1="597.833313" y1="426.8333435" x2="401.8333435" y2="426.8333435"/>
		<circle style="&st5;" cx="396" cy="426.8333435" r="5.6666665"/>
	</g>
</g>
<g>
	<g>
		<g>
			<g>
				<text transform="matrix(1 0 0 1 607.9867554 474.5788574)" style="&st1; font-family:'Lato-Bold'; font-size:10px;">Lato Regular 20 pt</text>
			</g>
		</g>
	</g>
	<g>
		<line style="&st5;" x1="597.833313" y1="473.8333435" x2="401.8333435" y2="473.8333435"/>
		<circle style="&st5;" cx="396" cy="473.8333435" r="5.6666665"/>
	</g>
</g>
<g>
	<g>
		<g>
			<g>
				<text transform="matrix(1 0 0 1 608.1439819 531.5788574)" style="&st1; font-family:'Lato-Bold'; font-size:10px;">40 px . 35 px</text>
			</g>
		</g>
	</g>
	<g>
		<line style="&st5;" x1="597.833313" y1="530.833313" x2="387.8333435" y2="530.833313"/>
		<circle style="&st5;" cx="382" cy="530.833313" r="5.6666665"/>
	</g>
</g>
<g>
	<g>
		<g>
			<g>
				<text transform="matrix(1 0 0 1 607.9867554 573.5788574)" style="&st1; font-family:'Lato-Bold'; font-size:10px;">Lato Regular 20 pt</text>
			</g>
		</g>
	</g>
	<g>
		<line style="&st5;" x1="597.833313" y1="572.833313" x2="412.8333435" y2="572.833313"/>
		<circle style="&st5;" cx="407" cy="572.833313" r="5.6666665"/>
	</g>
</g>
<g>
	<g>
		<g>
			<g>
				<text transform="matrix(1 0 0 1 605.7338257 667.0788574)" style="&st1; font-family:'Lato-Bold'; font-size:10px;">50 px . 50 px</text>
			</g>
		</g>
	</g>
	<g>
		<g>
			<g>
				<text transform="matrix(1 0 0 1 605.7338257 728.5788574)" style="&st1; font-family:'Lato-Bold'; font-size:10px;">50 px . 50 px</text>
			</g>
		</g>
	</g>
	<g>
		<line style="&st5;" x1="597.833313" y1="666.333313" x2="399.8333435" y2="666.333313"/>
		<circle style="&st5;" cx="394" cy="666.333313" r="5.6666665"/>
	</g>
</g>
<g>
	<g>
		<line style="&st5;" x1="597.833313" y1="728.333313" x2="399.8333435" y2="728.333313"/>
		<circle style="&st5;" cx="394" cy="728.333313" r="5.6666665"/>
	</g>
</g>
<g>
	<g>
		<g>
			<text transform="matrix(1 0 0 1 608.144043 113.5789185)" style="&st1; font-family:'Lato-Bold'; font-size:10px;">50 px . 50 px</text>
		</g>
	</g>
</g>
<g>
	<line style="&st5;" x1="597.333313" y1="110.5" x2="394.6026001" y2="83.2375259"/>
	<circle style="&st5;" cx="389" cy="81.8333359" r="5.6666665"/>
</g>
<g>
	<line style="&st5;" x1="597.2015991" y1="110.6482391" x2="395.8543091" y2="151.0326691"/>
	
		<ellipse transform="matrix(0.8165587 -0.5772624 0.5772624 0.8165587 -16.4994698 253.3725128)" style="&st5;" cx="390.4129944" cy="152.6469421" rx="5.6666665" ry="5.6666665"/>
</g>
<g>
	<g>
		<g>
			<g>
				<g>
					<path style="&st1;" d="M367.6010742,447.8354492h-34.5741577c-2.8929138,0-5.2462769-2.2731628-5.2462769-5.0674438V423.313324
						c0-2.794281,2.353363-5.0674438,5.2462769-5.0674438h34.5741577c2.8928833,0,5.2462463,2.2731628,5.2462463,5.0674438
						v19.4546814C372.8473206,445.5622864,370.4939575,447.8354492,367.6010742,447.8354492z M333.0269165,420.3223267
						c-1.7067566,0-3.0965271,1.3424072-3.0965271,2.9909973v19.4546814c0,1.6485901,1.3897705,2.9909973,3.0965271,2.9909973
						h34.5741577c1.7067566,0,3.0965271-1.3424072,3.0965271-2.9909973V423.313324
						c0-1.6485901-1.3897705-2.9909973-3.0965271-2.9909973H333.0269165z"/>
				</g>
			</g>
		</g>
		<g>
			<g>
				<g>
					<path style="&st1;" d="M377.7806396,436.8511353c0,1.8574219-1.0600586,3.62323-2.6376953,4.657959
						c-0.7660522,0.5024414-4.5341187,1.8844604-3.7068787-0.4465942c0.3861694-1.0881348,1.895752-0.7683716,2.7386475-1.3176575
						c0.8838806-0.5759583,1.4478149-1.6538696,1.4478149-2.6745605c0-0.0097961,0-19.4546509,0-19.4546509
						c0-1.6485901-1.3952026-2.8493042-3.1086121-2.6752625l-34.7091064,3.5252075
						c-1.0958557,0.1112976-1.3034058,0.7019958-2.4465027,0.7019958c-0.6506958,0-0.4572449,0.0509644-1.6003723,0.0169983
						c-0.6559753-0.0195007,0.2504883-1.0617371,0.6953125-1.4075012c0.901062-0.7004395,2.1931152-1.2701111,3.351593-1.38797
						l34.7090759-3.5252075c2.9041748-0.2949524,5.2667236,1.7382507,5.2667236,4.5325623V436.8511353z"/>
				</g>
			</g>
		</g>
		<g>
			<g>
				<g>
					<path style="&st1;" d="M371.7724609,428.7192993h-42.9169617c-0.5940857,0-1.0748596-0.464386-1.0748596-1.0382385
						s0.4807739-1.0382385,1.0748596-1.0382385h42.9169617c0.5941162,0,1.0748596,0.464386,1.0748596,1.0382385
						S372.3665771,428.7192993,371.7724609,428.7192993z"/>
				</g>
			</g>
		</g>
		<g>
			<g>
				<g>
					<path style="&st1;" d="M371.7724609,439.4385071h-42.9169617c-0.5940857,0-1.0748596-0.464386-1.0748596-1.0382385
						s0.4807739-1.0382385,1.0748596-1.0382385h42.9169617c0.5941162,0,1.0748596,0.464386,1.0748596,1.0382385
						S372.3665771,439.4385071,371.7724609,439.4385071z"/>
				</g>
			</g>
		</g>
		<g>
			<g>
				<g>
					<path style="&st1;" d="M365.7807007,434.0788879h-9.0895081c-0.5941162,0-1.0748596-0.4643555-1.0748596-1.0382385
						c0-0.5738525,0.4807434-1.038208,1.0748596-1.038208h9.0895081c0.5941162,0,1.0748901,0.4643555,1.0748901,1.038208
						C366.8555908,433.6145325,366.3748169,434.0788879,365.7807007,434.0788879z"/>
				</g>
			</g>
		</g>
	</g>
</g>
<g>
	<g>
		<g>
			<g>
				<g>
					<g>
						<path style="&st1;" d="M313.1173706,616.0289917l-1.4007874,4.508667h-0.5449524l-1.1376343-3.4388428
							c-0.0104065-0.0334473-0.0201721-0.0690918-0.0296631-0.1069336c-0.009491-0.0377808-0.0192871-0.0773926-0.0296936-0.1195068
							c-0.0104065,0.0421143-0.020813,0.0817261-0.0314941,0.1195068c-0.0104065,0.0378418-0.020813,0.0734863-0.0312195,0.1069336
							l-1.1437683,3.4388428h-0.5449524l-1.4007874-4.508667h0.5045776c0.0544739,0,0.099762,0.0137939,0.1364746,0.0411377
							c0.0364075,0.0270386,0.059967,0.0617676,0.0703735,0.1038818l0.9274292,3.1333618
							c0.014679,0.0568848,0.0287476,0.1176758,0.0422058,0.1825562c0.0137939,0.0651245,0.0266418,0.1345825,0.0391846,0.2077026
							c0.014679-0.0731201,0.0296631-0.1431885,0.0455933-0.2089233c0.0155945-0.0664063,0.0327454-0.1266479,0.0516968-0.1813354
							l1.0559387-3.1333618c0.0122375-0.0356445,0.0370178-0.0688477,0.0734558-0.0992432
							c0.0367126-0.0304565,0.0810852-0.0457764,0.1330872-0.0457764h0.1756287
							c0.0541687,0,0.0982361,0.0137939,0.1315918,0.0411377c0.0333252,0.0270386,0.0584412,0.0617676,0.0752563,0.1038818
							l1.0525818,3.1333618c0.0189514,0.0546875,0.0361023,0.1137085,0.0516968,0.1763916
							c0.015625,0.0629883,0.0309143,0.1290283,0.0455933,0.1981812c0.0104065-0.0691528,0.0217285-0.1351929,0.0342712-0.1981812
							c0.0125427-0.0626831,0.0263062-0.1217041,0.0407104-0.1763916l0.9307861-3.1333618
							c0.0104065-0.038147,0.0339661-0.0712891,0.0703735-0.100769c0.0367126-0.029541,0.0810852-0.0442505,0.1330872-0.0442505
							H313.1173706z"/>
						<path style="&st1;" d="M313.2207947,617.8005981c0.1753235-0.1702271,0.3644409-0.296814,0.5669861-0.3809814
							c0.2025452-0.0835571,0.4271545-0.1256714,0.6737671-0.1256714c0.1774597,0,0.3350525,0.0291748,0.473053,0.0881958
							c0.1376953,0.0586548,0.2536621,0.1403809,0.3479004,0.2451782c0.0939331,0.1051025,0.164917,0.2319946,0.2129517,0.3809814
							c0.0480347,0.1487427,0.0718994,0.3125,0.0718994,0.4907227v2.0386353h-0.2475281
							c-0.0541687,0-0.0960693-0.008606-0.1251526-0.0264282c-0.0293579-0.0178223-0.0523071-0.0531616-0.0688477-0.1057129
							l-0.0627136-0.3016968c-0.0835266,0.0773926-0.1652222,0.1462402-0.2444763,0.2058716
							c-0.0795593,0.0595703-0.1627808,0.1099854-0.2506104,0.151123c-0.0877991,0.0405884-0.181427,0.0722046-0.2805786,0.0943604
							c-0.0991211,0.0217896-0.2092896,0.0328979-0.3304443,0.0328979c-0.1233215,0-0.2392883-0.0172119-0.3479004-0.0516357
							c-0.1086426-0.0350342-0.203186-0.0866699-0.2833557-0.1561279c-0.0804749-0.0690918-0.144104-0.1566772-0.1912231-0.2623901
							c-0.0471191-0.105957-0.0703735-0.2313232-0.0703735-0.3760376c0-0.1259766,0.0342712-0.2470703,0.1034241-0.3635254
							c0.0688171-0.1164551,0.1805115-0.2196655,0.335022-0.3099976c0.154541-0.0900269,0.3561707-0.1640625,0.60495-0.2218628
							c0.2484436-0.0574341,0.5531921-0.090332,0.914856-0.098938v-0.2485352c0-0.2473755-0.0532227-0.4348145-0.1600037-0.5617065
							c-0.1065063-0.1268921-0.2619324-0.1901855-0.4666443-0.1901855c-0.13797,0-0.2533264,0.0172119-0.346344,0.0516357
							c-0.0930176,0.034729-0.1734924,0.0737305-0.2411194,0.1167603c-0.0679321,0.0430298-0.1266785,0.0817261-0.1756287,0.1161499
							c-0.0489807,0.034729-0.0976257,0.0522461-0.1456604,0.0522461c-0.0376282,0-0.0700684-0.0101318-0.0969849-0.0301514
							c-0.0272522-0.0199585-0.0502014-0.0445557-0.0691528-0.0737305L313.2207947,617.8005981z M315.0223999,619.1030884
							c-0.257019,0.0083008-0.4757996,0.0288696-0.6566162,0.0611572c-0.180542,0.0325317-0.3280029,0.0752563-0.4418335,0.1278076
							c-0.1138306,0.0522461-0.1961365,0.1142578-0.2472534,0.1855469
							c-0.0513916,0.0712891-0.0767822,0.1508789-0.0767822,0.2390747c0,0.0838623,0.0134583,0.1560669,0.0406799,0.2169189
							c0.026947,0.0608521,0.06427,0.1105957,0.111084,0.1496582c0.0471191,0.0386963,0.1025085,0.0672607,0.1661377,0.085083
							c0.0636597,0.0178223,0.1322021,0.0264282,0.2053223,0.0264282c0.0982056,0,0.1878662-0.0098267,0.2692566-0.0297852
							c0.0816956-0.0200195,0.1582031-0.0488892,0.2304077-0.0863647c0.0722046-0.0380859,0.1410522-0.0829468,0.2068481-0.135498
							c0.0657654-0.0525513,0.1300354-0.1121216,0.192749-0.1791382V619.1030884z"/>
						<path style="&st1;" d="M316.9929199,615.9033203v4.6343384h-0.5578003v-4.6343384H316.9929199z"/>
						<path style="&st1;" d="M318.4720459,615.9033203v4.6343384h-0.5578003v-4.6343384H318.4720459z"/>
						<path style="&st1;" d="M321.9498291,620.0908813c-0.0688477,0.0842285-0.1514587,0.1570435-0.2475586,0.218811
							c-0.0960693,0.0620728-0.1988831,0.1127319-0.3084106,0.1524048c-0.1098633,0.039917-0.223053,0.0700073-0.340271,0.0897217
							c-0.1168823,0.0202637-0.2328491,0.0300903-0.3475952,0.0300903c-0.2193604,0-0.4213257-0.0374756-0.6064453-0.1118774
							c-0.1848145-0.0743408-0.3445435-0.1834106-0.4791565-0.3269043
							c-0.1349487-0.1437988-0.2398987-0.3214111-0.3148499-0.5333862c-0.0752869-0.2120361-0.112915-0.4553833-0.112915-0.7300415
							c0-0.2224731,0.0339661-0.4301758,0.1018982-0.6231079c0.067627-0.1929932,0.1655273-0.3601074,0.2928162-0.50177
							s0.28302-0.2528687,0.4669189-0.333374c0.1838989-0.0808105,0.3904419-0.1210327,0.6202393-0.1210327
							c0.1903076,0,0.3662415,0.0319214,0.5281067,0.0958252s0.3016968,0.1561279,0.4197998,0.2768555
							c0.1181335,0.1207275,0.2105408,0.2694702,0.2772217,0.4467773C321.9666443,618.2971191,322,618.4990234,322,618.7254639
							c0,0.0881958-0.009491,0.1468506-0.0281372,0.1763306c-0.0189819,0.029541-0.0544739,0.0439453-0.1065063,0.0439453
							h-2.1213379c0.0064087,0.2012939,0.0339355,0.3764038,0.0832214,0.5254517
							c0.0489502,0.1489868,0.1174927,0.2731323,0.2049866,0.3726807c0.0878296,0.0998535,0.1921692,0.1744995,0.313324,0.2236938
							c0.1211853,0.0491333,0.2570496,0.0737305,0.4072571,0.0737305c0.1401672,0,0.2607117-0.0159912,0.3619995-0.0485229
							c0.1012573-0.0325928,0.1884766-0.067627,0.2615967-0.1057129c0.0731506-0.0374756,0.1343384-0.0725098,0.1832886-0.1051025
							c0.0492554-0.0325317,0.0914917-0.0491333,0.1269836-0.0491333c0.0458984,0,0.0813904,0.0181274,0.1064758,0.053772
							L321.9498291,620.0908813z M321.4988098,618.5964355c0-0.1300049-0.0183716-0.2489014-0.0550842-0.3570557
							c-0.0364075-0.1081543-0.0896606-0.2012329-0.159729-0.2799072s-0.1551208-0.1395264-0.255188-0.1824951
							c-0.1003418-0.0430298-0.2141724-0.0645752-0.3417664-0.0645752c-0.2674255,0-0.4788513,0.0783691-0.6343079,0.234436
							c-0.1557312,0.1561279-0.2524414,0.3730469-0.2897644,0.6495972H321.4988098z"/>
						<path style="&st1;" d="M323.6354675,620.5880737c-0.2506104,0-0.4430542-0.0700684-0.5780029-0.2108154
							c-0.134613-0.1403809-0.2019348-0.3428955-0.2019348-0.6071167v-1.9508057h-0.3824768
							c-0.0333557,0-0.0615234-0.0098267-0.0844727-0.0297852c-0.0229187-0.0199585-0.0345459-0.0510254-0.0345459-0.0927734
							v-0.2236938l0.5201416-0.0657349l0.1285095-0.9851074c0.006134-0.031311,0.0205078-0.0571289,0.0422363-0.0767822
							c0.0220337-0.0199585,0.0507813-0.0301514,0.0863037-0.0301514h0.2817993v1.0981445h0.9182434v0.4058838h-0.9182434v1.9130249
							c0,0.1342163,0.0324402,0.2338257,0.09729,0.2989502c0.0645752,0.0651245,0.148407,0.0977173,0.2506104,0.0977173
							c0.0584412,0,0.1092224-0.0079956,0.1520691-0.0239868c0.0428467-0.0153809,0.0798645-0.0328979,0.1110535-0.0516357
							c0.0315247-0.019043,0.0581665-0.0362549,0.0798645-0.0522461c0.0220337-0.0153198,0.0413208-0.0233154,0.058136-0.0233154
							c0.0290833,0,0.0553894,0.0178223,0.0783386,0.0534668l0.1627808,0.2672729
							c-0.0960693,0.090332-0.2120361,0.1610107-0.3475952,0.2126465
							C323.9197388,620.5622559,323.7798767,620.5880737,323.6354675,620.5880737z"/>
					</g>
				</g>
			</g>
		</g>
	</g>
	<g>
		<g>
			<g>
				<g>
					<g>
						<path style="&st1;" d="M320.2392273,610.571167H309.406311c-0.9064331,0-1.6437988-0.71521-1.6437988-1.5944214v-6.1210327
							c0-0.8791504,0.7373657-1.5943604,1.6437988-1.5943604h10.8329163c0.9064026,0,1.6437988,0.71521,1.6437988,1.5943604
							v6.1210327C321.8830261,609.855957,321.1456299,610.571167,320.2392273,610.571167z M309.406311,601.9146729
							c-0.53479,0-0.9702148,0.4223633-0.9702148,0.94104v6.1210327c0,0.5187378,0.4354248,0.9411011,0.9702148,0.9411011
							h10.8329163c0.5347595,0,0.9702148-0.4223633,0.9702148-0.9411011v-6.1210327
							c0-0.5186768-0.4354553-0.94104-0.9702148-0.94104H309.406311z"/>
					</g>
				</g>
			</g>
			<g>
				<g>
					<g>
						<path style="&st1;" d="M323.4287415,607.1151123c0,0.5844116-0.3321533,1.1400146-0.8264465,1.4655762
							c-0.2400208,0.1580811-1.4206543,0.5928955-1.1614685-0.1405029c0.1210022-0.3424072,0.5939941-0.2417603,0.8580933-0.4146118
							c0.276947-0.1812134,0.4536438-0.5203247,0.4536438-0.8414917c0-0.0030518,0-6.1210327,0-6.1210327
							c0-0.5186768-0.4371643-0.8964844-0.9740295-0.8417358l-10.8751831,1.1091309
							c-0.3433838,0.0350342-0.4083862,0.2208862-0.766571,0.2208862c-0.2038574,0-0.1432495,0.0160522-0.5014343,0.0053711
							c-0.2055359-0.0061646,0.0784912-0.3340454,0.217865-0.4428711c0.2823181-0.2203369,0.6871643-0.3995972,1.0501404-0.4367065
							l10.8751831-1.1091309c0.9099731-0.0927734,1.6502075,0.546936,1.6502075,1.4260864V607.1151123z"/>
					</g>
				</g>
			</g>
			<g>
				<g>
					<g>
						<path style="&st1;" d="M321.5462341,604.5566406h-13.4469299c-0.1861572,0-0.336792-0.1461182-0.336792-0.3266602
							c0-0.180603,0.1506348-0.3266602,0.336792-0.3266602h13.4469299c0.1861572,0,0.336792,0.1460571,0.336792,0.3266602
							C321.8830261,604.4105225,321.7323914,604.5566406,321.5462341,604.5566406z"/>
					</g>
				</g>
			</g>
			<g>
				<g>
					<g>
						<path style="&st1;" d="M321.5462341,607.9291992h-13.4469299c-0.1861572,0-0.336792-0.1461182-0.336792-0.3266602
							s0.1506348-0.3266602,0.336792-0.3266602h13.4469299c0.1861572,0,0.336792,0.1461182,0.336792,0.3266602
							S321.7323914,607.9291992,321.5462341,607.9291992z"/>
					</g>
				</g>
			</g>
			<g>
				<g>
					<g>
						<path style="&st1;" d="M319.6688538,606.2429199h-2.8479614c-0.1861572,0-0.3367615-0.1461182-0.3367615-0.3266602
							s0.1506042-0.3266602,0.3367615-0.3266602h2.8479614c0.1861572,0,0.336792,0.1461182,0.336792,0.3266602
							S319.855011,606.2429199,319.6688538,606.2429199z"/>
					</g>
				</g>
			</g>
		</g>
	</g>
</g>
<g>
	<g>
		<g>
			<text transform="matrix(1 0 0 1 336.6643066 -296.092041)" style="&st2; font-family:'Lato-Bold'; font-size:21.2112293px;">Chuleta de puerco en salsa BB</text>
		</g>
	</g>
</g>
<g>
	<line style="&st6;" x1="461.6549988" y1="-266.8421936" x2="496.3450012" y2="-266.8421936"/>
	<line style="&st6;" x1="480.2289429" y1="-269.6830139" x2="474.5473022" y2="-264.0013733"/>
	<line style="&st6;" x1="483.0697937" y1="-269.6830139" x2="477.3881226" y2="-264.0013733"/>
</g>
<g>
	<g>
		<text transform="matrix(1 0 0 1 339.9775391 673.1835938)" style="font-family:'Lato-Regular'; font-size:12px;">Send</text>
	</g>
</g>
<g>
	<path style="&st2;" d="M352.7806396,704.1937866c-13.8071289,0-25,11.1928711-25,25s11.1928711,25,25,25
		c13.8071899,0,25-11.1928711,25-25S366.5878296,704.1937866,352.7806396,704.1937866z"/>
</g>
<g>
	<g>
		<text transform="matrix(1 0 0 1 331.4443359 733.1132813)" style="font-family:'Lato-Regular'; font-size:12px;">Recieve</text>
	</g>
</g>
<g>
	<g>
		<path style="&st1;" d="M18.0210171,24.593565l-7.5862341-7.3983364l-7.0721517,6.896986L0,20.814394L11.0988712,9.9904213
			l7.4440403,7.2596664l11.88484-11.4045639L27.971405,3.4515412L40,0l-2.9751167,11.6072359L34.282589,8.9328632
			L18.0210171,24.593565z M10.434783,15.5403166l7.5924845,7.4044333L34.2888412,7.2840476l2.0860176,2.0343518l1.9532013-7.6177726
			l-8.0784416,2.31779l1.8813248,1.8332028L18.5366611,18.8989029l-7.4377899-7.2535706L1.6969413,20.814394l1.6656901,1.6229095
			L10.434783,15.5403166z"/>
	</g>
	<g>
		<path style="&st1;" d="M13.8677292,35H2.2688386v-8.2288399l8.1893826-7.9865475l3.4095078,3.3250618V35z M3.4688854,33.8296776
			h9.1987972V22.5942612l-2.2094612-2.1547375l-6.989336,6.8162231V33.8296776z"/>
	</g>
	<g>
		<path style="&st1;" d="M23.5134182,35h-9.0222273V22.6689301l3.5970163,3.509449l5.425211-5.4797993V35z M15.6912384,33.8296776
			h6.6221333V23.5969601l-4.2095394,4.2515678l-2.4125938-2.3543625V33.8296776z"/>
	</g>
	<g>
		<path style="&st1;" d="M34.0716438,35h-9.9222622V20.0661793l9.9222622-9.676507V35z M25.3494282,33.8296776h7.5221691v-20.614769
			l-7.5221691,7.3358583V33.8296776z"/>
	</g>
</g>
</svg>
