<?xml version="1.0" encoding="utf-8"?>
<!-- Generator: Adobe Illustrator 21.0.0, SVG Export Plug-In . SVG Version: 6.00 Build 0)  -->
<!DOCTYPE svg PUBLIC "-//W3C//DTD SVG 1.1//EN" "http://www.w3.org/Graphics/SVG/1.1/DTD/svg11.dtd" [
	<!ENTITY ns_extend "http://ns.adobe.com/Extensibility/1.0/">
	<!ENTITY ns_ai "http://ns.adobe.com/AdobeIllustrator/10.0/">
	<!ENTITY ns_graphs "http://ns.adobe.com/Graphs/1.0/">
	<!ENTITY ns_vars "http://ns.adobe.com/Variables/1.0/">
	<!ENTITY ns_imrep "http://ns.adobe.com/ImageReplacement/1.0/">
	<!ENTITY ns_sfw "http://ns.adobe.com/SaveForWeb/1.0/">
	<!ENTITY ns_custom "http://ns.adobe.com/GenericCustomNamespace/1.0/">
	<!ENTITY ns_adobe_xpath "http://ns.adobe.com/XPath/1.0/">
	<!ENTITY st0 "fill:#EE9918;">
	<!ENTITY st1 "fill:#FFFFFF;">
	<!ENTITY st2 "fill:#D08A29;">
	<!ENTITY st3 "fill:url(#SVGID_1_);">
	<!ENTITY st4 "fill:none;stroke:#D08A29;stroke-width:0.5;stroke-miterlimit:10;">
	<!ENTITY st5 "fill:none;stroke:#FFFFFF;stroke-miterlimit:10;">
	<!ENTITY st6 "fill:none;stroke:#FFFFFF;stroke-width:2;stroke-linecap:round;stroke-linejoin:round;stroke-miterlimit:10;">
	<!ENTITY st7 "fill:none;">
	<!ENTITY st8 "fill:#E4A523;">
]>
<svg version="1.1" id="Layer_1" xmlns:x="&ns_extend;" xmlns:i="&ns_ai;" xmlns:graph="&ns_graphs;"
	 xmlns="http://www.w3.org/2000/svg" xmlns:xlink="http://www.w3.org/1999/xlink" x="0px" y="0px" viewBox="0 0 219 126"
	 style="enable-background:new 0 0 219 126;" xml:space="preserve">
<metadata>
	<x:xmpmeta  x:xmptk="Adobe XMP Core 5.6-c137 79.159768, 2016/08/11-13:24:42        " xmlns:x="adobe:ns:meta/">
		<rdf:RDF  xmlns:rdf="http://www.w3.org/1999/02/22-rdf-syntax-ns#">
			
				<rdf:Description  rdf:about="" xmlns:dc="http://purl.org/dc/elements/1.1/" xmlns:illustrator="http://ns.adobe.com/illustrator/1.0/" xmlns:pdf="http://ns.adobe.com/pdf/1.3/" xmlns:stDim="http://ns.adobe.com/xap/1.0/sType/Dimensions#" xmlns:stEvt="http://ns.adobe.com/xap/1.0/sType/ResourceEvent#" xmlns:stFnt="http://ns.adobe.com/xap/1.0/sType/Font#" xmlns:stRef="http://ns.adobe.com/xap/1.0/sType/ResourceRef#" xmlns:xmp="http://ns.adobe.com/xap/1.0/" xmlns:xmpG="http://ns.adobe.com/xap/1.0/g/" xmlns:xmpGImg="http://ns.adobe.com/xap/1.0/g/img/" xmlns:xmpMM="http://ns.adobe.com/xap/1.0/mm/" xmlns:xmpTPg="http://ns.adobe.com/xap/1.0/t/pg/">
				<dc:format>image/svg+xml</dc:format>
				<dc:title>
					<rdf:Alt>
						<rdf:li  xml:lang="x-default">Basic RGB</rdf:li>
					</rdf:Alt>
				</dc:title>
				<xmp:CreatorTool>Adobe Illustrator CC 2017 (Windows)</xmp:CreatorTool>
				<xmp:CreateDate>2018-02-12T16:23:02-08:00</xmp:CreateDate>
				<xmp:ModifyDate>2018-02-12T16:23:02-08:00</xmp:ModifyDate>
				<xmp:MetadataDate>2018-02-12T16:23:02-08:00</xmp:MetadataDate>
				<xmp:Thumbnails>
					<rdf:Alt>
						<rdf:li  rdf:parseType="Resource">
							<xmpGImg:width>256</xmpGImg:width>
							<xmpGImg:height>208</xmpGImg:height>
							<xmpGImg:format>JPEG</xmpGImg:format>
							<xmpGImg:image>/9j/4AAQSkZJRgABAgEASABIAAD/7QAsUGhvdG9zaG9wIDMuMAA4QklNA+0AAAAAABAASAAAAAEA
AQBIAAAAAQAB/+4ADkFkb2JlAGTAAAAAAf/bAIQABgQEBAUEBgUFBgkGBQYJCwgGBggLDAoKCwoK
DBAMDAwMDAwQDA4PEA8ODBMTFBQTExwbGxscHx8fHx8fHx8fHwEHBwcNDA0YEBAYGhURFRofHx8f
Hx8fHx8fHx8fHx8fHx8fHx8fHx8fHx8fHx8fHx8fHx8fHx8fHx8fHx8fHx8f/8AAEQgA0AEAAwER
AAIRAQMRAf/EAaIAAAAHAQEBAQEAAAAAAAAAAAQFAwIGAQAHCAkKCwEAAgIDAQEBAQEAAAAAAAAA
AQACAwQFBgcICQoLEAACAQMDAgQCBgcDBAIGAnMBAgMRBAAFIRIxQVEGE2EicYEUMpGhBxWxQiPB
UtHhMxZi8CRygvElQzRTkqKyY3PCNUQnk6OzNhdUZHTD0uIIJoMJChgZhJRFRqS0VtNVKBry4/PE
1OT0ZXWFlaW1xdXl9WZ2hpamtsbW5vY3R1dnd4eXp7fH1+f3OEhYaHiImKi4yNjo+Ck5SVlpeYmZ
qbnJ2en5KjpKWmp6ipqqusra6voRAAICAQIDBQUEBQYECAMDbQEAAhEDBCESMUEFURNhIgZxgZEy
obHwFMHR4SNCFVJicvEzJDRDghaSUyWiY7LCB3PSNeJEgxdUkwgJChgZJjZFGidkdFU38qOzwygp
0+PzhJSktMTU5PRldYWVpbXF1eX1RlZmdoaWprbG1ub2R1dnd4eXp7fH1+f3OEhYaHiImKi4yNjo
+DlJWWl5iZmpucnZ6fkqOkpaanqKmqq6ytrq+v/aAAwDAQACEQMRAD8A9U4q7FXYq7FXYq7FXYq7
FXYq7FXYq7FXYq7FXYq7FXYq7FXYq7FXYq7FXYqkMuh679ZknttZaDm8jBWjMylXbkqlJH4rwHwj
gBt7nMGWmy8RMclc+l/eenLanKGbHVGF/Z+j72rbRPMkNxC7a40sEcimSF4VPOMcSV5VqCeJFd+u
CGmzAj95Yvu6JlmxkH0b+9oaL5ojWf09cLyTFeDvAlI/3nJiFPIH4PhA2Hywfl84usnPy5b/AKl8
bEa9H2t/obzSeVfMBBIUKy2sNNia1U16g9jh/L5/9U/2IXxsX8z7SqPpPmQxwqNcKyIriWUW0Xxs
z1U8Onwr8OSODNQ/eb/1QxGXHZ9H2lTn0bzLJeNMmtenCJeccIhFAnMngdxy+A03yMtPmMr8Ta+V
ef6mUc2ICuDf3oe58s+Yrjgza7KkghWNzGGjUuHLF+KsBWm2Vz0eaX+UPL3Mo6nGP4BzZOOgrmzc
J2KuxV2KuxV2KuxV2KuxV2KuxV2KuxV2KuxV2KuxV2KuxV2KuxV2KuxV2KuxV2KuxV2KuxV2KuxV
2KuxV2KuxV2KuxV2KuxV2KuxV2KuxV2KuxV2KuxV2KuxV2KuxV2KuxV2KuxV2KuxV2KuxV2KuxV2
KuxV2KuxV2KuxV2KuxV2KuxV2KuxV2KuxV2KuxV2KuxV2KuxV2KuxV2KuxV2KuxV2KpTql7r1veK
tjZLdWvphm+LgxkLUIDE0AC79MxM2TLGXpjxRr7XIxQxmPqNFCrq/m0H49CWrkcQLqOiqUqQ7UO4
buBlQz6jrj/2QZnFh/n/AGKuk6xrd5LJ9Z0prSBVbi7ueRdZOIXiVB+x8XIZPBqMsyeKHCP2/q3Y
5cMIjaVlNhNJQVgcHuKp/wA1Zl8R7mih3t+rJ/vl/vT/AJqx4j3LXm71ZP8AfL/en/NWPEe5a83e
rJ/vl/vT/mrHiPctea9GLCpUp7Gn8CcIKC3hQ7FXYq7FXYq7FXYq7FXYq7FXYq7FXYq7FXYq7FXY
q7FXYq7FXYq7FXYq7FXYq7FXYq7FXYq7FXYq7FXYq7FXYq7FXYq7FXYq7FXYq7FXYq7FXYq7FXYq
7FXYq7FXYq7FXYq7FXYq7FXYq7FXYq7FXYq7FXYq7FXYq7FXYq7FXYq7FXYq7FXYq7FXYq7FXYq7
FXYq7FXYq7FXYq7FXYq7FXYq7FXYq7FXYq7FXYq7FXYq7FXYq7FXYq7FXYq7FXYq7FXYq7FXYq7F
XYq7FXYq7FVK7uobW1luZjSKFGkcjc0UVNMry5RjgZy5RFs8cDOQiOZYPF+Zspux6tiFsiRUhiZA
p/a6UPyzlo+0x494ej7Xdy7FHDtL1fYzxHV0V0NVYBlPiDuM6yJBFh0RFGm8KHYq7FXYq7FXYq7F
XYq7FVIyyiRl9Fio+ywK7/eRkeI3yZUO9v1ZP98v96f81Y8R7lrzd6sn++X+9P8AmrHiPctea5GZ
q1Qp86fwJwgoIXYUOxV2KuxV2KuxV2KuxV2KuxV2KuxV2KuxV2KuxVRvrSO8s57SQkRzo0bEdQGF
KjKs+IZIGB5SFM8WQwkJDoXn0X5Z6p9a9OW4hFpyq0q8uZUeCkdfpzj4ezWXjoyjwd/X5PQS7Zx8
NgHieixxrHGkaCiIAqj2AoM7OMREADo86TZtjetefNN0y9azEL3EsZpMVIVVPhU9Tmk1vb2LBk4K
MiObstN2XPLHiugU70rVLTVLKO8tSTE9RRtmUjqrDxza6XVQz4xOHIuFnwSxSMZc0XmQ0uxV2Kux
VQOoWAl9I3MXq8uHp815cv5aVrXK/FhdWLZ+HKroq+WMHYq7FXYq7FXYq7FXYq7FXYq7FXYq7FXY
q7FXYq7FXYq7FXYq7FXYq7FXYq7FXm/mTyVrbavcXNlD9ZgupGlBDKCrOakEMR3O2cT2l2LnOaUs
Y4oyN+63pNH2ji8MRkaMRTLvKOiTaPpAtp2BnkcyyhTUKWAHEH2CjOj7I0UtNh4ZfUTZdRr9SM2T
iHLknWbNwnYq7FVG89Y2c4gr63pv6VKV5cTxpXbrkMl8JrnTKFWL5MCWfVX1UqYrdLWKM+mxaRYW
tC1Cp/dsp3NCrfHy9854jIcn8IAHnXD3cvsO9u2qAh1s/O/n+xm9lJdrawLNC7MIk5MSvLlxHLlU
jeub7GZCIsdA6uYFmiiPXA+0jqfDiW/4jyyziY8LvrMH7ThT4N8J+5qHHjC8JXqysoZSGU9CNxhB
tjTeFXYq7FXYq7FXYq7FXYq7FXYq7FXYq7FXYq7FXYq7FXYq7FXYq7FXYq7FXYq7FXYq7FUqbVPL
I1D02ntvr3KlTx58+lOXj265gnWabxOHijx/pcr8vm4LqXCmuZziuJAFTsB1OKqf1mE/Zbn/AKgL
/fxrkeMMuErGVJGLfVgxP7bhQD8+rfhkSAeieXVb9WkPQiIfyqzkfgUA+7HgPu+f7F4laKJowQ0j
SeHLjt9wH45KIrqxJtfkkOxV2KuxV2KuxV2KuxV2KuxV2KuxV2KuxV2KuxV2KuxV2KuxV2KuxV2K
uxVRvUmeznSA8Z2jcRGtKOVIXf55VmEjCQj9VGvezxkCQJ5W8RNrdC5+rGJ/rPLh6PE8+Xhx61zy
44p8XDR4u7q9vxx4eK9nsunWlytnai6lYyrBGsyBiP3gQBjUHxrnpumxyGOImfVwi/fTxeacTI8I
2sosW8INeAZh+03xH7zU5fwBq4iqZJDsVdirsVdirsVdirsVdirsVdirsVdirsVdirsVdirsVdir
sVdirsVdirsVdirsVdirsVdirXBOXPiOXTlTf78FC7TZbwodirsVdirsVdirsVdirsVdirsVdirs
VdirsVdirsVdirsVdirsVdirsVdirsVdirsVQmr8v0Zc8HlRuB4tbqWlr4KFVm36bCvy65Tn+g8/
hzbMX1Dl8Upgt5bprOfnfQNHbCS6kLXC1cJ6aoIX+Bm5cnPwHoOvLMWMTLhPrFR3+r3cjt58u7vb
5SEbHpO+3L7/ANqDS4v2s9OCLqDXKTBW5rcJ8Hr1YvySjn06D96QtDUbjKROfDGuO7/pd/u32/nb
fFtMY3L6ary7v1926Bt7rzKtiy+ndglkd5JEupWd0QsYwtIpI/UcDkUJjXoDSuUQnmEeUun849OX
Qizzr0hslHFxdP8AYj9YNfNOLCTURf3wczj1wwjleO54QysxCIoZnidQN+aKo8dzmZiM+OV3v5S2
PzojzFebjzEeEctvdv8Ap+BS5H8zW9pAQk1JJWlWE/WbhmMYRFieQ+nJEsrcpKvsvQim2Y4OeMRz
53/EeVCr2IB3O+wbiMRJ5cvIfHuNctkb5g5td3It/r8dxHbu0bQfXDFJM0bCNV9OsI49Sf5qe+Xa
qzI1x2Inlx0TW3L0/tasHIXw1fXh5X81G0TzFDcxmNJ2a3M7tZySSSRsp9BFQXEtOdQXkQnofh2o
chjGYEVe17Wa/h24jz6kfJlM4yOm9b/PoPgPtTbQXuoLaWLUpma5E8hLyVAILEjhy/Y68R4Zl6Uy
jEiZ9Vn8e7uaM4BNxG1Jn9Ztv9+p/wAEMyeOPe08J7lySRvXgwanWhB/VhBB5IIpdhQ7FXYq7FXY
q7FXYq7FXYq7FXYq7FXYq7FXYq7FXYq7FXYq7FXYq7FXYq7FXYq7FXYq7FVItc+owCKU/ZJYg/gD
kLlbLZ1bitfTSvSvM/8ANOHfu/HyXZvlc/77T/gz/wA043Lu/HyXZchkNeahfChJ/WBhF9UFdhQ7
FXYq7FXYq7FXYq7FXYq7FXYq7FXYq7FXYq7FXYq7FXYq7FXYq7FXYq7FXYq7FXYq7FXYq7FXYq7F
XYq7FXYq7FXYq7FXYq7FXYq7FXYq7FXYq7FXYq7FXYq7FXYq7FXYq7FXYq7FXYq7FXYq7FVJVut6
yJ12+En/AI2GQAl3srDfG5/34n/AH/mrDUu/8fNdncbn/fif8Af+asal3/j5rsuQSCvNg3hQEfrJ
wi+qCuwodirsVdirsVdirsVdirsVdirsVdirsVdirsVdirsVdirsVdirsVdirsVdirsVdiqx54UY
K7hSfE0/z6ZEyA5pESWvrNt/v1P+CGPHHvTwnud9Ztv9+p/wQx44968J7nfWbb/fqf8ABDHjj3rw
nud9Ztv9+p/wQx44968J7lySRvXgwanWhB/VhBB5IIpdhQ7FXYq7FXYq7FXYq7FXYq7FXYq7FXYq
7FXYq7FXYq7FXYq7FXYq7FXYq7FXYq7FWiE5itOdDTxp3wK3hV2KuxV2KuxV2KuxV2KuxV2KuxV2
KuxV2KuxV2KuxV2KuxV2KuxV2KuxV2KuxV2KuxV2KuxV2KuxVTe3hkYM6BiOldx37fSciYg80iRD
vq1t/vpP+BGPBHuTxHvd9Wtv99J/wIx4I9y8R73fVrb/AH0n/AjHgj3LxHvd9Wtv99J/wIx4I9y8
R71yRxpXgoWvWgA/VhAA5IJtdhQ7FXYq7FXYq7FXYq7FXYq7FXYq7FXYq7FXYq7FXYq7FXYq7FXY
q7FXYq7FXYq7FVFVu9+Tp12+Enb7xkAJMtl3G5/34n/AH/mrDUu/8fNdncbn/fif8Af+asal3/j5
rs7jc/78T/gD/wA1Y1Lv/HzXZ3G5/wB+J/wB/wCasal3/j5rsuQSCvNg3hQEfrJwi+qCuwodirsV
dirsVdirsVdirsVdirsVdirsVdirsVdirsVdirsVdirsVdirsVdirsVdiqyX1eP7qgb/ACumCV9E
iurXG5/34n/AH/mrBUu/8fNOzuNz/vxP+AP/ADVjUu/8fNdncbn/AH4n/AH/AJqxqXf+PmuzuNz/
AL8T/gD/AM1Y1Lv/AB812XIJBXmwbwoCP1k4RfVBXYUOxV2KuxV2KuxV2KuxV2KuxV2KuxV2KuxV
2KuxV2KuxV2KuxV2KuxV2KpJ5v0/U7/SRBp1frAlVjR+HwgGu5I8c1fa+ny5cPDi+q++nO7Pywx5
LnypjVp5c81xabPDIgaeTlwZnV2AIFKPzBXcZpMXZurjilEj1HzB+29nZZNZpzMEcvx0pAL5P86F
gGLha7kTg0H/AAWYY7H13n/pv2t57Q034H7EdqflTzLIkAs+S+mgR1EoUsdyXZi7Ek+GZep7K1RA
4Ogrn9v1NGHXYATxdfL7OTK/L9tqlppNrbXSqZo0IkLPU8ixI+Icq7Z0PZ+LLjwxjP6gN9/N1Orn
CeQyjyTLlc/77T/gz/zTmbcu78fJx9ncrn/faf8ABn/mnG5d34+S7O5XP++0/wCDP/NONy7vx8l2
XIZDXmoXwoSf1gYRfVBXYUOxV2KuxV2KuxV2KuxV2KuxV2KuxV2KuxV2KuxV2KuxV2KuxV2KuxV2
KvC/+cofzX8yeTbLRNH8v3iaTda407XGsSIz+jFb8PhQKkp5OZNyEJA6dahVjP5Ffm355Xz9J5M8
zazF5nt7rT21CC+iBLQSLEJ+HqlI+aPH4gjdeJ61hklwxJ7gyjGyA9J/xV5imE2opqUaCGj/AFID
szhQvEruN9zX6a5w38q6mV5RkAr+H41yr7f0vTfkcMagYHfq9D0/UxdWNrcNGym4hSUhQWALCpG1
TnZ6bUeJjjOvqiC87mw8EzHuNIr6xH4P/wAA/wDTL+MfgNfC76xH4P8A8A/9MeMfgLwu+sR+D/8A
AP8A0x4x+AvC76xH4P8A8A/9MeMfgLwrkkV60BFPFSv6wMINoIXYUOxV2KuxV2KuxV2KuxV2KuxV
2KuxV2KuxV2KuxV2KuxV2KuxV2KuxV2KvK/+ci9H/K698jrc+f5pbS3tJqaZd2lDeC4kX+7gUhg/
NU+JWHGgqaUBCrBf+cYpPyOOsX7eWLrUrjzQ9uIz+nhEtx9Tj4qVthCWi4AKvIci1AOi4lXoM8fk
Eaq6Ce7W3Z/3gjA+r7HpX+8419vlnDZI9n+MRc+G+n0/rp6eJ1fh3Ub+39T0qBYVgjWAAQhQIgv2
eIHw09qZ28BERAj9PR5qRJJvmvyTF2KuxV2KuxV2KuxV2KuxV2KuxV2KuxV2KuxV2KuxV2KuxV2K
uxV2KuxV2KuxV2KuxV2KvFf+coPy981+adA0XU/LNsuoX3l+6e4k0wqHM0cgUEqjfDJxMYqncE08
Cq8v/In8pPN0/wCY1pr0nl+78qeXNGt7pYlv0aK6mmu4ZIuPxrHJJQzH4uNAiAfaO9eWHFAx5WKZ
QlwyB7nsTeW9cjJsf0ZI90CY0ugtYvTY1rypxr4EnoflnAns3UD934ZMuXF0r38vj3H3PVDWYj6+
McPd1t6Vp2nSWthaW5mbnbwpExWlCVFDTkDncabAceOMSfpiA81myic5SrmbRXpSf7+f7k/5pzI4
T3tV+TvSk/38/wByf8048J71vyd6Un+/n+5P+aceE9635O9KT/fz/cn/ADTjwnvW/JcistauX+dP
4AYQEErsKHYq/wD/2Q==
								</xmpGImg:image>
						</rdf:li>
					</rdf:Alt>
				</xmp:Thumbnails>
				<xmpMM:OriginalDocumentID>uuid:9E3E5C9A8C81DB118734DB58FDDE4BA7</xmpMM:OriginalDocumentID>
				<xmpMM:DocumentID>xmp.did:73f2b17d-a1e8-b44f-bef9-69c680bb160e</xmpMM:DocumentID>
				<xmpMM:InstanceID>xmp.iid:73f2b17d-a1e8-b44f-bef9-69c680bb160e</xmpMM:InstanceID>
				<xmpMM:RenditionClass>proof:pdf</xmpMM:RenditionClass>
				<xmpMM:DerivedFrom  rdf:parseType="Resource">
					<stRef:instanceID>xmp.iid:0ef43356-c194-c845-986d-503afeb22609</stRef:instanceID>
					<stRef:documentID>xmp.did:0ef43356-c194-c845-986d-503afeb22609</stRef:documentID>
					<stRef:originalDocumentID>uuid:9E3E5C9A8C81DB118734DB58FDDE4BA7</stRef:originalDocumentID>
					<stRef:renditionClass>proof:pdf</stRef:renditionClass>
				</xmpMM:DerivedFrom>
				<xmpMM:History>
					<rdf:Seq>
						<rdf:li  rdf:parseType="Resource">
							<stEvt:action>saved</stEvt:action>
							<stEvt:instanceID>xmp.iid:29d1a69e-f842-4e46-a0e0-9d6711be85d8</stEvt:instanceID>
							<stEvt:when>2018-02-12T15:50:59-08:00</stEvt:when>
							<stEvt:softwareAgent>Adobe Illustrator CC 2017 (Windows)</stEvt:softwareAgent>
							<stEvt:changed>/</stEvt:changed>
						</rdf:li>
						<rdf:li  rdf:parseType="Resource">
							<stEvt:action>saved</stEvt:action>
							<stEvt:instanceID>xmp.iid:73f2b17d-a1e8-b44f-bef9-69c680bb160e</stEvt:instanceID>
							<stEvt:when>2018-02-12T16:23:02-08:00</stEvt:when>
							<stEvt:softwareAgent>Adobe Illustrator CC 2017 (Windows)</stEvt:softwareAgent>
							<stEvt:changed>/</stEvt:changed>
						</rdf:li>
					</rdf:Seq>
				</xmpMM:History>
				<illustrator:StartupProfile>Basic RGB</illustrator:StartupProfile>
				<xmpTPg:NPages>1</xmpTPg:NPages>
				<xmpTPg:HasVisibleTransparency>False</xmpTPg:HasVisibleTransparency>
				<xmpTPg:HasVisibleOverprint>False</xmpTPg:HasVisibleOverprint>
				<xmpTPg:MaxPageSize  rdf:parseType="Resource">
					<stDim:w>50.000000</stDim:w>
					<stDim:h>50.000000</stDim:h>
					<stDim:unit>Pixels</stDim:unit>
				</xmpTPg:MaxPageSize>
				<xmpTPg:Fonts>
					<rdf:Bag>
						<rdf:li  rdf:parseType="Resource">
							<stFnt:fontName>Lato-Regular</stFnt:fontName>
							<stFnt:fontFamily>Lato</stFnt:fontFamily>
							<stFnt:fontFace>Regular</stFnt:fontFace>
							<stFnt:fontType>TrueType</stFnt:fontType>
							<stFnt:versionString>Version 2.015; 2015-08-06; http://www.latofonts.com/</stFnt:versionString>
							<stFnt:composite>False</stFnt:composite>
							<stFnt:fontFileName>Lato-Regular_0.ttf</stFnt:fontFileName>
						</rdf:li>
						<rdf:li  rdf:parseType="Resource">
							<stFnt:fontName>Lato-Bold</stFnt:fontName>
							<stFnt:fontFamily>Lato</stFnt:fontFamily>
							<stFnt:fontFace>Bold</stFnt:fontFace>
							<stFnt:fontType>TrueType</stFnt:fontType>
							<stFnt:versionString>Version 2.015; 2015-08-06; http://www.latofonts.com/</stFnt:versionString>
							<stFnt:composite>False</stFnt:composite>
							<stFnt:fontFileName>Lato-Bold_0.ttf</stFnt:fontFileName>
						</rdf:li>
					</rdf:Bag>
				</xmpTPg:Fonts>
				<xmpTPg:PlateNames>
					<rdf:Seq>
						<rdf:li>Cyan</rdf:li>
						<rdf:li>Magenta</rdf:li>
						<rdf:li>Yellow</rdf:li>
						<rdf:li>Black</rdf:li>
					</rdf:Seq>
				</xmpTPg:PlateNames>
				<xmpTPg:SwatchGroups>
					<rdf:Seq>
						<rdf:li  rdf:parseType="Resource">
							<xmpG:groupName>Default Swatch Group</xmpG:groupName>
							<xmpG:groupType>0</xmpG:groupType>
							<xmpG:Colorants>
								<rdf:Seq>
									<rdf:li  rdf:parseType="Resource">
										<xmpG:swatchName>White</xmpG:swatchName>
										<xmpG:mode>RGB</xmpG:mode>
										<xmpG:type>PROCESS</xmpG:type>
										<xmpG:red>255</xmpG:red>
										<xmpG:green>255</xmpG:green>
										<xmpG:blue>255</xmpG:blue>
									</rdf:li>
									<rdf:li  rdf:parseType="Resource">
										<xmpG:swatchName>Black</xmpG:swatchName>
										<xmpG:mode>RGB</xmpG:mode>
										<xmpG:type>PROCESS</xmpG:type>
										<xmpG:red>0</xmpG:red>
										<xmpG:green>0</xmpG:green>
										<xmpG:blue>0</xmpG:blue>
									</rdf:li>
									<rdf:li  rdf:parseType="Resource">
										<xmpG:swatchName>RGB Red</xmpG:swatchName>
										<xmpG:mode>RGB</xmpG:mode>
										<xmpG:type>PROCESS</xmpG:type>
										<xmpG:red>255</xmpG:red>
										<xmpG:green>0</xmpG:green>
										<xmpG:blue>0</xmpG:blue>
									</rdf:li>
									<rdf:li  rdf:parseType="Resource">
										<xmpG:swatchName>RGB Yellow</xmpG:swatchName>
										<xmpG:mode>RGB</xmpG:mode>
										<xmpG:type>PROCESS</xmpG:type>
										<xmpG:red>255</xmpG:red>
										<xmpG:green>255</xmpG:green>
										<xmpG:blue>0</xmpG:blue>
									</rdf:li>
									<rdf:li  rdf:parseType="Resource">
										<xmpG:swatchName>RGB Green</xmpG:swatchName>
										<xmpG:mode>RGB</xmpG:mode>
										<xmpG:type>PROCESS</xmpG:type>
										<xmpG:red>0</xmpG:red>
										<xmpG:green>255</xmpG:green>
										<xmpG:blue>0</xmpG:blue>
									</rdf:li>
									<rdf:li  rdf:parseType="Resource">
										<xmpG:swatchName>RGB Cyan</xmpG:swatchName>
										<xmpG:mode>RGB</xmpG:mode>
										<xmpG:type>PROCESS</xmpG:type>
										<xmpG:red>0</xmpG:red>
										<xmpG:green>255</xmpG:green>
										<xmpG:blue>255</xmpG:blue>
									</rdf:li>
									<rdf:li  rdf:parseType="Resource">
										<xmpG:swatchName>RGB Blue</xmpG:swatchName>
										<xmpG:mode>RGB</xmpG:mode>
										<xmpG:type>PROCESS</xmpG:type>
										<xmpG:red>0</xmpG:red>
										<xmpG:green>0</xmpG:green>
										<xmpG:blue>255</xmpG:blue>
									</rdf:li>
									<rdf:li  rdf:parseType="Resource">
										<xmpG:swatchName>RGB Magenta</xmpG:swatchName>
										<xmpG:mode>RGB</xmpG:mode>
										<xmpG:type>PROCESS</xmpG:type>
										<xmpG:red>255</xmpG:red>
										<xmpG:green>0</xmpG:green>
										<xmpG:blue>255</xmpG:blue>
									</rdf:li>
									<rdf:li  rdf:parseType="Resource">
										<xmpG:swatchName>R=193 G=39 B=45</xmpG:swatchName>
										<xmpG:mode>RGB</xmpG:mode>
										<xmpG:type>PROCESS</xmpG:type>
										<xmpG:red>193</xmpG:red>
										<xmpG:green>39</xmpG:green>
										<xmpG:blue>45</xmpG:blue>
									</rdf:li>
									<rdf:li  rdf:parseType="Resource">
										<xmpG:swatchName>R=237 G=28 B=36</xmpG:swatchName>
										<xmpG:mode>RGB</xmpG:mode>
										<xmpG:type>PROCESS</xmpG:type>
										<xmpG:red>237</xmpG:red>
										<xmpG:green>28</xmpG:green>
										<xmpG:blue>36</xmpG:blue>
									</rdf:li>
									<rdf:li  rdf:parseType="Resource">
										<xmpG:swatchName>R=241 G=90 B=36</xmpG:swatchName>
										<xmpG:mode>RGB</xmpG:mode>
										<xmpG:type>PROCESS</xmpG:type>
										<xmpG:red>241</xmpG:red>
										<xmpG:green>90</xmpG:green>
										<xmpG:blue>36</xmpG:blue>
									</rdf:li>
									<rdf:li  rdf:parseType="Resource">
										<xmpG:swatchName>R=247 G=147 B=30</xmpG:swatchName>
										<xmpG:mode>RGB</xmpG:mode>
										<xmpG:type>PROCESS</xmpG:type>
										<xmpG:red>247</xmpG:red>
										<xmpG:green>147</xmpG:green>
										<xmpG:blue>30</xmpG:blue>
									</rdf:li>
									<rdf:li  rdf:parseType="Resource">
										<xmpG:swatchName>R=251 G=176 B=59</xmpG:swatchName>
										<xmpG:mode>RGB</xmpG:mode>
										<xmpG:type>PROCESS</xmpG:type>
										<xmpG:red>251</xmpG:red>
										<xmpG:green>176</xmpG:green>
										<xmpG:blue>59</xmpG:blue>
									</rdf:li>
									<rdf:li  rdf:parseType="Resource">
										<xmpG:swatchName>R=252 G=238 B=33</xmpG:swatchName>
										<xmpG:mode>RGB</xmpG:mode>
										<xmpG:type>PROCESS</xmpG:type>
										<xmpG:red>252</xmpG:red>
										<xmpG:green>238</xmpG:green>
										<xmpG:blue>33</xmpG:blue>
									</rdf:li>
									<rdf:li  rdf:parseType="Resource">
										<xmpG:swatchName>R=217 G=224 B=33</xmpG:swatchName>
										<xmpG:mode>RGB</xmpG:mode>
										<xmpG:type>PROCESS</xmpG:type>
										<xmpG:red>217</xmpG:red>
										<xmpG:green>224</xmpG:green>
										<xmpG:blue>33</xmpG:blue>
									</rdf:li>
									<rdf:li  rdf:parseType="Resource">
										<xmpG:swatchName>R=140 G=198 B=63</xmpG:swatchName>
										<xmpG:mode>RGB</xmpG:mode>
										<xmpG:type>PROCESS</xmpG:type>
										<xmpG:red>140</xmpG:red>
										<xmpG:green>198</xmpG:green>
										<xmpG:blue>63</xmpG:blue>
									</rdf:li>
									<rdf:li  rdf:parseType="Resource">
										<xmpG:swatchName>R=57 G=181 B=74</xmpG:swatchName>
										<xmpG:mode>RGB</xmpG:mode>
										<xmpG:type>PROCESS</xmpG:type>
										<xmpG:red>57</xmpG:red>
										<xmpG:green>181</xmpG:green>
										<xmpG:blue>74</xmpG:blue>
									</rdf:li>
									<rdf:li  rdf:parseType="Resource">
										<xmpG:swatchName>R=0 G=146 B=69</xmpG:swatchName>
										<xmpG:mode>RGB</xmpG:mode>
										<xmpG:type>PROCESS</xmpG:type>
										<xmpG:red>0</xmpG:red>
										<xmpG:green>146</xmpG:green>
										<xmpG:blue>69</xmpG:blue>
									</rdf:li>
									<rdf:li  rdf:parseType="Resource">
										<xmpG:swatchName>R=0 G=104 B=55</xmpG:swatchName>
										<xmpG:mode>RGB</xmpG:mode>
										<xmpG:type>PROCESS</xmpG:type>
										<xmpG:red>0</xmpG:red>
										<xmpG:green>104</xmpG:green>
										<xmpG:blue>55</xmpG:blue>
									</rdf:li>
									<rdf:li  rdf:parseType="Resource">
										<xmpG:swatchName>R=34 G=181 B=115</xmpG:swatchName>
										<xmpG:mode>RGB</xmpG:mode>
										<xmpG:type>PROCESS</xmpG:type>
										<xmpG:red>34</xmpG:red>
										<xmpG:green>181</xmpG:green>
										<xmpG:blue>115</xmpG:blue>
									</rdf:li>
									<rdf:li  rdf:parseType="Resource">
										<xmpG:swatchName>R=0 G=169 B=157</xmpG:swatchName>
										<xmpG:mode>RGB</xmpG:mode>
										<xmpG:type>PROCESS</xmpG:type>
										<xmpG:red>0</xmpG:red>
										<xmpG:green>169</xmpG:green>
										<xmpG:blue>157</xmpG:blue>
									</rdf:li>
									<rdf:li  rdf:parseType="Resource">
										<xmpG:swatchName>R=41 G=171 B=226</xmpG:swatchName>
										<xmpG:mode>RGB</xmpG:mode>
										<xmpG:type>PROCESS</xmpG:type>
										<xmpG:red>41</xmpG:red>
										<xmpG:green>171</xmpG:green>
										<xmpG:blue>226</xmpG:blue>
									</rdf:li>
									<rdf:li  rdf:parseType="Resource">
										<xmpG:swatchName>R=0 G=113 B=188</xmpG:swatchName>
										<xmpG:mode>RGB</xmpG:mode>
										<xmpG:type>PROCESS</xmpG:type>
										<xmpG:red>0</xmpG:red>
										<xmpG:green>113</xmpG:green>
										<xmpG:blue>188</xmpG:blue>
									</rdf:li>
									<rdf:li  rdf:parseType="Resource">
										<xmpG:swatchName>R=46 G=49 B=146</xmpG:swatchName>
										<xmpG:mode>RGB</xmpG:mode>
										<xmpG:type>PROCESS</xmpG:type>
										<xmpG:red>46</xmpG:red>
										<xmpG:green>49</xmpG:green>
										<xmpG:blue>146</xmpG:blue>
									</rdf:li>
									<rdf:li  rdf:parseType="Resource">
										<xmpG:swatchName>R=27 G=20 B=100</xmpG:swatchName>
										<xmpG:mode>RGB</xmpG:mode>
										<xmpG:type>PROCESS</xmpG:type>
										<xmpG:red>27</xmpG:red>
										<xmpG:green>20</xmpG:green>
										<xmpG:blue>100</xmpG:blue>
									</rdf:li>
									<rdf:li  rdf:parseType="Resource">
										<xmpG:swatchName>R=102 G=45 B=145</xmpG:swatchName>
										<xmpG:mode>RGB</xmpG:mode>
										<xmpG:type>PROCESS</xmpG:type>
										<xmpG:red>102</xmpG:red>
										<xmpG:green>45</xmpG:green>
										<xmpG:blue>145</xmpG:blue>
									</rdf:li>
									<rdf:li  rdf:parseType="Resource">
										<xmpG:swatchName>R=147 G=39 B=143</xmpG:swatchName>
										<xmpG:mode>RGB</xmpG:mode>
										<xmpG:type>PROCESS</xmpG:type>
										<xmpG:red>147</xmpG:red>
										<xmpG:green>39</xmpG:green>
										<xmpG:blue>143</xmpG:blue>
									</rdf:li>
									<rdf:li  rdf:parseType="Resource">
										<xmpG:swatchName>R=158 G=0 B=93</xmpG:swatchName>
										<xmpG:mode>RGB</xmpG:mode>
										<xmpG:type>PROCESS</xmpG:type>
										<xmpG:red>158</xmpG:red>
										<xmpG:green>0</xmpG:green>
										<xmpG:blue>93</xmpG:blue>
									</rdf:li>
									<rdf:li  rdf:parseType="Resource">
										<xmpG:swatchName>R=212 G=20 B=90</xmpG:swatchName>
										<xmpG:mode>RGB</xmpG:mode>
										<xmpG:type>PROCESS</xmpG:type>
										<xmpG:red>212</xmpG:red>
										<xmpG:green>20</xmpG:green>
										<xmpG:blue>90</xmpG:blue>
									</rdf:li>
									<rdf:li  rdf:parseType="Resource">
										<xmpG:swatchName>R=237 G=30 B=121</xmpG:swatchName>
										<xmpG:mode>RGB</xmpG:mode>
										<xmpG:type>PROCESS</xmpG:type>
										<xmpG:red>237</xmpG:red>
										<xmpG:green>30</xmpG:green>
										<xmpG:blue>121</xmpG:blue>
									</rdf:li>
									<rdf:li  rdf:parseType="Resource">
										<xmpG:swatchName>R=199 G=178 B=153</xmpG:swatchName>
										<xmpG:mode>RGB</xmpG:mode>
										<xmpG:type>PROCESS</xmpG:type>
										<xmpG:red>199</xmpG:red>
										<xmpG:green>178</xmpG:green>
										<xmpG:blue>153</xmpG:blue>
									</rdf:li>
									<rdf:li  rdf:parseType="Resource">
										<xmpG:swatchName>R=153 G=134 B=117</xmpG:swatchName>
										<xmpG:mode>RGB</xmpG:mode>
										<xmpG:type>PROCESS</xmpG:type>
										<xmpG:red>153</xmpG:red>
										<xmpG:green>134</xmpG:green>
										<xmpG:blue>117</xmpG:blue>
									</rdf:li>
									<rdf:li  rdf:parseType="Resource">
										<xmpG:swatchName>R=115 G=99 B=87</xmpG:swatchName>
										<xmpG:mode>RGB</xmpG:mode>
										<xmpG:type>PROCESS</xmpG:type>
										<xmpG:red>115</xmpG:red>
										<xmpG:green>99</xmpG:green>
										<xmpG:blue>87</xmpG:blue>
									</rdf:li>
									<rdf:li  rdf:parseType="Resource">
										<xmpG:swatchName>R=83 G=71 B=65</xmpG:swatchName>
										<xmpG:mode>RGB</xmpG:mode>
										<xmpG:type>PROCESS</xmpG:type>
										<xmpG:red>83</xmpG:red>
										<xmpG:green>71</xmpG:green>
										<xmpG:blue>65</xmpG:blue>
									</rdf:li>
									<rdf:li  rdf:parseType="Resource">
										<xmpG:swatchName>R=198 G=156 B=109</xmpG:swatchName>
										<xmpG:mode>RGB</xmpG:mode>
										<xmpG:type>PROCESS</xmpG:type>
										<xmpG:red>198</xmpG:red>
										<xmpG:green>156</xmpG:green>
										<xmpG:blue>109</xmpG:blue>
									</rdf:li>
									<rdf:li  rdf:parseType="Resource">
										<xmpG:swatchName>R=166 G=124 B=82</xmpG:swatchName>
										<xmpG:mode>RGB</xmpG:mode>
										<xmpG:type>PROCESS</xmpG:type>
										<xmpG:red>166</xmpG:red>
										<xmpG:green>124</xmpG:green>
										<xmpG:blue>82</xmpG:blue>
									</rdf:li>
									<rdf:li  rdf:parseType="Resource">
										<xmpG:swatchName>R=140 G=98 B=57</xmpG:swatchName>
										<xmpG:mode>RGB</xmpG:mode>
										<xmpG:type>PROCESS</xmpG:type>
										<xmpG:red>140</xmpG:red>
										<xmpG:green>98</xmpG:green>
										<xmpG:blue>57</xmpG:blue>
									</rdf:li>
									<rdf:li  rdf:parseType="Resource">
										<xmpG:swatchName>R=117 G=76 B=36</xmpG:swatchName>
										<xmpG:mode>RGB</xmpG:mode>
										<xmpG:type>PROCESS</xmpG:type>
										<xmpG:red>117</xmpG:red>
										<xmpG:green>76</xmpG:green>
										<xmpG:blue>36</xmpG:blue>
									</rdf:li>
									<rdf:li  rdf:parseType="Resource">
										<xmpG:swatchName>R=96 G=56 B=19</xmpG:swatchName>
										<xmpG:mode>RGB</xmpG:mode>
										<xmpG:type>PROCESS</xmpG:type>
										<xmpG:red>96</xmpG:red>
										<xmpG:green>56</xmpG:green>
										<xmpG:blue>19</xmpG:blue>
									</rdf:li>
									<rdf:li  rdf:parseType="Resource">
										<xmpG:swatchName>R=66 G=33 B=11</xmpG:swatchName>
										<xmpG:mode>RGB</xmpG:mode>
										<xmpG:type>PROCESS</xmpG:type>
										<xmpG:red>66</xmpG:red>
										<xmpG:green>33</xmpG:green>
										<xmpG:blue>11</xmpG:blue>
									</rdf:li>
								</rdf:Seq>
							</xmpG:Colorants>
						</rdf:li>
						<rdf:li  rdf:parseType="Resource">
							<xmpG:groupName>Cold</xmpG:groupName>
							<xmpG:groupType>1</xmpG:groupType>
							<xmpG:Colorants>
								<rdf:Seq>
									<rdf:li  rdf:parseType="Resource">
										<xmpG:swatchName>C=56 M=0 Y=20 K=0</xmpG:swatchName>
										<xmpG:mode>RGB</xmpG:mode>
										<xmpG:type>PROCESS</xmpG:type>
										<xmpG:red>101</xmpG:red>
										<xmpG:green>200</xmpG:green>
										<xmpG:blue>208</xmpG:blue>
									</rdf:li>
									<rdf:li  rdf:parseType="Resource">
										<xmpG:swatchName>C=51 M=43 Y=0 K=0</xmpG:swatchName>
										<xmpG:mode>RGB</xmpG:mode>
										<xmpG:type>PROCESS</xmpG:type>
										<xmpG:red>131</xmpG:red>
										<xmpG:green>139</xmpG:green>
										<xmpG:blue>197</xmpG:blue>
									</rdf:li>
									<rdf:li  rdf:parseType="Resource">
										<xmpG:swatchName>C=26 M=41 Y=0 K=0</xmpG:swatchName>
										<xmpG:mode>RGB</xmpG:mode>
										<xmpG:type>PROCESS</xmpG:type>
										<xmpG:red>186</xmpG:red>
										<xmpG:green>155</xmpG:green>
										<xmpG:blue>201</xmpG:blue>
									</rdf:li>
								</rdf:Seq>
							</xmpG:Colorants>
						</rdf:li>
						<rdf:li  rdf:parseType="Resource">
							<xmpG:groupName>Grays</xmpG:groupName>
							<xmpG:groupType>1</xmpG:groupType>
							<xmpG:Colorants>
								<rdf:Seq>
									<rdf:li  rdf:parseType="Resource">
										<xmpG:swatchName>R=0 G=0 B=0</xmpG:swatchName>
										<xmpG:mode>RGB</xmpG:mode>
										<xmpG:type>PROCESS</xmpG:type>
										<xmpG:red>0</xmpG:red>
										<xmpG:green>0</xmpG:green>
										<xmpG:blue>0</xmpG:blue>
									</rdf:li>
									<rdf:li  rdf:parseType="Resource">
										<xmpG:swatchName>R=26 G=26 B=26</xmpG:swatchName>
										<xmpG:mode>RGB</xmpG:mode>
										<xmpG:type>PROCESS</xmpG:type>
										<xmpG:red>26</xmpG:red>
										<xmpG:green>26</xmpG:green>
										<xmpG:blue>26</xmpG:blue>
									</rdf:li>
									<rdf:li  rdf:parseType="Resource">
										<xmpG:swatchName>R=51 G=51 B=51</xmpG:swatchName>
										<xmpG:mode>RGB</xmpG:mode>
										<xmpG:type>PROCESS</xmpG:type>
										<xmpG:red>51</xmpG:red>
										<xmpG:green>51</xmpG:green>
										<xmpG:blue>51</xmpG:blue>
									</rdf:li>
									<rdf:li  rdf:parseType="Resource">
										<xmpG:swatchName>R=77 G=77 B=77</xmpG:swatchName>
										<xmpG:mode>RGB</xmpG:mode>
										<xmpG:type>PROCESS</xmpG:type>
										<xmpG:red>77</xmpG:red>
										<xmpG:green>77</xmpG:green>
										<xmpG:blue>77</xmpG:blue>
									</rdf:li>
									<rdf:li  rdf:parseType="Resource">
										<xmpG:swatchName>R=102 G=102 B=102</xmpG:swatchName>
										<xmpG:mode>RGB</xmpG:mode>
										<xmpG:type>PROCESS</xmpG:type>
										<xmpG:red>102</xmpG:red>
										<xmpG:green>102</xmpG:green>
										<xmpG:blue>102</xmpG:blue>
									</rdf:li>
									<rdf:li  rdf:parseType="Resource">
										<xmpG:swatchName>R=128 G=128 B=128</xmpG:swatchName>
										<xmpG:mode>RGB</xmpG:mode>
										<xmpG:type>PROCESS</xmpG:type>
										<xmpG:red>128</xmpG:red>
										<xmpG:green>128</xmpG:green>
										<xmpG:blue>128</xmpG:blue>
									</rdf:li>
									<rdf:li  rdf:parseType="Resource">
										<xmpG:swatchName>R=153 G=153 B=153</xmpG:swatchName>
										<xmpG:mode>RGB</xmpG:mode>
										<xmpG:type>PROCESS</xmpG:type>
										<xmpG:red>153</xmpG:red>
										<xmpG:green>153</xmpG:green>
										<xmpG:blue>153</xmpG:blue>
									</rdf:li>
									<rdf:li  rdf:parseType="Resource">
										<xmpG:swatchName>R=179 G=179 B=179</xmpG:swatchName>
										<xmpG:mode>RGB</xmpG:mode>
										<xmpG:type>PROCESS</xmpG:type>
										<xmpG:red>179</xmpG:red>
										<xmpG:green>179</xmpG:green>
										<xmpG:blue>179</xmpG:blue>
									</rdf:li>
									<rdf:li  rdf:parseType="Resource">
										<xmpG:swatchName>R=204 G=204 B=204</xmpG:swatchName>
										<xmpG:mode>RGB</xmpG:mode>
										<xmpG:type>PROCESS</xmpG:type>
										<xmpG:red>204</xmpG:red>
										<xmpG:green>204</xmpG:green>
										<xmpG:blue>204</xmpG:blue>
									</rdf:li>
									<rdf:li  rdf:parseType="Resource">
										<xmpG:swatchName>R=230 G=230 B=230</xmpG:swatchName>
										<xmpG:mode>RGB</xmpG:mode>
										<xmpG:type>PROCESS</xmpG:type>
										<xmpG:red>230</xmpG:red>
										<xmpG:green>230</xmpG:green>
										<xmpG:blue>230</xmpG:blue>
									</rdf:li>
									<rdf:li  rdf:parseType="Resource">
										<xmpG:swatchName>R=242 G=242 B=242</xmpG:swatchName>
										<xmpG:mode>RGB</xmpG:mode>
										<xmpG:type>PROCESS</xmpG:type>
										<xmpG:red>242</xmpG:red>
										<xmpG:green>242</xmpG:green>
										<xmpG:blue>242</xmpG:blue>
									</rdf:li>
								</rdf:Seq>
							</xmpG:Colorants>
						</rdf:li>
					</rdf:Seq>
				</xmpTPg:SwatchGroups>
				<pdf:Producer>Adobe PDF library 10.01</pdf:Producer>
			</rdf:Description>
		</rdf:RDF>
	</x:xmpmeta>
	<sfw  xmlns="&ns_sfw;">
		<slices></slices>
		<sliceSourceBounds  bottomLeftOrigin="true" height="1067.4412842" width="1771.4406738" x="-612.9406738" y="-710.5760498">
			</sliceSourceBounds>
	</sfw>
</metadata>
<g>
	<g>
		<path style="&st7;" d="M110.5318222,81.4157791c-1.0580063,0-2.097908-0.0482635-3.1268997-0.1251602v0.0271912
			c0,0.8689499,0.2916107,1.5508804,0.9171371,2.1522675c0.6415482,0.6474304,1.3341751,0.9351654,2.2119293,0.9351654
			c0.8777924,0,1.5718384-0.287735,2.1813354-0.9063721c0.6541595-0.6282883,0.9453125-1.3083725,0.9470673-2.1736679V81.290657
			C112.6324768,81.3675156,111.5914536,81.4157791,110.5318222,81.4157791z"/>
		<path style="&st7;" d="M90.3198013,64.3344498c-5.5522232-5.5095634-8.3667374-12.2226372-8.3667374-19.9609528
			c0-7.7472305,2.8100204-14.4513912,8.3577042-19.9252605c3.8262711-3.7662029,8.228653-6.2610817,13.1452789-7.4576073v-1.6815443
			h0.0039139v-5.0467682c-6.7323685,1.2941208-12.7164154,4.4960709-17.856636,9.5678949
			c-6.1960602,6.1015434-9.6127014,13.466938-10.1993408,21.9026299c0.3319473,0.1505013,0.6416702,0.3555908,0.9260406,0.6342468
			c0.6236954,0.6195793,0.9270477,1.3429604,0.9270477,2.2115402s-0.3031082,1.5893707-0.9265442,2.2042274
			c-0.2766724,0.2731094-0.5778198,0.4738045-0.8987808,0.6247559c0.6656952,8.2665863,4.0773392,15.5097389,10.1806564,21.5716057
			c5.1360931,5.0378113,11.1183929,8.2161407,17.8475571,9.5009384v-6.7267532
			C98.5424652,70.56427,94.140831,68.0831985,90.3198013,64.3344498z"/>
		<path style="&st7;" d="M134.7233124,44.5786285c0-0.8680496,0.305481-1.5914268,0.9337006-2.2110062
			c0.3101044-0.3060951,0.6470032-0.5332832,1.0153046-0.6848907c-0.5801849-5.9836197-3.1254425-11.2213879-7.5909424-15.6119766
			c-3.3480301-3.3239441-7.1914978-5.5609913-11.4733658-6.7109795v4.2775917h0.0009995v1.6163979
			c2.7477417,0.9858093,5.2432938,2.5814648,7.4606781,4.7842159c4.0116882,3.9315701,6.0446167,8.7546444,6.0446167,14.326601
			s-2.0329285,10.4128571-6.0491486,14.37117c-2.2147675,2.1877975-4.7090683,3.7740898-7.4561462,4.7545166v1.1580009h-0.0009995
			v4.7341385c4.2826157-1.1450958,8.1248322-3.3725357,11.4733658-6.6794281
			c4.3693695-4.3112335,6.8947754-9.4292679,7.5453186-15.2547455c-0.3498077-0.1526756-0.6730652-0.3706207-0.970459-0.6659126
			C135.0285339,46.1674652,134.7233124,45.4467125,134.7233124,44.5786285z"/>
		<path style="&st7;" d="M84.2661133,44.373497c0,7.1142578,2.5840912,13.283535,7.6890564,18.3473091
			c3.3618546,3.296627,7.2158127,5.5205727,11.5047913,6.6638222v-5.8941956
			c-2.7483215-0.9794807-5.2501602-2.5633507-7.4795303-4.7457657c-2.8880768-2.8625031-4.7400818-6.1820526-5.5508499-9.9006882
			c-0.8656845-0.1499672-1.6189651-0.5474968-2.2848282-1.208725c-0.870636-0.85289-1.2940063-1.8526268-1.2940063-3.0567093
			s0.4237442-2.2074738,1.2951355-3.0668945c0.6396332-0.6314087,1.3613968-1.0210495,2.1873627-1.1818619
			c0.7568665-3.8871689,2.6437988-7.3395157,5.6381531-10.3007221c2.229332-2.1996689,4.7344131-3.7941742,7.4885635-4.7787914
			v-5.6118851h-0.0039139v-0.2776279c-4.2882309,1.1515903-8.1430588,3.3908958-11.5099106,6.7099934
			C86.8502045,31.098917,84.2661133,37.2503242,84.2661133,44.373497z"/>
		<path style="&st7;" d="M112.7444611,5.3805885c-1.2772675-1.2948194-3.1684494-1.2660255-4.393219-0.0287528
			c-0.6547089,0.6301374-0.9463196,1.2102861-0.9463196,2.0764022v0.0196748
			c1.0289536-0.0771394,2.0688477-0.1256084,3.1268997-0.1256084c1.0571365,0,2.095871,0.0484281,3.1235733,0.1254444
			C113.63591,6.6234474,113.3497925,5.9612303,112.7444611,5.3805885z"/>
		<path style="&st7;" d="M107.4049225,18.6230068v5.6580105c1.015007-0.1435165,2.0574417-0.2161388,3.1268997-0.2161388
			c1.0712051,0,2.1148529,0.0727463,3.1305695,0.2165909v-0.6441021h0.0003281v-2.8032322l0.0003357,0.000042v-2.2110882
			c-1.0232086-0.1118069-2.0653534-0.1747341-3.1312332-0.1747341
			C109.4676514,18.4483547,108.4269638,18.511282,107.4049225,18.6230068z"/>
		<path style="&st7;" d="M113.6623917,64.6482697v-0.1906738c-1.0157166,0.1431046-2.0593643,0.2156067-3.1305695,0.2156067
			c-1.0693741,0-2.1118088-0.0726242-3.1268997-0.2158966v4.0820313h0.0122375v1.5783234
			c1.0180893,0.1100845,2.0547409,0.1720657,3.1146622,0.1720657c1.0660477,0,2.1081924-0.0626373,3.1312332-0.173912v-5.4675446
			H113.6623917z"/>
		<path style="&st7;" d="M113.6630554,31.7067089v-0.1146832l-0.0003357,0.000042V27.966671h-0.0003281v-1.3687954
			c-1.0124283-0.1636028-2.0549927-0.2507248-3.1305695-0.2507248c-1.0739899,0-2.1153488,0.086874-3.1268997,0.2499447v5.1102295
			c0.9993973-0.2323227,2.0392914-0.3633938,3.1290665-0.3633938
			C111.6230927,31.3439312,112.6630783,31.4747982,113.6630554,31.7067089z"/>
		<path style="&st7;" d="M110.5318222,16.1660824c1.063797,0,2.1065292,0.0559444,3.1312332,0.1584282v-5.1123667h-0.0006638
			V9.7360992c-1.0287018-0.0827255-2.0704346-0.1315231-3.1305695-0.1315231c-1.0587158,0-2.0992355,0.0487566-3.1268997,0.1311541
			v6.5883684C108.4285049,16.2218628,109.46978,16.1660824,110.5318222,16.1660824z"/>
		<path style="&st7;" d="M107.4049225,57.0301399v5.1115417c1.0119247,0.1625786,2.0533676,0.2492485,3.1268997,0.2492485
			c1.0759125,0,2.1184311-0.0865898,3.1305695-0.2491226v-1.8228455h0.0006638v-3.288578
			c-0.999939,0.2306786-2.0399628,0.3608894-3.1290665,0.3608894
			C109.4441299,57.3912735,108.4041901,57.2610245,107.4049225,57.0301399z"/>
		<path style="&st7;" d="M95.6382751,44.5785446c0,1.2047806-0.420372,2.2045593-1.2851334,3.0574455
			c-0.4827347,0.4765167-1.0122223,0.8123894-1.5941544,1.0216713c0.7544479,3.1741409,2.3764877,6.0135574,4.8568497,8.4733582
			c1.7600403,1.7234001,3.7139969,3.02668,5.8441238,3.905735v-5.6613808
			c-0.7892914-0.5056763-1.541069-1.0968742-2.2453156-1.791748c-2.574852-2.5412521-3.8799744-5.6415825-3.8799744-9.2153053
			c0-3.5737648,1.3051224-6.6669464,3.8785172-9.1953812c0.7050323-0.6986122,1.4572754-1.2930565,2.2467728-1.801487v-5.6649113
			c-2.1331253,0.8846817-4.0891571,2.1978626-5.853157,3.9361725c-2.5741119,2.5463467-4.2222977,5.5041828-4.9334488,8.8253765
			c0.6163254,0.2043076,1.1736145,0.547493,1.6790314,1.04282C95.2175293,42.3703728,95.6382751,43.373764,95.6382751,44.5785446z"
			/>
		<path style="&st7;" d="M117.6080093,11.2121439v5.7788954c4.9131317,1.1971836,9.3043213,3.6939106,13.1087723,7.4661102
			c4.9049835,4.8200741,7.6809845,10.59515,8.2747803,17.1892281c0.4152985,0.1499252,0.7956238,0.3832741,1.1399384,0.7207108
			c0.6236877,0.6195793,0.9270477,1.3429604,0.9270477,2.2115402s-0.3030701,1.5893707-0.9264984,2.2042274
			c-0.3567657,0.3521805-0.7521667,0.5901299-1.1842804,0.7398911c-0.671814,6.4206161-3.4272156,12.0628967-8.2309875,16.8027916
			c-3.8049927,3.7543335-8.194725,6.2371368-13.1087723,7.4270477v6.0727081h0.0009995v0.6532211
			c6.7273788-1.287384,12.6916046-4.4706421,17.7971039-9.5082169c6.8758698-6.78442,10.3589935-15.0576172,10.3589935-24.5968018
			s-3.4831238-17.7945576-10.3544922-24.5432854c-5.1138611-5.0691547-11.0808411-8.2701597-17.8016052-9.5655947v0.9475269
			H117.6080093z"/>
		<path style="&st7;" d="M107.41716,72.4164047v0.45224h-0.0122375v6.1346054
			c1.0277023,0.0818634,2.0682297,0.1302567,3.1268997,0.1302567c1.0603027,0,2.1019897-0.0485535,3.1305695-0.1306229v-1.1775894
			h0.0006638v-5.4105759c-1.0246201,0.1017456-2.0673141,0.15728-3.1312332,0.15728
			C109.4740219,72.5719986,108.4367905,72.5172043,107.41716,72.4164047z"/>
		<path style="&st7;" d="M117.6090088,60.3189621v0.7154922c2.1251373-0.8801613,4.0703888-2.1852531,5.8207779-3.9123497
			c3.5644226-3.5125618,5.3714676-7.8096199,5.3714676-12.7575226c0-4.9389877-1.807045-9.2182198-5.3669739-12.7129555
			c-1.7522964-1.739994-3.6994705-3.053791-5.8252716-3.9395409v0.2545853h-0.0009995v5.3977585
			c0.7957916,0.5096207,1.5543976,1.1057091,2.2655945,1.8070717c2.5610733,2.5284348,3.8597031,5.6216164,3.8597031,9.1968193
			c0,3.575161-1.2993317,6.6754494-3.8611603,9.2167435c-0.7104416,0.6970482-1.4685974,1.2896423-2.2641373,1.7964325v4.9374657
			H117.6090088z"/>
		<path style="&st8;" d="M123.7333069,44.3683205c0-3.5752029-1.2986298-6.6683846-3.8597031-9.1968193
			c-0.7111969-0.7013626-1.4698029-1.297451-2.2655945-1.8070717v22.017067
			c0.7955399-0.5067902,1.5536957-1.0993843,2.2641373-1.7964325
			C122.4339752,51.0437698,123.7333069,47.9434814,123.7333069,44.3683205z"/>
		<path style="&st1;" d="M107.4049225,7.4282379c0-0.866116,0.2916107-1.4462647,0.9463196-2.0764022
			c1.2247696-1.2372727,3.1159515-1.2660666,4.393219,0.0287528c0.6053314,0.5806417,0.891449,1.2428589,0.9109344,2.0671601
			c0.002327,0.000164,0.0046616,0.0002875,0.0069962,0.0004926v2.287858v1.4760447h0.0006638v5.1123667
			c1.349205,0.1349316,2.6655197,0.3547668,3.9449539,0.6665287v-5.7788954h0.0009995V10.264617V7.9438162V6.8828387h-0.0055313
			c-0.0238113-1.8885231-0.7288513-3.5167105-2.0700989-4.8024936C114.172226,0.699021,112.4905624,0,110.533989,0
			c-1.9548721,0-3.636528,0.699021-4.9673309,2.0470331c-1.3982849,1.3447261-2.1066971,3.0056508-2.1066971,4.9328671V7.942337
			c1.2893906-0.2308025,2.6051636-0.3939538,3.9449615-0.4944243V7.4282379z"/>
		<path style="&st8;" d="M138.9477692,47.522747c-0.3287354,0.1139412-0.6766815,0.1816368-1.056839,0.1816368
			c-0.4608765,0-0.8788757-0.087944-1.2642365-0.2561493c-0.6505432,5.8254776-3.1759491,10.943512-7.5453186,15.2547455
			c-3.3485336,3.3068924-7.1907501,5.5343323-11.4733658,6.6794281c-1.2761002,0.341217-2.5912933,0.5861511-3.9449539,0.7334061
			c-1.0230408,0.1112747-2.0651855,0.173912-3.1312332,0.173912c-1.0599213,0-2.0965729-0.0619812-3.1146622-0.1720657v2.2987442
			c1.0196304,0.1007996,2.0568619,0.1555939,3.1146622,0.1555939c1.0639191,0,2.1066132-0.0555344,3.1312332-0.15728
			c1.3493271-0.1340256,2.6656494-0.3523865,3.9449539-0.6621323c4.9140472-1.1899109,9.3037796-3.6727142,13.1087723-7.4270477
			C135.5205536,59.5856438,138.2759552,53.9433632,138.9477692,47.522747z"/>
		<path style="&st8;" d="M107.4049225,16.3240986c-0.0007095,0.000082-0.0014572,0.000164-0.0022049,0.000246v2.2989082
			c0.0007477-0.000082,0.0014954-0.000164,0.0022049-0.000246c1.0220413-0.1117249,2.0627289-0.1746521,3.1268997-0.1746521
			c1.0658798,0,2.1080246,0.0629272,3.1312332,0.1747341c1.3533707,0.147871,2.6686478,0.3939133,3.9449539,0.7366867
			c4.281868,1.1499882,8.1253357,3.3870354,11.4733658,6.7109795c4.4654999,4.3905888,7.0107574,9.6283569,7.5909424,15.6119766
			c0.3721619-0.1532135,0.7764282-0.2292862,1.2186127-0.2292862c0.3967743,0,0.7598572,0.06987,1.1006317,0.1929321
			c-0.5937958-6.5940781-3.3697968-12.369154-8.2747803-17.1892281c-3.804451-3.7721996-8.1956406-6.2689266-13.1087723-7.4661102
			c-1.2794342-0.3117619-2.5957489-0.5315971-3.9449539-0.6665287c-1.024704-0.1024837-2.0674362-0.1584282-3.1312332-0.1584282
			C109.46978,16.1660824,108.4285049,16.2218628,107.4049225,16.3240986z"/>
		<path style="&st8;" d="M81.953064,44.373497c0,7.7383156,2.8145142,14.4513893,8.3667374,19.9609528
			c3.8210297,3.7487488,8.2226639,6.2298203,13.1401596,7.4189529c0.0035858,0.0008698,0.0069962,0.001976,0.0105743,0.0028381
			v-2.3687744c-0.0035324-0.000946-0.0070724-0.0018921-0.0105743-0.0028381
			c-4.2889786-1.1432495-8.1429367-3.3671951-11.5047913-6.6638222c-5.1049652-5.0637741-7.6890564-11.2330513-7.6890564-18.3473091
			c0-7.1231728,2.5840912-13.27458,7.6800232-18.302742c3.3668518-3.3190975,7.2216797-5.558403,11.5099106-6.7099934v-2.3701324
			c-4.916626,1.1965256-9.3190079,3.6914043-13.1452789,7.4576073C84.7630844,29.9221058,81.953064,36.6262665,81.953064,44.373497z
			"/>
		<path style="&st8;" d="M148.0781555,44.373497c0-10.1721573-3.713501-18.9713669-11.032135-26.1569309
			c-5.5658722-5.5190544-12.0822754-8.9530802-19.4370117-10.2727499v2.3208008
			c6.7207642,1.295435,12.6877441,4.4964399,17.8016052,9.5655947c6.8713684,6.7487278,10.3544922,15.0041008,10.3544922,24.5432854
			s-3.4831238,17.8123817-10.3589935,24.5968018c-5.1054993,5.0375748-11.069725,8.2208328-17.7971039,9.5082169v2.3196945
			c7.3601074-1.3122406,13.8757629-4.7280655,19.4324799-10.2142639
			C144.3646545,63.353775,148.0781555,54.5367393,148.0781555,44.373497z"/>
		<path style="&st8;" d="M75.4039841,41.7328415c0.5866394-8.4356918,4.0032806-15.8010864,10.1993408-21.9026299
			c5.1402206-5.0718241,11.1242676-8.2737741,17.856636-9.5678949c1.287056-0.2474384,2.6037903-0.4190102,3.9449615-0.5265865
			c1.0276642-0.0823975,2.0681839-0.1311541,3.1268997-0.1311541c1.0601349,0,2.1018677,0.0487976,3.1305695,0.1315231v-2.287858
			c-0.0023346-0.000205-0.0046692-0.0003285-0.0069962-0.0004926c-1.0277023-0.0770164-2.0664368-0.1254444-3.1235733-0.1254444
			c-1.0580521,0-2.0979462,0.0484691-3.1268997,0.1256084c-1.339798,0.1004705-2.655571,0.2636218-3.9449615,0.4944243
			c-7.3644257,1.3181915-13.8998489,4.7509851-19.4919968,10.2653141
			c-6.6157684,6.5277023-10.2604141,14.3911724-10.874321,23.4084949c0.3111343-0.0999374,0.6382141-0.1627007,0.9958115-0.1627007
			C74.5704422,41.4534454,75.0041351,41.5515747,75.4039841,41.7328415z"/>
		<path style="&st8;" d="M107.4049225,81.2906189c1.0289917,0.0768967,2.0688934,0.1251602,3.1268997,0.1251602
			c1.0596313,0,2.1006546-0.0482635,3.1305695-0.1251221v-2.2877731c-1.0285797,0.0820694-2.0702667,0.1306229-3.1305695,0.1306229
			c-1.05867,0-2.0991974-0.0483932-3.1268997-0.1302567c-1.3411331-0.1067963-2.6578674-0.2773819-3.9449615-0.5230942
			c-6.7291641-1.2847977-12.7114639-4.4631271-17.8475571-9.5009384
			c-6.1033173-6.0618668-9.5149612-13.3050194-10.1806564-21.5716057c-0.407753,0.1917801-0.850029,0.296772-1.3422928,0.296772
			c-0.3463593,0-0.6635742-0.0608749-0.9663849-0.1555138c0.6979141,8.8316193,4.3334427,16.5704308,10.8539276,23.0439949
			c5.5908508,5.4790421,12.1246109,8.8931885,19.4829636,10.2052155
			C104.7494278,81.0280228,106.0652466,81.1905212,107.4049225,81.2906189z"/>
		<path style="&st8;" d="M97.334671,44.3683205c0,3.5737228,1.3051224,6.6740532,3.8799744,9.2153053
			c0.7042465,0.6948738,1.4560242,1.2860718,2.2453156,1.791748c1.2176208,0.7800636,2.5359344,1.3292427,3.9449615,1.6547661
			c0.9992676,0.2308846,2.0392075,0.3611336,3.1290665,0.3611336c1.0891037,0,2.1291275-0.1302109,3.1290665-0.3608894V31.7067089
			c-0.9999771-0.2319107-2.0399628-0.3627777-3.1290665-0.3627777c-1.0897751,0-2.1296692,0.1310711-3.1290665,0.3633938
			c-1.4085693,0.3274117-2.7268448,0.8796692-3.9449615,1.6641273c-0.7894974,0.5084305-1.5417404,1.1028748-2.2467728,1.801487
			C98.6397934,37.7013741,97.334671,40.7945557,97.334671,44.3683205z"/>
		<path style="&st1;" d="M107.41716,72.8686447v-0.45224v-2.2987442v-1.5783234h-0.0122375v-4.0820313
			c1.0150909,0.1432724,2.0575256,0.2158966,3.1268997,0.2158966c1.0712051,0,2.1148529-0.0725021,3.1305695-0.2156067v0.1906738
			h0.0006638v5.4675446c1.3536606-0.1472549,2.6688538-0.392189,3.9449539-0.7334061v-4.7341385h0.0009995v-1.1580009
			c2.7470779-0.9804268,5.2413788-2.5667191,7.4561462-4.7545166c4.0162201-3.958313,6.0491486-8.7992096,6.0491486-14.37117
			s-2.0329285-10.395031-6.0446167-14.326601c-2.2173843-2.2027512-4.7129364-3.7984066-7.4606781-4.7842159v-1.6163979h-0.0009995
			v-4.2775917c-1.2763062-0.3427734-2.5915833-0.5888157-3.9449539-0.7366867v2.2110882l-0.0003357-0.000042v2.8032322h-0.0003281
			v0.6441021c-1.0157166-0.1438446-2.0593643-0.2165909-3.1305695-0.2165909c-1.069458,0-2.1118927,0.0726223-3.1268997,0.2161388
			v-5.6580105c-0.0007095,0.000082-0.0014572,0.000164-0.0022049,0.000246v-2.2989082
			c0.0007477-0.000082,0.0014954-0.000164,0.0022049-0.000246V9.7357302
			c-1.3411713,0.1075764-2.6579056,0.2791481-3.9449615,0.5265865v5.0467682h-0.0039139v1.6815443v2.3701324v0.2776279h0.0039139
			v5.6118851c-2.7541504,0.9846172-5.2592316,2.5791225-7.4885635,4.7787914
			c-2.9943542,2.9612064-4.8812866,6.4135532-5.6381531,10.3007221c0.290657-0.0566025,0.5936356-0.086174,0.9112701-0.086174
			c0.5112915,0,0.9849091,0.077301,1.4288406,0.2244759c0.7111511-3.3211937,2.3593369-6.2790298,4.9334488-8.8253765
			c1.7639999-1.7383099,3.7200317-3.0514908,5.853157-3.9361725v5.6649113
			c1.2181168-0.7844582,2.5363922-1.3367157,3.9449615-1.6641273v-5.1102295
			c1.0115509-0.1630707,2.0529099-0.2499447,3.1268997-0.2499447c1.0755768,0,2.1181412,0.087122,3.1305695,0.2507248v1.3687954
			h0.0003281v3.6253967l0.0003357-0.000042v0.1146832v25.3236752v3.288578h-0.0006638v1.8228455
			c-1.0121384,0.1625328-2.054657,0.2491226-3.1305695,0.2491226c-1.0735321,0-2.114975-0.0866699-3.1268997-0.2492485v-5.1115417
			c-1.4090271-0.3255234-2.7273407-0.8747025-3.9449615-1.6547661v5.6613808
			c-2.130127-0.879055-4.0840836-2.1823349-5.8441238-3.905735c-2.4803619-2.4598007-4.1024017-5.2992172-4.8568497-8.4733582
			c-0.4684525,0.1684494-0.9702148,0.2565536-1.514473,0.2565536c-0.2828751,0-0.5535049-0.0249329-0.8149338-0.0702362
			c0.8107681,3.7186356,2.6627731,7.0381851,5.5508499,9.9006882c2.2293701,2.182415,4.7312088,3.7662849,7.4795303,4.7457657
			v5.8941956c0.0035019,0.000946,0.0070419,0.0018921,0.0105743,0.0028381v2.3687744
			c-0.0035782-0.0008621-0.0069885-0.0019684-0.0105743-0.0028381v6.7267532
			c1.2870941,0.2457123,2.6038284,0.4162979,3.9449615,0.5230942v-6.1346054H107.41716z M117.6080093,33.3644295V27.966671
			h0.0009995v-0.2545853c2.1258011,0.8857498,4.0729752,2.1995468,5.8252716,3.9395409
			c3.5599289,3.4947357,5.3669739,7.7739677,5.3669739,12.7129555c0,4.9479027-1.807045,9.2449608-5.3714676,12.7575226
			c-1.7503891,1.7270966-3.6956406,3.0321884-5.8207779,3.9123497v-0.7154922h-0.0009995v-4.9374657V33.3644295z"/>
		<path style="&st1;" d="M117.6090088,77.8252945h-0.0009995v-6.0727081
			c-1.2793045,0.3097458-2.5956268,0.5281067-3.9449539,0.6621323v5.4105759h-0.0006638v1.1775894v2.2877731v0.0345459
			c-0.0017548,0.8652954-0.2929077,1.5453796-0.9470673,2.1736679c-0.6094971,0.6186371-1.3035431,0.9063721-2.1813354,0.9063721
			c-0.8777542,0-1.5703812-0.287735-2.2119293-0.9351654c-0.6255264-0.601387-0.9171371-1.2833176-0.9171371-2.1522675v-0.0271912
			c-1.3396759-0.1000977-2.6554947-0.2625961-3.9449615-0.4925385v0.974678c0,1.933876,0.7101135,3.5914688,2.0763474,4.899559
			c2.7240143,2.7626877,7.3118515,2.7260513,9.9616394,0.0365982c1.3061218-1.2514877,2.0035324-2.7842941,2.092247-4.5542755
			h0.0188141v-1.3564301v-2.3196945V77.8252945z"/>
		<path style="&st8;" d="M86.8507462,44.5785446c0,1.2040825,0.4233704,2.2038193,1.2940063,3.0567093
			c0.665863,0.6612282,1.4191437,1.0587578,2.2848282,1.208725c0.2614288,0.0453033,0.5320587,0.0702362,0.8149338,0.0702362
			c0.5442581,0,1.0460205-0.0881042,1.514473-0.2565536c0.5819321-0.2092819,1.1114197-0.5451546,1.5941544-1.0216713
			c0.8647614-0.8528862,1.2851334-1.8526649,1.2851334-3.0574455s-0.4207458-2.2081718-1.2858887-3.0676346
			c-0.5054169-0.495327-1.062706-0.8385124-1.6790314-1.04282c-0.4439316-0.1471748-0.9175491-0.2244759-1.4288406-0.2244759
			c-0.3176346,0-0.6206131,0.0295715-0.9112701,0.086174c-0.8259659,0.1608124-1.5477295,0.5504532-2.1873627,1.1818619
			C87.2744904,42.3710709,86.8507462,43.3744621,86.8507462,44.5785446z"/>
		<path style="&st1;" d="M75.4317474,47.4076118c0.320961-0.1509514,0.6221085-0.3516464,0.8987808-0.6247559
			c0.623436-0.6148567,0.9265442-1.3356476,0.9265442-2.2042274s-0.3033524-1.5919609-0.9270477-2.2115402
			c-0.2843704-0.278656-0.5940933-0.4837456-0.9260406-0.6342468c-0.3998489-0.1812668-0.8335419-0.2793961-1.3145294-0.2793961
			c-0.3575974,0-0.6846771,0.0627632-0.9958115,0.1627007c-0.4543839,0.1459007-0.8680954,0.3861923-1.2381439,0.7514763
			c-0.6281815,0.6195793-0.9336624,1.3429565-0.9336624,2.2110062c0,0.868084,0.305191,1.5888367,0.9328766,2.2036934
			c0.3788223,0.3761673,0.8023987,0.6209793,1.2683563,0.7665482c0.3028107,0.0946388,0.6200256,0.1555138,0.9663849,0.1555138
			C74.5817184,47.7043839,75.0239944,47.5993919,75.4317474,47.4076118z"/>
		<path style="&st1;" d="M136.6723175,41.6827316c-0.3683014,0.1516075-0.7052002,0.3787956-1.0153046,0.6848907
			c-0.6282196,0.6195793-0.9337006,1.3429565-0.9337006,2.2110062c0,0.868084,0.3052216,1.5888367,0.9329224,2.2036934
			c0.2973938,0.2952919,0.6206512,0.513237,0.970459,0.6659126c0.3853607,0.1682053,0.80336,0.2561493,1.2642365,0.2561493
			c0.3801575,0,0.7281036-0.0676956,1.056839-0.1816368c0.4321136-0.1497612,0.8275146-0.3877106,1.1842804-0.7398911
			c0.6234283-0.6148567,0.9264984-1.3356476,0.9264984-2.2042274s-0.30336-1.5919609-0.9270477-2.2115402
			c-0.3443146-0.3374367-0.7246399-0.5707855-1.1399384-0.7207108c-0.3407745-0.1230621-0.7038574-0.1929321-1.1006317-0.1929321
			C137.4487457,41.4534454,137.0444794,41.5295181,136.6723175,41.6827316z"/>
	</g>
	<g>
		<g>
			<path style="&st8;" d="M17.9638004,118.1161499c-0.0999889,2.2033463-0.9914398,4.0682678-2.6756229,5.5943298
				C13.5913382,125.236969,11.570488,126,9.2252054,126c-2.0335069,0-3.8548036-0.4308472-5.4638896-1.2925339
				c-1.933941-1.0340347-3.162483-2.5355377-3.6864696-4.5049362c-0.1497707-0.5786285-0.0746744-1.1264496,0.2244451-1.6434631
				c0.3117763-0.5170135,0.7610884-0.8491974,1.3475146-0.9969788c0.5860044-0.1477737,1.1412109-0.0736771,1.6651975,0.2214584
				c0.5239866,0.3080444,0.8606544,0.7509613,1.0104251,1.3295822c0.2248669,0.824646,0.835763,1.4711227,1.8339529,1.9385986
				c0.8982029,0.4062881,1.9208622,0.6094284,3.0688238,0.6094284c1.17243,0,2.1769495-0.3629913,3.0127115-1.0893936
				c0.8479977-0.713913,1.2973099-1.6001663,1.3470936-2.6587524c0.0248909-0.6398163-0.2054605-1.2121964-0.6923208-1.7171402
				c-0.7733231-0.8125687-2.0706329-1.2309265-3.8919296-1.2554855H8.9817753c-0.0497828,0-0.0624399,0-0.0371265,0
				c-0.0126562,0-0.0253134,0-0.0375481,0c-3.0565886-0.049118-5.3955431-0.9170532-7.0172863-2.6033936
				c-1.3348581-1.4032593-1.9584106-3.0342331-1.8710794-4.8929062c0.0995659-2.2158356,0.9918619-4.0865784,2.6760445-5.61306
				c1.6837606-1.5260696,3.7050328-2.2895203,6.0625505-2.2895203c2.0330849,0,3.8548031,0.4312668,5.4638891,1.2925415
				c1.9339418,1.0340271,3.1624823,2.5359497,3.6864691,4.5053482c0.1497707,0.5786285,0.068346,1.12603-0.2430077,1.6430435
				c-0.2995415,0.5170135-0.7425251,0.849205-1.3289509,0.9969788c-0.5864267,0.1477814-1.1412115,0.0740967-1.6651983-0.2214584
				c-0.5239859-0.3076248-0.8606539-0.7505417-1.0104246-1.3295822c-0.2244453-0.8242264-0.8420916-1.4707031-1.8525162-1.9385986
				c-0.8859682-0.4062805-1.9027214-0.6090088-3.0502605-0.6090088c-1.1728525,0-2.1832776,0.3629913-3.0312753,1.088974
				c-0.836185,0.7268219-1.2787466,1.6130676-1.3285298,2.6587524c-0.0253134,0.6402359,0.2058821,1.2188568,0.6923208,1.7358704
				c0.7733231,0.800087,2.0706329,1.212616,3.8919296,1.237175h0.0936594
				c3.0561666,0.049118,5.3955431,0.9228821,7.0172853,2.6217041
				C17.427578,114.6144409,18.0511303,116.2449951,17.9638004,118.1161499z"/>
			<path style="&st8;" d="M41.5596504,106.7255936c0.345108,0.0986557,0.6265068,0.2909775,0.8446236,0.5777893
				c0.2181168,0.2780762,0.3269653,0.5961075,0.3269653,0.9545212v16.1560822c0,0.4391708-0.1544113,0.8109055-0.4632339,1.1156235
				C41.9498978,125.843483,41.568512,126,41.1238403,126c-0.4450951,0-0.8264809-0.156517-1.144165-0.4703903
				c-0.3088226-0.304718-0.4632339-0.6764526-0.4632339-1.1156235v-10.4572601l-5.081234,8.2797241v0.0133209l-0.013504,0.0137405
				l-0.0135002,0.0133133l-0.0139198,0.0133209c-0.0270004,0.04496-0.0455666,0.0761795-0.0544243,0.0940857l-0.0409241,0.0536957
				c-0.0362816,0.0362167-0.059063,0.0586929-0.0679245,0.0674362c-0.0092812,0.0091553-0.0274239,0.0266418-0.0544243,0.0537033
				c-0.02742,0.0270538-0.0455627,0.0449524-0.0544243,0.0536957c-0.0185623,0.0183182-0.0455627,0.0403824-0.0818443,0.0674362
				l-0.0409241,0.0403824c-0.0274239,0.0178986-0.059063,0.0357971-0.0953484,0.0536957
				c0,0.0087433-0.0046387,0.0133209-0.0135002,0.0133209l-0.0139198,0.0133209h-0.0135002
				c-0.0181427,0.0183182-0.0497856,0.0362167-0.0953484,0.0537033c-0.0362816,0.0183105-0.0497818,0.0270538-0.0409241,0.0270538
				c-0.0088577,0-0.0362816,0.0091629-0.0814247,0.0270615c-0.2092552,0.0895004-0.4269524,0.1298752-0.6539268,0.1207199H32.964077
				c0.0181427,0,0-0.0041656-0.0544243-0.0133209c-0.1181297-0.0087433-0.2362556-0.0312195-0.3543854-0.0674362
				c-0.0455666-0.0087433-0.0632858-0.0133209-0.0544243-0.0133209c0.0181427,0.0091553,0,0.0045776-0.0544243-0.0133209
				c-0.0455627-0.0178986-0.0772057-0.0312195-0.0953484-0.0403824c0.0088615,0,0-0.0087433-0.0270004-0.0270538
				c-0.0455627-0.0174866-0.0818443-0.0353851-0.1092682-0.0537033h-0.0135002l-0.0135002-0.0133209l-0.0139236-0.0133209
				c-0.0362816-0.0178986-0.0679245-0.0403748-0.0953445-0.0674362c0,0.0091629-0.013504,0-0.0409241-0.0266418
				c-0.0362816-0.0270538-0.0632839-0.049118-0.0814247-0.0674362c-0.0092831-0.0087433-0.0274239-0.0266418-0.0544243-0.0536957
				c-0.0274239-0.0270615-0.0455647-0.044548-0.0548458-0.0537033c-0.0088596-0.0178986-0.031641-0.0403748-0.0679245-0.0674362
				c-0.0181408-0.0266418-0.027422-0.0445404-0.027422-0.0536957c-0.0181427-0.0179062-0.0405025-0.0491257-0.0679245-0.0940857
				l-0.0135002-0.0133209c0-0.0087357-0.0046406-0.0133133-0.0139236-0.0133133v-0.0137405
				c0-0.0087433-0.0046406-0.0133209-0.0135002-0.0133209l-5.0673122-8.2797241v10.4572601
				c0,0.4391708-0.1590538,0.8109055-0.4767361,1.1156235C25.7805672,125.843483,25.3991795,126,24.9540863,126
				c-0.4446716,0-0.8218422-0.156517-1.1306648-0.4703903c-0.3176823-0.304718-0.4767342-0.6764526-0.4767342-1.1156235v-16.1560822
				c0-0.3584137,0.1092682-0.676445,0.3269634-0.9545212c0.2181168-0.2868118,0.504158-0.4791336,0.8581238-0.5777893
				c0.3451042-0.0895004,0.6859913-0.0715942,1.0218163,0.0537033c0.3358231,0.1344528,0.5995045,0.3538361,0.7901974,0.6585464
				l6.702137,10.9276581l6.7021332-10.9276581c0.1814117-0.3047104,0.4404526-0.5240936,0.7762756-0.6585464
				c0.3358269-0.1252975,0.504158-0.1881561,0.504158-0.1881561S41.2056847,106.6360931,41.5596504,106.7255936z"/>
			<path style="&st8;" d="M48.3162117,125.8788605c-0.40839-0.169838-0.6990738-0.4566498-0.871624-0.8600235
				c-0.1632729-0.4033737-0.1632729-0.8063278,0-1.2096939l1.7301674-4.0994873v-0.0133209l5.0124664-11.9358749
				c0.0185661-0.044548,0.0413475-0.0895004,0.0683479-0.1344604l0.0270004-0.0670166
				c0.0270004-0.0358047,0.0455627-0.0582809,0.0548439-0.0674362c0-0.0087433,0.013504-0.0312271,0.0405045-0.0670242
				c0.0270004-0.0270615,0.0455627-0.04496,0.0548439-0.0536957c0-0.0091629,0.0135002-0.0270615,0.0405006-0.0541229
				c0.0362854-0.0353775,0.0548477-0.0578613,0.0548477-0.0670166c0.0084381-0.0087433,0.0270004-0.0220642,0.0540009-0.0403824
				c0.0362816-0.0357971,0.059063-0.0536957,0.0683479-0.0536957c-0.009285,0,0.0092812-0.0133209,0.0548439-0.0403824
				c0.0362816-0.0266418,0.059063-0.0445404,0.0675011-0.0536957l0.0548477-0.0403824
				c0.0455627-0.0270538,0.0725632-0.0403748,0.0818443-0.0403748c0.0177193-0.0087433,0.0497856-0.0220642,0.0953484-0.0403824
				c0.0455627-0.0266418,0.059063-0.0353775,0.0405006-0.0266418c-0.0177193,0.0087433,0,0,0.0548477-0.0270538
				c0.0455627-0.0087433,0.0767822-0.0178986,0.0953445-0.0266418c0.0084381,0,0.0405006-0.0091629,0.0953484-0.0270615
				l0.0540009-0.0133209c0.0185623,0,0.0497818-0.0045776,0.0953484-0.0137329l0.0683441-0.0133209
				c0.0092812,0,0.0362854,0,0.0818481,0c0.0362816,0,0.059063,0,0.0683441,0c0.0177193,0,0.0447235,0,0.0818481,0h0.0810013
				l0.0818481,0.0133209l0.0683479,0.0137329c0.0185623,0,0.0497818,0.0087433,0.0953445,0.0266418
				c0.0548477,0.0091629,0.072567,0.0137405,0.0548477,0.0137405c0.1088448,0.0266418,0.2084122,0.0670166,0.2995415,0.1207199
				c-0.009285-0.0087433,0.0084381,0,0.0540009,0.0270538c0.0455627,0.0266418,0.0725632,0.04496,0.0818443,0.0537033
				l0.0548477,0.0403748c0.0362816,0.0266418,0.059063,0.04496,0.0683441,0.0537033
				c0.0084381,0,0.0270042,0.0133209,0.0540047,0.0403748c0.0270004,0.0266418,0.0497818,0.04496,0.0683441,0.0537033
				c0,0.0091553,0.0135002,0.0270538,0.0405006,0.0536957c0.0362854,0.0358047,0.0548477,0.0582809,0.0548477,0.0674438
				l0.0405006,0.0536957c0.0362816,0.0357971,0.0548439,0.0582809,0.0548439,0.0670242
				c0,0.0091553,0.013504,0.0316315,0.0405045,0.0674362c0.0278435,0.0357971,0.0413437,0.0582733,0.0413437,0.0670166
				c0.0270004,0.04496,0.0497818,0.0899124,0.0675011,0.1344604l5.0137367,11.9358749v0.0133209l1.729744,4.0994873
				c0.1636963,0.4033661,0.1636963,0.8063202,0,1.2096939c-0.1729736,0.4033737-0.4632339,0.6901855-0.871624,0.8600235
				C62.8148613,125.9596176,62.6106682,126,62.4014091,126c-0.7172127,0-1.2125092-0.3271942-1.4850502-0.981163
				l-1.3070145-3.1183243h-7.8872223l-1.3078575,3.1183243C50.1417274,125.6728058,49.6468506,126,48.9292145,126
				c-0.2088356,0-0.3130417,0-0.3130417,0S48.5161858,125.9596176,48.3162117,125.8788605z M58.2879868,118.7418137
				l-2.6292152-6.2366409l-2.6157112,6.2366409H58.2879868z"/>
			<path style="&st8;" d="M81.0911102,112.303688c0,1.1826401-0.3721085,2.2537231-1.1171646,3.2124023
				c-0.7172089,0.9499435-1.6613998,1.6263885-2.8334122,2.0293503l3.092453,6.1829453
				c0.1906967,0.3854675,0.2134781,0.7842636,0.0683441,1.196373c-0.1366882,0.412117-0.4041672,0.7168274-0.8041229,0.9141388
				C79.2702332,125.9462967,79.0339737,126,78.7892838,126c-0.6632156,0-1.139946-0.2955551-1.4310532-0.887085l-3.6096878-7.217804
				h-2.7650604v6.4114761c0,0.4300156-0.1594696,0.8017502-0.4767303,1.1156235
				c-0.3088303,0.3047104-0.685997,0.4566498-1.1306686,0.4566498c-0.4362335,0-0.812561-0.1519394-1.130661-0.4566498
				c-0.3088226-0.3138733-0.4632339-0.6856079-0.4632339-1.1156235v-16.0220413
				c0-0.4387512,0.1544113-0.8109055,0.4632339-1.1156158c0.3181-0.3134537,0.6944275-0.4703903,1.130661-0.4703903h5.6398163
				c1.6799698,0,3.1101685,0.5465698,4.2906189,1.6397095C80.4962463,109.4318085,81.0911102,110.753479,81.0911102,112.303688z
				 M75.1247482,114.7364044c0.7627792-0.0270538,1.4167023-0.2730713,1.9617844-0.7393036
				c0.5349579-0.474968,0.8032837-1.0394363,0.8032837-1.6934128c0-0.6810226-0.2818222-1.258812-0.8446274-1.7341995
				c-0.5627975-0.474556-1.2395096-0.7122498-2.0292892-0.7122498h-4.0324173v4.8791656H75.1247482z"/>
			<path style="&st8;" d="M89.5229874,109.8705597h-4.0459137c-0.4446716,0-0.8260651-0.156517-1.144165-0.4703903
				c-0.3088226-0.3042984-0.4632339-0.6764526-0.4632339-1.1156235c0-0.4387512,0.1544113-0.8109055,0.4632339-1.1156158
				c0.3181-0.3134537,0.6994934-0.4703903,1.144165-0.4703903h11.320137c0.4362335,0,0.8125534,0.1569366,1.130661,0.4703903
				c0.3088226,0.3047104,0.4632339,0.6768646,0.4632339,1.1156158c0,0.4391708-0.1544113,0.8113251-0.4632339,1.1156235
				c-0.3181076,0.3138733-0.6944275,0.4703903-1.130661,0.4703903h-4.0594254v14.5434265
				c0,0.4391708-0.1586304,0.8154907-0.4767303,1.1289444C91.9522324,125.847641,91.5759048,126,91.1303864,126
				c-0.4446716,0-0.8218384-0.152359-1.130661-0.4570694c-0.3181076-0.3134537-0.476738-0.6897736-0.476738-1.1289444V109.8705597z"
				/>
			<path style="&st1;" d="M138.8558197,99.6522369c0.5737762,0.2098007,0.9922943,0.5848694,1.2538605,1.126442
				c0.2624207,0.5419922,0.2927856,1.0956345,0.0936584,1.6617737l-7.8783569,22.100914v0.0183182
				c-0.0244751,0.086586-0.062439,0.1785812-0.1122284,0.2772369c-0.0244751,0.0245667-0.0371246,0.0432968-0.0371246,0.0553665
				c-0.0497894,0.086174-0.1063232,0.1660995-0.1687622,0.2397766c0.0253143-0.0366287,0.0126648-0.0183182-0.0371246,0.0553665
				c-0.0497742,0.062027-0.106308,0.1232147-0.1679077,0.1848221c-0.0379791,0.0370483-0.0506287,0.0491257-0.0379791,0.0370483
				c-0.0750885,0.061615-0.1493378,0.1232224-0.2244415,0.1844101c0.0126648-0.0120697-0.0067444,0-0.0556793,0.0370483
				c-0.0751038,0.0491257-0.1501923,0.0924149-0.225296,0.1290512c-0.0371246,0.0124893-0.0497894,0.0187302-0.0371246,0.0187302
				c-0.0877533,0.0366287-0.1687622,0.0678558-0.2430115,0.0924149c-0.0506287,0.024559-0.0565338,0.0307999-0.0185547,0.0183105
				c-0.0751038,0.0245667-0.1628571,0.0432968-0.2624207,0.0553665c-0.0995636,0.0249786-0.1307831,0.0308075-0.0936584,0.0183182
				C130.4787903,125.9879303,130.3606567,126,130.2484283,126c-0.1122131,0-0.2311859-0.0120697-0.3560638-0.0370483
				c0.0379639,0.0124893,0.0067444,0.0066605-0.0928192-0.0183182c-0.1004028-0.0120697-0.1814117-0.0307999-0.2438507-0.0553665
				c0.0253143,0.0124893,0.0126495,0.0062485-0.0371246-0.0183105c-0.0751038-0.024559-0.149353-0.0557861-0.2244415-0.0924149
				l-0.0565338-0.0187302c-0.0742645-0.0366364-0.149353-0.0799255-0.2244568-0.1290512
				c0-0.0120697-0.0059052-0.0183105-0.0185547-0.0183105l-0.0185699-0.0187378
				c-0.0877533-0.0611877-0.1620026-0.1227951-0.2244415-0.1844101c0,0.0120773-0.0185699,0-0.0565338-0.0370483
				c-0.062439-0.0616074-0.1189728-0.1294556-0.1679077-0.2031403l-0.0379791-0.0370483
				c-0.0497742-0.0736771-0.0995636-0.1536026-0.1493378-0.2397766c-0.0126648-0.024559-0.0253143-0.0432892-0.0379791-0.0553665
				c-0.0497742-0.0986557-0.0928192-0.1906509-0.1307831-0.2772369v-0.0183182l-5.7815704-16.2480774l-5.7824173,16.2480774
				v0.0183182c-0.0371246,0.086586-0.0810013,0.1785812-0.1307831,0.2772369
				c-0.0126572,0.0245667-0.0253143,0.0432968-0.0379715,0.0553665c-0.0497818,0.086174-0.0995636,0.1660995-0.1493454,0.2397766
				c0.0244675-0.0366287,0.0118103-0.0183182-0.0371323,0.0553665c-0.0632782,0.062027-0.1248779,0.1232147-0.1873169,0.1848221
				c-0.0379715,0.0370483-0.0506287,0.0491257-0.0379715,0.0370483c-0.062439,0.061615-0.1366882,0.1232224-0.2244415,0.1844101
				c0.0253143-0.0120697,0.006752,0-0.0556946,0.0370483c-0.0750961,0.0491257-0.1501923,0.0924149-0.2244415,0.1290512
				c-0.0379715,0.0124893-0.0506287,0.0187302-0.0379715,0.0187302c-0.0869064,0.0366287-0.1620026,0.0678558-0.2244415,0.0924149
				s-0.0750961,0.0307999-0.0371323,0.0183105c-0.0750961,0.0245667-0.1628494,0.0432968-0.262413,0.0553665
				c-0.0869064,0.0249786-0.1181259,0.0308075-0.0936584,0.0183182C114.7541275,125.9879303,114.6419067,126,114.5296783,126
				c-0.1248779,0-0.2430038-0.0120697-0.3552322-0.0370483c0.0371323,0.0124893,0.0059128,0.0066605-0.0936584-0.0183182
				c-0.1004105-0.0120697-0.1873169-0.0307999-0.2615662-0.0553665c0.0371246,0.0124893,0.0303726,0.0062485-0.0194092-0.0183105
				c-0.0742493-0.024559-0.1560974-0.0557861-0.2430115-0.0924149c0.0126572,0,0-0.0062408-0.0371246-0.0187302
				c-0.0750961-0.0366364-0.1501923-0.0799255-0.2244415-0.1290512c-0.0126572-0.0120697-0.0253143-0.0183105-0.0379715-0.0183105
				c0-0.0124893-0.0059052-0.0187378-0.0185623-0.0187378c-0.0750961-0.0611877-0.149353-0.1227951-0.2244492-0.1844101
				c0.0118179,0.0120773,0,0-0.0371246-0.0370483c-0.0632858-0.0616074-0.1248779-0.1294556-0.1873169-0.2031403
				l-0.0185623-0.0370483c-0.0632858-0.0736771-0.1189728-0.1536026-0.1687546-0.2397766
				c-0.0126572-0.024559-0.0253143-0.0432892-0.0371323-0.0553665c-0.050621-0.0986557-0.0877533-0.1906509-0.1122208-0.2772369
				l-0.0194092-0.0183182l-7.8589554-22.100914c-0.1999741-0.5661392-0.1679077-1.1197815,0.0936661-1.6617737
				c0.2615662-0.5415726,0.6800842-0.9166412,1.2538528-1.126442c0.5737686-0.1964798,1.1348801-0.1660919,1.6841812,0.0924149
				c0.5484543,0.2709961,0.9290009,0.6897659,1.1416321,1.2554855l5.7815704,16.2480774l5.7824173-16.2480774v-0.0183182
				c0.0118103-0.024559,0.0244675-0.0616074,0.0371246-0.1107254c0.0379715-0.0740967,0.0497894-0.1044846,0.0379715-0.0924149
				c0.0118179,0,0.0303802-0.024559,0.055687-0.0736847c0.0995712-0.1968918,0.2244492-0.3692322,0.3746414-0.5170135
				c0.1620026-0.1598511,0.3484802-0.2955551,0.5611115-0.4062805c0.0497818-0.024559,0.0683441-0.0370483,0.0565338-0.0370483
				l0.0928192-0.0366364c0.062439-0.024559,0.1004105-0.0370483,0.1122208-0.0370483
				c-0.0118103,0-0.0059052-0.0062408,0.0194092-0.0187302c-0.0126572,0.0124893,0.0118103,0.0066605,0.0742493-0.0183182
				c0.0497818-0.0120697,0.0877533-0.024559,0.1122208-0.0370483c0.0253143,0,0.062439-0.0058289,0.1122208-0.0183182
				c0.0379715-0.0120697,0.069191-0.0183105,0.0936661-0.0183105c0.0253067,0,0.0683441-0.0062485,0.1316299-0.0187378
				c0.0371246,0,0.0683441,0,0.0928116,0h0.2058792c0.0379715,0,0.0810089,0.0066605,0.1316299,0.0187378h0.0936661
				c0.0244675,0,0.0683441,0.0062408,0.1307831,0.0183105l0.0742493,0.0183182
				c0.0379715,0.0124893,0.0877533,0.0249786,0.1501923,0.0370483c0,0.0124893,0.0059128,0.0183182,0.0185623,0.0183182
				c0.0126572,0,0.0253143,0,0.0371323,0v0.0187302h0.0194016c0.0244751,0.0124893,0.0615997,0.0308075,0.1122284,0.0553665
				l0.0936584,0.0183182l0.0742493,0.0553589c0.1999741,0.0986633,0.3805466,0.2281189,0.5425491,0.38797
				c0.1501923,0.1477814,0.274231,0.3138733,0.3746414,0.4982834l0.0371246,0.0924149l0.0379715,0.0736771
				c0.0244675,0.062027,0.0430298,0.1049042,0.055687,0.1294632v0.0183182l5.7824097,16.2480774l5.7824249-16.2480774
				c0.1991272-0.5657196,0.5729218-0.9844894,1.1222229-1.2554855c0.5493011-0.2585068,0.8235321-0.387558,0.8235321-0.387558
				S138.2693939,99.4557571,138.8558197,99.6522369z"/>
			<path style="&st1;" d="M138.3296814,125.8788605c-0.4083862-0.169838-0.6994934-0.4566498-0.8716125-0.8600235
				c-0.1636963-0.4033737-0.1636963-0.8063278,0-1.2096939l1.7297363-4.0994873v-0.0133209l5.0128937-11.9358749
				c0.0185699-0.044548,0.0413513-0.0895004,0.0683441-0.1344604l0.0278473-0.0670166
				c0.0270081-0.0358047,0.0447235-0.0582809,0.0540009-0.0674362c0-0.0087433,0.013504-0.0312271,0.0404968-0.0670242
				c0.0270081-0.0270615,0.0455627-0.04496,0.0548553-0.0536957c0-0.0091629,0.0134888-0.0270615,0.0413361-0.0541229
				c0.0354462-0.0353775,0.0540009-0.0578613,0.0540009-0.0670166c0.0084381-0.0087433,0.0270081-0.0220642,0.0540009-0.0403824
				c0.0371399-0.0357971,0.0590668-0.0536957,0.0691986-0.0536957c-0.0101318,0,0.0084381-0.0133209,0.0540009-0.0403824
				c0.0362854-0.0266418,0.0590668-0.0445404,0.0683441-0.0536957l0.0540009-0.0403824
				c0.0455627-0.0270538,0.0725708-0.0403748,0.0818481-0.0403748c0.0185699-0.0087433,0.0497894-0.0220642,0.0953522-0.0403824
				c0.0455627-0.0266418,0.0590668-0.0353775,0.0413361-0.0266418c-0.0185547,0.0087433,0,0,0.0540009-0.0270538
				c0.0455627-0.0087433,0.0767822-0.0178986,0.0953522-0.0266418c0.0092773,0,0.0413513-0.0091629,0.0953522-0.0270615
				l0.0548401-0.0133209c0.0177155,0,0.0497894-0.0045776,0.0953522-0.0137329l0.0675049-0.0133209
				c0.0092773,0,0.0362701,0,0.0818329,0c0.0362854,0,0.0590668,0,0.0683594,0c0.0177155,0,0.0455627,0,0.0818329,0h0.0818481
				l0.0818481,0.0133209l0.0675049,0.0137329c0.0185699,0,0.0497894,0.0087433,0.0953522,0.0266418
				c0.0548401,0.0091629,0.0725555,0.0137405,0.0548401,0.0137405c0.1088409,0.0266418,0.2084198,0.0670166,0.2995453,0.1207199
				c-0.0092773-0.0087433,0.0092773,0,0.0548401,0.0270538c0.0447235,0.0266418,0.0725708,0.04496,0.0818481,0.0537033
				l0.0540009,0.0403748c0.0362854,0.0266418,0.0590668,0.04496,0.0683441,0.0537033
				c0.0084381,0,0.0270081,0.0133209,0.0540009,0.0403748c0.0278473,0.0266418,0.0497894,0.04496,0.0683441,0.0537033
				c0,0.0091553,0.013504,0.0270538,0.0413513,0.0536957c0.0354462,0.0358047,0.0540009,0.0582809,0.0540009,0.0674438
				l0.0413513,0.0536957c0.0354309,0.0357971,0.0540009,0.0582809,0.0540009,0.0670242
				c0,0.0091553,0.013504,0.0316315,0.0413361,0.0674362c0.0270081,0.0357971,0.0405121,0.0582733,0.0405121,0.0670166
				c0.0269928,0.04496,0.0497742,0.0899124,0.0683441,0.1344604l5.0128937,11.9358749v0.0133209l1.7297363,4.0994873
				c0.1636963,0.4033661,0.1636963,0.8063202,0,1.2096939c-0.1721344,0.4033737-0.4632263,0.6901855-0.8716278,0.8600235
				C152.8283386,125.9596176,152.6241455,126,152.4148865,126c-0.7172089,0-1.2116699-0.3271942-1.4842072-0.981163
				l-1.3078613-3.1183243h-7.8876343l-1.3078613,3.1183243C140.1547852,125.6728058,139.6603241,126,138.942276,126
				c-0.2084198,0-0.3130493,0-0.3130493,0S138.5296631,125.9596176,138.3296814,125.8788605z M148.3014679,118.7418137
				l-2.6292114-6.2366409l-2.6157227,6.2366409H148.3014679z"/>
			<path style="&st1;" d="M159.471405,106.7255936c0.4446716,0,0.8218384,0.1569366,1.130661,0.4703903
				c0.3181152,0.304718,0.4767456,0.6764526,0.4767456,1.1156235V122.82798h7.2058716
				c0.4455109,0,0.826889,0.1569366,1.144165,0.4703903c0.3088226,0.3047104,0.4632263,0.676445,0.4632263,1.1156158
				s-0.1544037,0.8109055-0.4632263,1.1156235C169.1115723,125.843483,168.7301941,126,168.2846832,126h-8.8132782
				c-0.4446716,0-0.8218384-0.156517-1.130661-0.4703903c-0.3181-0.304718-0.4767303-0.6764526-0.4767303-1.1156235v-16.1023788
				c0-0.4391708,0.1586304-0.8109055,0.4767303-1.1156235C158.6495667,106.8825302,159.0267334,106.7255936,159.471405,106.7255936z
				"/>
			<path style="&st1;" d="M175.0830078,106.7255936c0.4446716,0,0.8218384,0.1569366,1.130661,0.4703903
				c0.3181,0.304718,0.4767303,0.6764526,0.4767303,1.1156235V122.82798h7.2058716
				c0.4455109,0,0.8269043,0.1569366,1.144165,0.4703903c0.3088226,0.3047104,0.4632416,0.676445,0.4632416,1.1156158
				s-0.1544189,0.8109055-0.4632416,1.1156235C184.723175,125.843483,184.3417816,126,183.8962708,126h-8.8132629
				c-0.4446716,0-0.8218536-0.156517-1.1306763-0.4703903c-0.3181-0.304718-0.4767303-0.6764526-0.4767303-1.1156235v-16.1023788
				c0-0.4391708,0.1586304-0.8109055,0.4767303-1.1156235C174.2611542,106.8825302,174.6383362,106.7255936,175.0830078,106.7255936
				z"/>
			<path style="&st1;" d="M200.5153351,122.8146591c0.4446716,0,0.8218384,0.156517,1.130661,0.4703903
				c0.3181152,0.3134537,0.4767456,0.6897659,0.4767456,1.1289368s-0.1586304,0.8109055-0.4767456,1.1156235
				C201.3371735,125.843483,200.9600067,126,200.5153351,126h-9.8620758c-0.4455261,0-0.8226929-0.156517-1.1306763-0.4703903
				c-0.3181-0.304718-0.4767303-0.6764526-0.4767303-1.1156235v-16.1156998c0-0.4483337,0.1586304-0.824646,0.4767303-1.1293564
				c0.3079834-0.3134537,0.6851501-0.4703903,1.1306763-0.4703903h0.0134888l9.848587,0.0270538
				c0.4446716,0,0.8260651,0.1569366,1.144165,0.4703903c0.3088226,0.3138733,0.4632416,0.6901855,0.4632416,1.1289444
				c0,0.4391708-0.1586304,0.8113174-0.4767456,1.1156158c-0.3088226,0.3138733-0.6859894,0.4703903-1.130661,0.4703903h-0.013504
				l-8.2276764-0.0266342v4.878746h5.9393616c0.4446716,0,0.8260498,0.1527786,1.144165,0.457077
				c0.3172607,0.3138657,0.4767303,0.6901855,0.4767303,1.1293564s-0.1594696,0.8154831-0.4767303,1.1289368
				c-0.3181152,0.304718-0.6994934,0.4570694-1.144165,0.4570694h-5.9393616v4.8791733H200.5153351z"/>
			<path style="&st1;" d="M210.1327362,109.8705597h-4.045929c-0.4455109,0-0.8269043-0.156517-1.144165-0.4703903
				c-0.3088226-0.3042984-0.4632263-0.6764526-0.4632263-1.1156235c0-0.4387512,0.1544037-0.8109055,0.4632263-1.1156158
				c0.3172607-0.3134537,0.6986542-0.4703903,1.144165-0.4703903h11.3201447c0.435379,0,0.8125458,0.1569366,1.130661,0.4703903
				C218.8455811,107.4736404,219,107.8457947,219,108.2845459c0,0.4391708-0.1544189,0.8113251-0.4623871,1.1156235
				c-0.3181152,0.3138733-0.695282,0.4703903-1.130661,0.4703903h-4.059433v14.5434265
				c0,0.4391708-0.1594696,0.8154907-0.4767303,1.1289444C212.5611267,125.847641,212.1847992,126,211.7401276,126
				c-0.4455109,0-0.8226776-0.152359-1.130661-0.4570694c-0.3181-0.3134537-0.4767303-0.6897736-0.4767303-1.1289444V109.8705597z"
				/>
		</g>
	</g>
</g>
</svg>
